G04 ================== begin FILE IDENTIFICATION RECORD ==================*
G04 Layout Name:  E:/Cadence/SPB_Data/control_board/control_board.brd*
G04 Film Name:    BOTTOM*
G04 File Format:  Gerber RS274X*
G04 File Origin:  Cadence Allegro 16.6-2015-S098*
G04 Origin Date:  Fri Dec 27 14:31:34 2019*
G04 *
G04 Layer:  ETCH/BOTTOM*
G04 Layer:  PIN/BOTTOM*
G04 Layer:  VIA CLASS/BOTTOM*
G04 *
G04 Offset:    (0.00 0.00)*
G04 Mirror:    No*
G04 Mode:      Positive*
G04 Rotation:  0*
G04 FullContactRelief:  No*
G04 UndefLineWidth:     6.00*
G04 ================== end FILE IDENTIFICATION RECORD ====================*
%FSLAX35Y35*MOIN*%
%IR0*IPPOS*OFA0.00000B0.00000*MIA0B0*SFA1.00000B1.00000*%
%AMMACRO15*
4,1,44,.01476,-.0128,
-.01476,-.0128,
-.015444,-.01274,
-.016107,-.012563,
-.016729,-.012273,
-.017292,-.01188,
-.017778,-.011394,
-.018172,-.010832,
-.018462,-.01021,
-.01864,-.009547,
-.0187,-.008863,
-.0187,-.00886,
-.0187,.00886,
-.01864,.009544,
-.018463,.010207,
-.018173,.010829,
-.01778,.011392,
-.017294,.011878,
-.016732,.012272,
-.01611,.012562,
-.015447,.01274,
-.014763,.0128,
-.01476,.0128,
.01476,.0128,
.015444,.01274,
.016107,.012563,
.016729,.012273,
.017292,.01188,
.017778,.011394,
.018172,.010832,
.018462,.01021,
.01864,.009547,
.0187,.008863,
.0187,.00886,
.0187,-.00886,
.01864,-.009544,
.018463,-.010207,
.018173,-.010829,
.01778,-.011392,
.017294,-.011878,
.016732,-.012272,
.01611,-.012562,
.015447,-.01274,
.014763,-.0128,
.01476,-.0128,
0.0*
%
%ADD15MACRO15*%
%ADD12C,.02362*%
%ADD14C,.05906*%
%ADD30C,.03937*%
%ADD11C,.06693*%
%ADD22C,.01969*%
%ADD35C,.09449*%
%AMMACRO23*
4,1,44,-.00787,.01189,
.00787,.01189,
.008554,.011831,
.009217,.011654,
.009839,.011364,
.010401,.010971,
.010887,.010486,
.011281,.009924,
.011571,.009303,
.01175,.00864,
.01181,.007957,
.01181,.00795,
.01181,-.00795,
.011751,-.008634,
.011574,-.009297,
.011284,-.009919,
.010891,-.010481,
.010406,-.010967,
.009844,-.011361,
.009223,-.011651,
.00856,-.01183,
.007877,-.01189,
.00787,-.01189,
-.00787,-.01189,
-.008554,-.011831,
-.009217,-.011654,
-.009839,-.011364,
-.010401,-.010971,
-.010887,-.010486,
-.011281,-.009924,
-.011571,-.009303,
-.01175,-.00864,
-.01181,-.007957,
-.01181,-.00795,
-.01181,.00795,
-.011751,.008634,
-.011574,.009297,
-.011284,.009919,
-.010891,.010481,
-.010406,.010967,
-.009844,.011361,
-.009223,.011651,
-.00856,.01183,
-.007877,.01189,
-.00787,.01189,
0.0*
%
%ADD23MACRO23*%
%AMMACRO20*
4,1,44,-.01189,-.00787,
-.01189,.00787,
-.011831,.008554,
-.011654,.009217,
-.011364,.009839,
-.010971,.010401,
-.010486,.010887,
-.009924,.011281,
-.009303,.011571,
-.00864,.01175,
-.007957,.01181,
-.00795,.01181,
.00795,.01181,
.008634,.011751,
.009297,.011574,
.009919,.011284,
.010481,.010891,
.010967,.010406,
.011361,.009844,
.011651,.009223,
.01183,.00856,
.01189,.007877,
.01189,.00787,
.01189,-.00787,
.011831,-.008554,
.011654,-.009217,
.011364,-.009839,
.010971,-.010401,
.010486,-.010887,
.009924,-.011281,
.009303,-.011571,
.00864,-.01175,
.007957,-.01181,
.00795,-.01181,
-.00795,-.01181,
-.008634,-.011751,
-.009297,-.011574,
-.009919,-.011284,
-.010481,-.010891,
-.010967,-.010406,
-.011361,-.009844,
-.011651,-.009223,
-.01183,-.00856,
-.01189,-.007877,
-.01189,-.00787,
0.0*
%
%ADD20MACRO20*%
%AMMACRO31*
4,1,44,-.01181,-.00689,
-.01181,.00689,
-.011751,.007574,
-.011573,.008237,
-.011284,.008859,
-.01089,.009422,
-.010405,.009907,
-.009843,.010301,
-.009221,.010592,
-.008558,.01077,
-.007875,.01083,
-.00787,.01083,
.00787,.01083,
.008554,.010771,
.009217,.010593,
.009839,.010304,
.010402,.00991,
.010887,.009425,
.011281,.008863,
.011572,.008241,
.01175,.007578,
.01181,.006895,
.01181,.00689,
.01181,-.00689,
.011751,-.007574,
.011573,-.008237,
.011284,-.008859,
.01089,-.009422,
.010405,-.009907,
.009843,-.010301,
.009221,-.010592,
.008558,-.01077,
.007875,-.01083,
.00787,-.01083,
-.00787,-.01083,
-.008554,-.010771,
-.009217,-.010593,
-.009839,-.010304,
-.010402,-.00991,
-.010887,-.009425,
-.011281,-.008863,
-.011572,-.008241,
-.01175,-.007578,
-.01181,-.006895,
-.01181,-.00689,
0.0*
%
%ADD31MACRO31*%
%AMMACRO28*
4,1,44,-.01378,.01378,
.01378,.01378,
.014464,.01372,
.015127,.013543,
.015749,.013253,
.016312,.01286,
.016798,.012374,
.017192,.011812,
.017482,.01119,
.01766,.010527,
.01772,.009843,
.01772,.00984,
.01772,-.00984,
.01766,-.010524,
.017483,-.011187,
.017193,-.011809,
.0168,-.012372,
.016314,-.012858,
.015752,-.013252,
.01513,-.013542,
.014467,-.01372,
.013783,-.01378,
.01378,-.01378,
-.01378,-.01378,
-.014464,-.01372,
-.015127,-.013543,
-.015749,-.013253,
-.016312,-.01286,
-.016798,-.012374,
-.017192,-.011812,
-.017482,-.01119,
-.01766,-.010527,
-.01772,-.009843,
-.01772,-.00984,
-.01772,.00984,
-.01766,.010524,
-.017483,.011187,
-.017193,.011809,
-.0168,.012372,
-.016314,.012858,
-.015752,.013252,
-.01513,.013542,
-.014467,.01372,
-.013783,.01378,
-.01378,.01378,
0.0*
%
%ADD28MACRO28*%
%AMMACRO25*
4,1,44,-.00689,.01181,
.00689,.01181,
.007574,.011751,
.008237,.011573,
.008859,.011284,
.009422,.01089,
.009907,.010405,
.010301,.009843,
.010592,.009221,
.01077,.008558,
.01083,.007875,
.01083,.00787,
.01083,-.00787,
.010771,-.008554,
.010593,-.009217,
.010304,-.009839,
.00991,-.010402,
.009425,-.010887,
.008863,-.011281,
.008241,-.011572,
.007578,-.01175,
.006895,-.01181,
.00689,-.01181,
-.00689,-.01181,
-.007574,-.011751,
-.008237,-.011573,
-.008859,-.011284,
-.009422,-.01089,
-.009907,-.010405,
-.010301,-.009843,
-.010592,-.009221,
-.01077,-.008558,
-.01083,-.007875,
-.01083,-.00787,
-.01083,.00787,
-.010771,.008554,
-.010593,.009217,
-.010304,.009839,
-.00991,.010402,
-.009425,.010887,
-.008863,.011281,
-.008241,.011572,
-.007578,.01175,
-.006895,.01181,
-.00689,.01181,
0.0*
%
%ADD25MACRO25*%
%ADD10R,.06693X.06693*%
%AMMACRO34*
4,1,40,-.02362,.01476,
.02362,.01476,
.024304,.014701,
.024966,.014524,
.025589,.014235,
.026151,.013842,
.026637,.013357,
.027031,.012795,
.027321,.012174,
.0275,.011511,
.02756,.01083,
.02756,-.01083,
.027499,-.011513,
.027321,-.012176,
.02703,-.012797,
.026635,-.013359,
.026149,-.013843,
.025587,-.014236,
.024964,-.014525,
.024301,-.014701,
.02362,-.01476,
-.02362,-.01476,
-.024304,-.014701,
-.024966,-.014524,
-.025589,-.014235,
-.026151,-.013842,
-.026637,-.013357,
-.027031,-.012795,
-.027321,-.012174,
-.0275,-.011511,
-.02756,-.01083,
-.02756,.01083,
-.027499,.011513,
-.027321,.012176,
-.02703,.012797,
-.026635,.013359,
-.026149,.013843,
-.025587,.014236,
-.024964,.014525,
-.024301,.014701,
-.02362,.01476,
0.0*
%
%ADD34MACRO34*%
%AMMACRO19*
4,1,40,-.01476,-.02362,
-.01476,.02362,
-.014701,.024304,
-.014524,.024966,
-.014235,.025589,
-.013842,.026151,
-.013357,.026637,
-.012795,.027031,
-.012174,.027321,
-.011511,.0275,
-.01083,.02756,
.01083,.02756,
.011513,.027499,
.012176,.027321,
.012797,.02703,
.013359,.026635,
.013843,.026149,
.014236,.025587,
.014525,.024964,
.014701,.024301,
.01476,.02362,
.01476,-.02362,
.014701,-.024304,
.014524,-.024966,
.014235,-.025589,
.013842,-.026151,
.013357,-.026637,
.012795,-.027031,
.012174,-.027321,
.011511,-.0275,
.01083,-.02756,
-.01083,-.02756,
-.011513,-.027499,
-.012176,-.027321,
-.012797,-.02703,
-.013359,-.026635,
-.013843,-.026149,
-.014236,-.025587,
-.014525,-.024964,
-.014701,-.024301,
-.01476,-.02362,
0.0*
%
%ADD19MACRO19*%
%AMMACRO16*
4,1,40,-.01575,-.02264,
-.01575,.02264,
-.015689,.023323,
-.015511,.023986,
-.01522,.024607,
-.014825,.025169,
-.014339,.025653,
-.013777,.026046,
-.013154,.026335,
-.012491,.026511,
-.01181,.02657,
.01181,.02657,
.012494,.026511,
.013156,.026334,
.013779,.026045,
.014341,.025652,
.014827,.025167,
.015221,.024605,
.015511,.023984,
.01569,.023321,
.01575,.02264,
.01575,-.02264,
.015689,-.023323,
.015511,-.023986,
.01522,-.024607,
.014825,-.025169,
.014339,-.025653,
.013777,-.026046,
.013154,-.026335,
.012491,-.026511,
.01181,-.02657,
-.01181,-.02657,
-.012494,-.026511,
-.013156,-.026334,
-.013779,-.026045,
-.014341,-.025652,
-.014827,-.025167,
-.015221,-.024605,
-.015511,-.023984,
-.01569,-.023321,
-.01575,-.02264,
0.0*
%
%ADD16MACRO16*%
%AMMACRO33*
4,1,44,-.01476,.0128,
.01476,.0128,
.015444,.01274,
.016107,.012563,
.016729,.012273,
.017292,.01188,
.017778,.011394,
.018172,.010832,
.018462,.01021,
.01864,.009547,
.0187,.008863,
.0187,.00886,
.0187,-.00886,
.01864,-.009544,
.018463,-.010207,
.018173,-.010829,
.01778,-.011392,
.017294,-.011878,
.016732,-.012272,
.01611,-.012562,
.015447,-.01274,
.014763,-.0128,
.01476,-.0128,
-.01476,-.0128,
-.015444,-.01274,
-.016107,-.012563,
-.016729,-.012273,
-.017292,-.01188,
-.017778,-.011394,
-.018172,-.010832,
-.018462,-.01021,
-.01864,-.009547,
-.0187,-.008863,
-.0187,-.00886,
-.0187,.00886,
-.01864,.009544,
-.018463,.010207,
-.018173,.010829,
-.01778,.011392,
-.017294,.011878,
-.016732,.012272,
-.01611,.012562,
-.015447,.01274,
-.014763,.0128,
-.01476,.0128,
0.0*
%
%ADD33MACRO33*%
%ADD32R,.03543X.02362*%
%ADD17R,.02362X.03543*%
%ADD13C,.16535*%
%AMMACRO29*
4,1,44,.01189,.00787,
.01189,-.00787,
.011831,-.008554,
.011654,-.009217,
.011364,-.009839,
.010971,-.010401,
.010486,-.010887,
.009924,-.011281,
.009303,-.011571,
.00864,-.01175,
.007957,-.01181,
.00795,-.01181,
-.00795,-.01181,
-.008634,-.011751,
-.009297,-.011574,
-.009919,-.011284,
-.010481,-.010891,
-.010967,-.010406,
-.011361,-.009844,
-.011651,-.009223,
-.01183,-.00856,
-.01189,-.007877,
-.01189,-.00787,
-.01189,.00787,
-.011831,.008554,
-.011654,.009217,
-.011364,.009839,
-.010971,.010401,
-.010486,.010887,
-.009924,.011281,
-.009303,.011571,
-.00864,.01175,
-.007957,.01181,
-.00795,.01181,
.00795,.01181,
.008634,.011751,
.009297,.011574,
.009919,.011284,
.010481,.010891,
.010967,.010406,
.011361,.009844,
.011651,.009223,
.01183,.00856,
.01189,.007877,
.01189,.00787,
0.0*
%
%ADD29MACRO29*%
%AMMACRO24*
4,1,44,.00787,-.01189,
-.00787,-.01189,
-.008554,-.011831,
-.009217,-.011654,
-.009839,-.011364,
-.010401,-.010971,
-.010887,-.010486,
-.011281,-.009924,
-.011571,-.009303,
-.01175,-.00864,
-.01181,-.007957,
-.01181,-.00795,
-.01181,.00795,
-.011751,.008634,
-.011574,.009297,
-.011284,.009919,
-.010891,.010481,
-.010406,.010967,
-.009844,.011361,
-.009223,.011651,
-.00856,.01183,
-.007877,.01189,
-.00787,.01189,
.00787,.01189,
.008554,.011831,
.009217,.011654,
.009839,.011364,
.010401,.010971,
.010887,.010486,
.011281,.009924,
.011571,.009303,
.01175,.00864,
.01181,.007957,
.01181,.00795,
.01181,-.00795,
.011751,-.008634,
.011574,-.009297,
.011284,-.009919,
.010891,-.010481,
.010406,-.010967,
.009844,-.011361,
.009223,-.011651,
.00856,-.01183,
.007877,-.01189,
.00787,-.01189,
0.0*
%
%ADD24MACRO24*%
%AMMACRO21*
4,1,44,.01181,.00689,
.01181,-.00689,
.011751,-.007574,
.011573,-.008237,
.011284,-.008859,
.01089,-.009422,
.010405,-.009907,
.009843,-.010301,
.009221,-.010592,
.008558,-.01077,
.007875,-.01083,
.00787,-.01083,
-.00787,-.01083,
-.008554,-.010771,
-.009217,-.010593,
-.009839,-.010304,
-.010402,-.00991,
-.010887,-.009425,
-.011281,-.008863,
-.011572,-.008241,
-.01175,-.007578,
-.01181,-.006895,
-.01181,-.00689,
-.01181,.00689,
-.011751,.007574,
-.011573,.008237,
-.011284,.008859,
-.01089,.009422,
-.010405,.009907,
-.009843,.010301,
-.009221,.010592,
-.008558,.01077,
-.007875,.01083,
-.00787,.01083,
.00787,.01083,
.008554,.010771,
.009217,.010593,
.009839,.010304,
.010402,.00991,
.010887,.009425,
.011281,.008863,
.011572,.008241,
.01175,.007578,
.01181,.006895,
.01181,.00689,
0.0*
%
%ADD21MACRO21*%
%AMMACRO27*
4,1,44,.01378,-.01378,
-.01378,-.01378,
-.014464,-.01372,
-.015127,-.013543,
-.015749,-.013253,
-.016312,-.01286,
-.016798,-.012374,
-.017192,-.011812,
-.017482,-.01119,
-.01766,-.010527,
-.01772,-.009843,
-.01772,-.00984,
-.01772,.00984,
-.01766,.010524,
-.017483,.011187,
-.017193,.011809,
-.0168,.012372,
-.016314,.012858,
-.015752,.013252,
-.01513,.013542,
-.014467,.01372,
-.013783,.01378,
-.01378,.01378,
.01378,.01378,
.014464,.01372,
.015127,.013543,
.015749,.013253,
.016312,.01286,
.016798,.012374,
.017192,.011812,
.017482,.01119,
.01766,.010527,
.01772,.009843,
.01772,.00984,
.01772,-.00984,
.01766,-.010524,
.017483,-.011187,
.017193,-.011809,
.0168,-.012372,
.016314,-.012858,
.015752,-.013252,
.01513,-.013542,
.014467,-.01372,
.013783,-.01378,
.01378,-.01378,
0.0*
%
%ADD27MACRO27*%
%AMMACRO26*
4,1,44,.00689,-.01181,
-.00689,-.01181,
-.007574,-.011751,
-.008237,-.011573,
-.008859,-.011284,
-.009422,-.01089,
-.009907,-.010405,
-.010301,-.009843,
-.010592,-.009221,
-.01077,-.008558,
-.01083,-.007875,
-.01083,-.00787,
-.01083,.00787,
-.010771,.008554,
-.010593,.009217,
-.010304,.009839,
-.00991,.010402,
-.009425,.010887,
-.008863,.011281,
-.008241,.011572,
-.007578,.01175,
-.006895,.01181,
-.00689,.01181,
.00689,.01181,
.007574,.011751,
.008237,.011573,
.008859,.011284,
.009422,.01089,
.009907,.010405,
.010301,.009843,
.010592,.009221,
.01077,.008558,
.01083,.007875,
.01083,.00787,
.01083,-.00787,
.010771,-.008554,
.010593,-.009217,
.010304,-.009839,
.00991,-.010402,
.009425,-.010887,
.008863,-.011281,
.008241,-.011572,
.007578,-.01175,
.006895,-.01181,
.00689,-.01181,
0.0*
%
%ADD26MACRO26*%
%AMMACRO18*
4,1,40,.01476,.02362,
.01476,-.02362,
.014701,-.024304,
.014524,-.024966,
.014235,-.025589,
.013842,-.026151,
.013357,-.026637,
.012795,-.027031,
.012174,-.027321,
.011511,-.0275,
.01083,-.02756,
-.01083,-.02756,
-.011513,-.027499,
-.012176,-.027321,
-.012797,-.02703,
-.013359,-.026635,
-.013843,-.026149,
-.014236,-.025587,
-.014525,-.024964,
-.014701,-.024301,
-.01476,-.02362,
-.01476,.02362,
-.014701,.024304,
-.014524,.024966,
-.014235,.025589,
-.013842,.026151,
-.013357,.026637,
-.012795,.027031,
-.012174,.027321,
-.011511,.0275,
-.01083,.02756,
.01083,.02756,
.011513,.027499,
.012176,.027321,
.012797,.02703,
.013359,.026635,
.013843,.026149,
.014236,.025587,
.014525,.024964,
.014701,.024301,
.01476,.02362,
0.0*
%
%ADD18MACRO18*%
%ADD36C,.01*%
%ADD37C,.02*%
%ADD38C,.03*%
%ADD39C,.012*%
%ADD40C,.015*%
%ADD41C,.008*%
G75*
%LPD*%
G75*
G36*
G01X24724Y-60408D02*
X24464Y-60148D01*
X24461Y-60070D01*
G03X22568Y-58254I-1894J-79D01*
G01X20964D01*
Y-39230D01*
G03X21086Y-34311I-1008J2486D01*
G01X21054Y-34296D01*
X20964Y-34206D01*
Y-6000D01*
G02X21536Y-5636I402J0D01*
G03X21704Y-5705I803J1717D01*
G02X21765Y-6049I-67J-189D01*
G03X21442Y-6737I572J-688D01*
G01Y-8329D01*
G03X22336Y-9224I895J0D01*
G01X23912D01*
G03X24806Y-8329I-1J895D01*
G01Y-6737D01*
G03X24631Y-6205I-895J0D01*
G02X24771Y-5607I323J240D01*
G03X25806Y-3919I-860J1689D01*
G01Y-3600D01*
X27996D01*
Y-14778D01*
G02X27416Y-15138I-402J0D01*
G03X27019Y-15046I-395J-803D01*
G01X25427D01*
G03X24532Y-15940I0J-895D01*
G01Y-17516D01*
G03X25427Y-18410I895J1D01*
G01X27019D01*
G03X27416Y-18318I2J895D01*
G02X27996Y-18678I178J-360D01*
G01Y-28490D01*
G02X27397Y-28840I-402J0D01*
G03X26959Y-28726I-437J-781D01*
G01X25367D01*
G03X24472Y-29620I0J-895D01*
G01Y-31196D01*
G03X25367Y-32090I895J1D01*
G01X26959D01*
G03X27397Y-31976I1J895D01*
G02X27996Y-32326I197J-350D01*
G01Y-42441D01*
G02X27494Y-42830I-402J0D01*
G03X27271Y-42802I-222J-867D01*
G01X25679D01*
G03X24784Y-43696I0J-895D01*
G01Y-45272D01*
G03X25679Y-46166I895J1D01*
G01X27271D01*
G03X27494Y-46138I1J895D01*
G02X27996Y-46527I100J-389D01*
G01Y-53278D01*
G02X27457Y-53655I-402J1D01*
G03X27151Y-53602I-303J-842D01*
G01X25559D01*
G03X24664Y-54496I0J-895D01*
G01Y-56072D01*
G03X25559Y-56966I895J1D01*
G01X27151D01*
G03X27457Y-56913I3J895D01*
G02X27996Y-57290I137J-378D01*
G01Y-60408D01*
X24724D01*
G37*
G36*
G01X26136Y-66504D02*
Y-59412D01*
X28399D01*
G02X28801Y-59817I0J-402D01*
G03X29386Y-61440I2486J-21D01*
G01Y-66504D01*
X26136D01*
G37*
G36*
G01X25314Y-61536D02*
Y-60998D01*
X25200Y-60884D01*
Y-58368D01*
X28524D01*
Y-61536D01*
X25314D01*
G37*
G36*
G01X25980Y-2940D02*
X28668D01*
Y-5736D01*
X25980D01*
Y-2940D01*
G37*
G36*
G01X26232Y-4896D02*
Y3180D01*
X28164D01*
Y3192D01*
X39846D01*
Y2083D01*
G03X42534Y-684I6J-2683D01*
G01X42536Y-605D01*
X43650Y508D01*
Y3192D01*
X51579D01*
X51612Y3180D01*
G03X53292I840J2340D01*
G01X53325Y3192D01*
X57062D01*
G03X60250I1594J1908D01*
G01X83820D01*
Y-4896D01*
X77106D01*
G02X76716Y-4397I0J402D01*
G03X76742Y-4183I-869J214D01*
G01Y-2591D01*
G03X75848Y-1696I-895J0D01*
G01X74272D01*
G03X73378Y-2591I1J-895D01*
G01Y-4183D01*
G03X73404Y-4397I895J0D01*
G02X73014Y-4896I-390J-97D01*
G01X57174D01*
G02X56814Y-4316I0J402D01*
G03X56906Y-3919I-803J395D01*
G01Y-2327D01*
G03X56012Y-1432I-895J0D01*
G01X54436D01*
G03X53542Y-2327I1J-895D01*
G01Y-3919D01*
G03X53634Y-4316I895J-2D01*
G02X53274Y-4896I-360J-178D01*
G01X51886D01*
G02X51509Y-4353I0J402D01*
G03X51566Y-4039I-838J314D01*
G01Y-2447D01*
G03X50672Y-1552I-895J0D01*
G01X49096D01*
G03X48202Y-2447I1J-895D01*
G01Y-4039D01*
G03X48259Y-4353I895J0D01*
G02X47882Y-4896I-377J-141D01*
G01X36507D01*
G02X36125Y-4368I0J402D01*
G03X36170Y-4087I-850J280D01*
G01Y-2495D01*
G03X35276Y-1600I-895J0D01*
G01X33700D01*
G03X32806Y-2495I1J-895D01*
G01Y-4087D01*
G03X32851Y-4368I895J-1D01*
G02X32469Y-4896I-382J-126D01*
G01X26232D01*
G37*
G36*
G01X32856Y-57910D02*
G03X30547Y-57466I-1568J-1929D01*
G02X30026Y-57082I-119J384D01*
G01Y-56866D01*
X29498D01*
Y-10080D01*
X32290D01*
Y-27710D01*
X33588D01*
Y-36838D01*
X32290D01*
Y-55406D01*
X41750D01*
Y-54300D01*
X46181D01*
X46213Y-54311D01*
G03X47857I822J2346D01*
G01X47889Y-54300D01*
X55990D01*
Y-55406D01*
X56080D01*
G02X56481Y-55821I0J-402D01*
G03X56900Y-57285I2485J-81D01*
G02X56566Y-57910I-334J-223D01*
G01X52541D01*
G03X49403I-1569J-1929D01*
G01X32856D01*
G37*
G36*
G01X29498Y-10104D02*
Y-7238D01*
X30170D01*
Y-6398D01*
X56228D01*
G02X56551Y-7039I0J-402D01*
G03X56064Y-8607I1997J-1480D01*
G02X55662Y-9022I-402J-13D01*
G01X32290D01*
Y-10104D01*
X29498D01*
G37*
G36*
G01X33188Y-66504D02*
Y-61440D01*
G03X33773Y-59817I-1901J1602D01*
G02X34175Y-59412I402J3D01*
G01X41463D01*
X41502Y-59429D01*
G03X41624Y-59477I755J1739D01*
G02X41685Y-59821I-67J-189D01*
G03X41362Y-60509I572J-688D01*
G01Y-62101D01*
G03X42256Y-62996I895J0D01*
G01X43832D01*
G03X44726Y-62101I-1J895D01*
G01Y-60509D01*
G03X44403Y-59821I-895J0D01*
G02X44464Y-59477I128J155D01*
G03X44586Y-59429I-633J1787D01*
G01X44625Y-59412D01*
X52484D01*
G03X53437Y-59670I955J1637D01*
G01X56195D01*
G03X57148Y-59412I-2J1895D01*
G01X59787D01*
X59946Y-59572D01*
Y-66504D01*
X41901D01*
X41875Y-66497D01*
G03X40503I-686J-2594D01*
G01X40477Y-66504D01*
X33188D01*
G37*
G36*
G01X137880Y-106464D02*
Y-52872D01*
X133500D01*
Y-36768D01*
X76584D01*
Y-38773D01*
G03Y-41535I2067J-1381D01*
G01Y-42710D01*
G03Y-45472I2067J-1381D01*
G01Y-46647D01*
G03Y-49409I2067J-1381D01*
G01Y-50584D01*
G03X76553Y-53298I2067J-1381D01*
G01X76584Y-53347D01*
Y-53904D01*
X73222D01*
G02X72882Y-53288I0J402D01*
G03X72596Y-50270I-2105J1323D01*
G02Y-49723I294J274D01*
G03Y-46333I-1819J1695D01*
G02Y-45786I294J273D01*
G03Y-42396I-1819J1695D01*
G02Y-41849I294J273D01*
G03X69082Y-38335I-1819J1695D01*
G02X68535I-274J294D01*
G03Y-41973I-1695J-1819D01*
G02X69082I274J-294D01*
G01X69085Y-41975D01*
G02Y-42270I-137J-148D01*
G03X68958Y-45786I1692J-1821D01*
G02Y-46333I-294J-273D01*
G01X68956Y-46336D01*
G02X68661I-147J137D01*
G03X65145Y-46209I-1821J-1692D01*
G02X64598I-274J294D01*
G03X61208I-1695J-1819D01*
G02X60661I-274J294D01*
G03X56735Y-49125I-1695J-1819D01*
G02X56374Y-49704I-361J-177D01*
G01X48068D01*
G03X46039Y-49687I-1034J-2261D01*
G01X46001Y-49704D01*
X45690D01*
G02X45329Y-49125I0J402D01*
G03X44917Y-46333I-2231J1097D01*
G02Y-45786I294J273D01*
G03Y-42396I-1819J1695D01*
G02Y-41849I294J273D01*
G03Y-38459I-1819J1695D01*
G02Y-37912I294J273D01*
G03X41279I-1819J1695D01*
G02Y-38459I-294J-273D01*
G03Y-41849I1819J-1695D01*
G02Y-42396I-294J-273D01*
G03Y-45786I1819J-1695D01*
G02Y-46333I-294J-273D01*
G03X40867Y-49125I1819J-1695D01*
G02X40506Y-49704I-361J-177D01*
G01X40195D01*
X40157Y-49687D01*
G03X37056Y-53288I-996J-2278D01*
G02X36716Y-53904I-340J-214D01*
G01X33792D01*
Y-46789D01*
G02X34337Y-46414I402J0D01*
G03X37043Y-42396I887J2323D01*
G02Y-41849I294J273D01*
G03X36516Y-38030I-1819J1695D01*
G01Y-26410D01*
G03X34337Y-21963I-1291J2125D01*
G02X33792Y-21588I-143J375D01*
G01Y-10524D01*
X36724D01*
G02X37063Y-11142I0J-402D01*
G03X37342Y-14170I2098J-1334D01*
G02Y-14717I-294J-274D01*
G03X40856Y-18231I1819J-1695D01*
G02X41403I273J-294D01*
G03X44793I1695J1819D01*
G02X45340I274J-294D01*
G03X48730I1695J1819D01*
G02X49277I274J-294D01*
G03X53347Y-15677I1695J1819D01*
G02X53731Y-15156I384J119D01*
G01X56207D01*
G02X56591Y-15677I0J-402D01*
G03X60781Y-14713I2375J-735D01*
G02X60770Y-14177I294J274D01*
G03X60777Y-14169I-1868J1641D01*
G02X61077Y-14162I153J-130D01*
G03X64643Y-14250I1826J1687D01*
G02X64915Y-14241I141J-144D01*
G03X65054Y-14350I1238J1435D01*
G02X65080Y-14656I-116J-164D01*
G03X65021Y-18107I1760J-1756D01*
G02Y-18654I-294J-274D01*
G03X68659I1819J-1695D01*
G02Y-18107I294J273D01*
G01X68661Y-18104D01*
G02X68956I148J-137D01*
G03X72596Y-14717I1821J1692D01*
G02Y-14170I294J273D01*
G03X72875Y-11142I-1819J1694D01*
G02X73214Y-10524I339J216D01*
G01X76584D01*
Y-11093D01*
X76553Y-11142D01*
G03X76584Y-13856I2098J-1333D01*
G01Y-15031D01*
G03Y-17793I2067J-1381D01*
G01Y-18968D01*
G03X76553Y-21682I2067J-1381D01*
G01X76584Y-21731D01*
Y-21799D01*
G02X75978Y-22145I-402J0D01*
G03X72485Y-25388I-1264J-2141D01*
G03X72246Y-26308I1656J-921D01*
G01Y-27884D01*
G03X74141Y-29778I1895J1D01*
G01X75733D01*
G03X76321Y-29685I2J1895D01*
G01X76351Y-29675D01*
X76584D01*
Y-29784D01*
X92425D01*
G03X96623I2099J1332D01*
G01X143376D01*
Y-46440D01*
X155364D01*
Y-94104D01*
X162228D01*
Y-106464D01*
X137880D01*
G37*
G36*
G01X65271Y-57910D02*
X63664D01*
X61845Y-56092D01*
G02X62129Y-55406I284J284D01*
G01X78086D01*
Y-50911D01*
G02X78510Y-50510I402J0D01*
G03X80596Y-46480I141J2482D01*
G01X80552Y-46425D01*
Y-45694D01*
X80596Y-45639D01*
G03X78510Y-41609I-1945J1548D01*
G02X78085Y-41208I-23J401D01*
G01Y-38270D01*
X82092D01*
Y-57398D01*
X81943Y-57438D01*
G03X81019Y-57910I644J-2401D01*
G01X68409D01*
G03X65271I-1569J-1929D01*
G37*
G36*
G01X78086Y-28282D02*
Y-23232D01*
G02X78510Y-22831I402J0D01*
G03X80470Y-18654I141J2482D01*
G02Y-18107I294J273D01*
G03X78510Y-13930I-1819J1695D01*
G02X78086Y-13529I-22J401D01*
G01Y-9022D01*
X61434D01*
G02X61032Y-8607I0J402D01*
G03X60545Y-7039I-2484J88D01*
G02X60868Y-6398I323J239D01*
G01X69059D01*
G03X72495I1718J1797D01*
G01X80014D01*
Y-7670D01*
X81876D01*
Y-28282D01*
X78086D01*
G37*
G36*
G01X63750Y-66504D02*
Y-59412D01*
X72262D01*
X72295Y-59424D01*
G03X72308Y-59429I687J1766D01*
G02X72369Y-59773I-67J-189D01*
G03X72046Y-60461I572J-688D01*
G01Y-62053D01*
G03X72940Y-62948I895J0D01*
G01X74516D01*
G03X75410Y-62053I-1J895D01*
G01Y-60461D01*
G03X75087Y-59773I-895J0D01*
G02X75148Y-59429I128J155D01*
G03X75161Y-59424I-674J1771D01*
G01X75194Y-59412D01*
X84228D01*
Y-62824D01*
X84214Y-62860D01*
G03Y-64692I2311J-916D01*
G01X84228Y-64728D01*
Y-66504D01*
X63750D01*
G37*
G36*
G01X82188Y-3528D02*
Y-3516D01*
X85440D01*
Y-6168D01*
X81516D01*
Y-3528D01*
X82188D01*
G37*
G36*
G01X82272Y-61644D02*
Y-60086D01*
X83594D01*
Y-57169D01*
G02X84040Y-56769I402J1D01*
G03X84137Y-56774I94J890D01*
G01X85729D01*
G03X86624Y-55880I0J895D01*
G01Y-54304D01*
G03X85729Y-53410I-895J-1D01*
G01X84137D01*
G03X84040Y-53415I-3J-895D01*
G02X83594Y-53015I-44J399D01*
G01Y-41630D01*
G03X83631Y-41559I-1662J911D01*
G02X84229Y-41419I358J-183D01*
G03X84761Y-41594I532J720D01*
G01X86353D01*
G03X87248Y-40700I0J895D01*
G01Y-39124D01*
G03X87191Y-38812I-895J-2D01*
G02X87568Y-38270I377J140D01*
G01X91212D01*
Y-57532D01*
G02X90673Y-57910I-402J0D01*
G03X90368Y-57856I-306J-841D01*
G01X88792D01*
G03X87898Y-58751I1J-895D01*
G01Y-60343D01*
G03X88073Y-60875I895J0D01*
G02X87933Y-61473I-323J-240D01*
G03X87723Y-61597I857J-1691D01*
G03X85246Y-61644I-1198J-2179D01*
G01X82272D01*
G37*
G36*
G01X86507Y-27673D02*
G03X86636Y-27212I-766J463D01*
G01Y-25636D01*
G03X85741Y-24742I-895J-1D01*
G01X84149D01*
G03X83894Y-24779I0J-895D01*
G02X83378Y-24393I-114J385D01*
G01Y-12058D01*
G02X83853Y-11663I402J0D01*
G03X84017Y-11678I163J880D01*
G01X85609D01*
G03X86504Y-10784I0J895D01*
G01Y-9208D01*
G03X85609Y-8314I-895J-1D01*
G01X84017D01*
G03X83853Y-8329I-1J-895D01*
G02X83378Y-7934I-73J395D01*
G01Y-5578D01*
X83124D01*
Y-3456D01*
X87347D01*
G02X87721Y-4007I1J-402D01*
G03X87658Y-4337I832J-330D01*
G01Y-5929D01*
G03X88552Y-6824I895J0D01*
G01X90128D01*
G03X90656Y-6650I-2J895D01*
G02X91296Y-6975I238J-324D01*
G01Y-28282D01*
X86852D01*
G02X86507Y-27673I-1J402D01*
G37*
G36*
G01X164916Y20544D02*
Y30636D01*
X165916D01*
Y27400D01*
X170462D01*
Y30636D01*
X172380D01*
Y28788D01*
X181920D01*
Y20544D01*
X164916D01*
G37*
G36*
G01X161508Y39792D02*
Y47738D01*
X162214D01*
Y48072D01*
X166140D01*
Y48084D01*
X182244D01*
Y39792D01*
X161508D01*
G37*
G36*
G01X180673Y69012D02*
X180556Y69130D01*
X166656D01*
Y76320D01*
X181332D01*
Y69012D01*
X180673D01*
G37*
%LPC*%
G75*
G36*
G01X52542Y-64074D02*
Y-62106D01*
G02X53438Y-61210I896J0D01*
G01X56194D01*
G02X57090Y-62106I0J-896D01*
G01Y-64074D01*
G02X56194Y-64970I-896J0D01*
G01X53438D01*
G02X52542Y-64074I0J896D01*
G37*
G36*
G01X47350Y-25336D02*
Y-20794D01*
X62282D01*
Y-44018D01*
X53464D01*
X53455Y-44209D01*
G02X48489I-2483J118D01*
G01X48480Y-44018D01*
X47350D01*
Y-31110D01*
G03X46961Y-30708I-402J0D01*
G02Y-25738I74J2485D01*
G03X47350Y-25336I-13J402D01*
G37*
G36*
G01X180234Y26709D02*
Y24937D01*
G02X179338Y24042I-895J0D01*
G01X176386D01*
G02X175490Y24937I-1J895D01*
G01Y26709D01*
G02X176386Y27604I895J0D01*
G01X179338D01*
G02X180234Y26709I1J-895D01*
G37*
G36*
G01X181036Y46315D02*
Y44543D01*
G02X180141Y43648I-895J0D01*
G01X177189D01*
G02X176294Y44543I0J895D01*
G01Y46315D01*
G02X177189Y47210I895J0D01*
G01X180141D01*
G02X181036Y46315I0J-895D01*
G37*
%LPD*%
G75*
G36*
G01X48958Y-42516D02*
G03X48852Y-42394I-1929J-1569D01*
G01Y-41852D01*
X48902Y-41795D01*
G03Y-38513I-1867J1641D01*
G01X48852Y-38456D01*
Y-37915D01*
X48902Y-37858D01*
G03Y-34576I-1867J1641D01*
G01X48852Y-34519D01*
Y-33938D01*
X49115D01*
X49167Y-33973D01*
G03X49673Y-34130I506J738D01*
G01X51265D01*
G03X52160Y-33236I0J895D01*
G01Y-31660D01*
G03X51265Y-30766I-895J-1D01*
G01X49673D01*
G03X49384Y-30814I0J-895D01*
G02X48852Y-30433I-130J381D01*
G01Y-25983D01*
G03X48902Y-22645I-1817J1697D01*
G01X48852Y-22588D01*
Y-22296D01*
X49425D01*
X49478Y-22336D01*
G03X52466I1494J1987D01*
G01X52519Y-22296D01*
X52792D01*
G02X53085Y-22973I0J-402D01*
G03X52842Y-23586I653J-613D01*
G01Y-25554D01*
G03X53738Y-26450I896J0D01*
G01X56494D01*
G03X57390Y-25554I0J896D01*
G01Y-23586D01*
G03X56598Y-22697I-895J0D01*
G01X56421Y-22676D01*
Y-22296D01*
X57419D01*
X57472Y-22336D01*
G03X60181Y-22518I1494J1987D01*
G02X60780Y-22868I197J-350D01*
G01Y-22991D01*
X60753Y-23038D01*
G03X60780Y-25579I2150J-1248D01*
G01Y-26930D01*
G03X60753Y-29471I2123J-1293D01*
G01X60780Y-29518D01*
Y-30322D01*
G02X60241Y-30699I-402J1D01*
G03X59935Y-30646I-303J-842D01*
G01X58343D01*
G03X57448Y-31540I0J-895D01*
G01Y-33116D01*
G03X58343Y-34010I895J1D01*
G01X59935D01*
G03X60241Y-33957I3J895D01*
G02X60780Y-34334I137J-378D01*
G01Y-34922D01*
X60753Y-34969D01*
G03X60780Y-37510I2150J-1248D01*
G01Y-38861D01*
G03X60753Y-41402I2123J-1293D01*
G01X60780Y-41449D01*
Y-41572D01*
G02X60181Y-41922I-402J0D01*
G03X57100Y-42448I-1215J-2169D01*
G01X57040Y-42516D01*
X56533D01*
Y-42269D01*
X56553Y-42228D01*
G03X56642Y-41839I-806J389D01*
G01Y-40247D01*
G03X55748Y-39352I-895J0D01*
G01X54172D01*
G03X53278Y-40247I1J-895D01*
G01Y-41839D01*
G03X53298Y-42029I895J-2D01*
G02X52905Y-42516I-393J-85D01*
G01X48958D01*
G37*
G54D10*
X-222106Y111201D03*
X-217819Y-22984D03*
X24130Y-163098D03*
X29673Y-108236D03*
Y121291D03*
X46378Y-119134D03*
X51461Y111130D03*
X90551Y70866D03*
X153235Y-174036D03*
X152251Y-159612D03*
X152371Y-145188D03*
X210697Y56169D03*
G54D20*
X-2661Y-126360D03*
X1749D03*
X10743Y-126576D03*
X15153D03*
X23295Y-127008D03*
X26355Y-55284D03*
X26475Y-44484D03*
X26163Y-30408D03*
X26223Y-16728D03*
X27705Y-127008D03*
X30765Y-55284D03*
X30885Y-44484D03*
X30573Y-30408D03*
X30633Y-16728D03*
X46059Y-32448D03*
X50469D03*
X70527Y-27096D03*
X74937D03*
G54D11*
X-222106Y121201D03*
X-217819Y-12984D03*
Y-2984D03*
Y7016D03*
Y17016D03*
Y27016D03*
Y37016D03*
Y47016D03*
Y57016D03*
Y67016D03*
X-212106Y111201D03*
Y121201D03*
X-207819Y-22984D03*
Y-12984D03*
Y-2984D03*
Y7016D03*
Y17016D03*
Y27016D03*
Y37016D03*
Y47016D03*
Y57016D03*
Y67016D03*
X-202106Y111201D03*
Y121201D03*
X-192106Y111201D03*
Y121201D03*
X-182106Y111201D03*
Y121201D03*
X-179284Y-151524D03*
X-173890Y-162705D03*
X-172106Y111201D03*
Y121201D03*
X-168496Y-151524D03*
X-163103Y-162705D03*
X-160327Y-118236D03*
Y-108236D03*
Y111291D03*
Y121291D03*
X-157709Y-151524D03*
X-152315Y-162705D03*
X-150327Y-118236D03*
Y-108236D03*
Y111291D03*
Y121291D03*
X-146921Y-151524D03*
X-141528Y-162705D03*
X-140327Y-118236D03*
Y-108236D03*
Y111291D03*
Y121291D03*
X-136134Y-151524D03*
X-130327Y-118236D03*
Y-108236D03*
Y111291D03*
Y121291D03*
X-120327Y-118236D03*
Y-108236D03*
Y111291D03*
Y121291D03*
X-110327Y-118236D03*
Y-108236D03*
Y111291D03*
Y121291D03*
X-100327Y-118236D03*
Y-108236D03*
Y111291D03*
Y121291D03*
X-90327Y-118236D03*
Y-108236D03*
Y111291D03*
Y121291D03*
X-80327Y-118236D03*
Y-108236D03*
Y111291D03*
Y121291D03*
X-70327Y-118236D03*
Y-108236D03*
Y111291D03*
Y121291D03*
X-65870Y-163098D03*
Y-153098D03*
X-60327Y-118236D03*
Y-108236D03*
Y111291D03*
Y121291D03*
X-55870Y-163098D03*
Y-153098D03*
X-50327Y-118236D03*
Y-108236D03*
Y111291D03*
Y121291D03*
X-45870Y-163098D03*
Y-153098D03*
X-40327Y-118236D03*
Y-108236D03*
Y111291D03*
Y121291D03*
X-35870Y-163098D03*
Y-153098D03*
X-30327Y-118236D03*
Y-108236D03*
Y111291D03*
Y121291D03*
X-25870Y-163098D03*
Y-153098D03*
X-20327Y-118236D03*
Y-108236D03*
Y111291D03*
Y121291D03*
X-15870Y-163098D03*
Y-153098D03*
X-10327Y-118236D03*
Y-108236D03*
Y111291D03*
Y121291D03*
X-5870Y-163098D03*
Y-153098D03*
X-327Y-118236D03*
Y-108236D03*
Y111291D03*
Y121291D03*
X4130Y-163098D03*
Y-153098D03*
X9673Y-118236D03*
Y-108236D03*
Y111291D03*
Y121291D03*
X14130Y-163098D03*
Y-153098D03*
X19673Y-118236D03*
Y-108236D03*
Y111291D03*
Y121291D03*
X24130Y-153098D03*
X29673Y-118236D03*
Y111291D03*
X50551Y70866D03*
X51461Y121130D03*
X56378Y-119134D03*
X60551Y70866D03*
X61461Y111130D03*
Y121130D03*
X66378Y-119134D03*
X70551Y70866D03*
X71461Y111130D03*
Y121130D03*
X76378Y-119134D03*
X80551Y70866D03*
X81461Y111130D03*
Y121130D03*
X86378Y-119134D03*
X91461Y111130D03*
Y121130D03*
X96378Y-119134D03*
X101461Y111130D03*
Y121130D03*
X106378Y-119134D03*
X111461Y111130D03*
Y121130D03*
X116378Y-119134D03*
X121461Y111130D03*
Y121130D03*
X126378Y-119134D03*
X131461Y111130D03*
Y121130D03*
X136378Y-119134D03*
X141461Y111130D03*
Y121130D03*
X151461Y111130D03*
Y121130D03*
X161461Y111130D03*
Y121130D03*
X172920Y-174036D03*
X171936Y-159612D03*
X172056Y-145188D03*
X200697Y16169D03*
Y26169D03*
Y36169D03*
Y46169D03*
Y56169D03*
X210697Y16169D03*
Y26169D03*
Y36169D03*
Y46169D03*
G54D21*
X13915Y-34176D03*
X18245D03*
G54D30*
X66358Y132084D03*
X135636Y30060D03*
X223968Y7560D03*
G54D12*
X-221205Y89139D03*
X-214800Y-105912D03*
X-210441Y-119925D03*
X-205212Y-77556D03*
X-203652Y98460D03*
X-198156Y54072D03*
X-198036Y12852D03*
X-197904Y34104D03*
X-179018Y-66686D03*
X-177084Y-77556D03*
X-168240Y-116412D03*
X-168228Y-112908D03*
X-167076Y55452D03*
X-164680Y58708D03*
X-145920Y-37008D03*
X-145944Y91620D03*
X-140664Y-49296D03*
X-141786Y88074D03*
X-128831Y-21095D03*
X-128172Y74400D03*
X-126036Y-19260D03*
X-125340Y37224D03*
X-124896Y62628D03*
X-125580Y76992D03*
X-121144Y58708D03*
X-122208Y80364D03*
X-118560Y-50496D03*
X-117804Y-31930D03*
X-115620Y-1200D03*
X-118176Y55452D03*
X-109536Y-24599D03*
X-110772Y26784D03*
X-106812Y3036D03*
X-105108Y6420D03*
X-103308Y9636D03*
X-106126Y66072D03*
X-102420Y-14698D03*
X-99708Y-7524D03*
X-101328Y12360D03*
X-96907Y-14753D03*
X-88914Y11610D03*
X-80983Y-44707D03*
X-75108Y-139416D03*
X-77436Y-39612D03*
X-75114Y-27498D03*
X-77503Y1771D03*
Y12259D03*
Y23753D03*
X-72144Y-34644D03*
X-70197Y-131979D03*
X-65364Y-125340D03*
X-65262Y11610D03*
X-53052Y-137952D03*
X-52908Y-131784D03*
X-54589Y-15480D03*
X-53688Y36816D03*
X-54408Y56592D03*
X-52950Y76014D03*
X-48351Y-142093D03*
X-46322Y-7044D03*
X-41927Y-25357D03*
X-37026Y9690D03*
X-39156Y16920D03*
X-35724Y18492D03*
X-39033Y42072D03*
X-36252Y71112D03*
X-33548Y-33304D03*
X-29208Y-32016D03*
X-27540Y31044D03*
X-23964Y-27528D03*
X-26430Y-30114D03*
X-21282Y-25146D03*
X-21367Y-20863D03*
X-17286Y-19098D03*
X-19296Y79740D03*
X-13962Y-17610D03*
X-10872Y65508D03*
X-11052Y87984D03*
X-7368Y35796D03*
X-936Y34788D03*
X7765Y-126421D03*
X15780Y-41076D03*
X19956Y-36744D03*
X20461Y-127273D03*
X20571Y-74787D03*
X24804Y-79920D03*
X39852Y-600D03*
X40800Y-80472D03*
X41189Y-69091D03*
X45953Y-181807D03*
X46875Y-166551D03*
X45449Y13169D03*
X45663Y18736D03*
X58651Y-72079D03*
X61026Y-79962D03*
X69072Y-81672D03*
X68749Y-69781D03*
X68309Y12089D03*
X75120Y-170736D03*
X71894Y-160558D03*
X101028Y-19308D03*
X103582Y-137066D03*
X106812Y67236D03*
X114277Y-166343D03*
X118608Y-75168D03*
X118944Y-69324D03*
X119280Y-62880D03*
X117610Y-7138D03*
X119532Y-91320D03*
X120906Y-9618D03*
X120479Y26725D03*
X127056Y-75252D03*
X126396Y-69408D03*
X126060Y-62712D03*
X124632Y81552D03*
X128400Y-91320D03*
X137400Y19392D03*
X137784Y79188D03*
X137880Y82620D03*
X145296Y103248D03*
X149868Y-19500D03*
X153336Y-19188D03*
X159636Y-86484D03*
X159972Y-66648D03*
X166548Y23844D03*
X163692Y42516D03*
X163212Y76740D03*
X168384Y-86568D03*
X167292Y-66480D03*
X168590Y60178D03*
X168780Y74988D03*
X172356Y23760D03*
X173135Y36563D03*
X172692Y42432D03*
X172831Y54161D03*
X172060Y86972D03*
X179340Y70908D03*
X209784Y-121932D03*
X209748Y-114480D03*
X220212Y-121584D03*
X219288Y-114360D03*
X218677Y-78047D03*
X231047D03*
G54D40*
G01X-198036Y8645D02*
Y12852D01*
G01X-197904Y29369D02*
Y34104D01*
G01X-145944Y91620D02*
X-187248Y50316D01*
Y-113736D01*
X-170148Y-130836D01*
X-97140D01*
X-74878Y-153098D01*
X-65870D01*
G01X-141786Y88074D02*
X-182952Y46908D01*
Y-109128D01*
X-166044Y-126036D01*
X-94824D01*
X-76020Y-144840D01*
X-62316D01*
X-60816Y-146340D01*
Y-158044D01*
X-65870Y-163098D01*
G01X-25300Y-140115D02*
Y-147930D01*
X-25870Y-148500D01*
Y-153098D01*
G01X-15870Y-133440D02*
Y-153098D01*
G01X-5087Y-133368D02*
X-15798D01*
X-15870Y-133440D01*
G01D02*
Y-128658D01*
X-13572Y-126360D01*
X-2661D01*
G01X7765Y-133284D02*
Y-126421D01*
G01D02*
X10588D01*
X10743Y-126576D01*
G01X20461Y-133716D02*
Y-127273D01*
G01D02*
X23030D01*
X23295Y-127008D01*
G01X61026Y-79962D02*
Y-77231D01*
X61848Y-76409D01*
G01X66358Y132084D02*
Y102826D01*
X66072Y102540D01*
G01X135636Y30060D02*
Y28848D01*
X132048Y25260D01*
Y8844D01*
X136560Y4332D01*
X140508D01*
X143736Y7560D01*
X223968D01*
G54D13*
X-206921Y-157115D03*
X-108496D03*
G54D31*
X94831Y-25524D03*
X99161D03*
G54D22*
X23413Y-63776D03*
X22212Y-53568D03*
X22464Y-46020D03*
X22344Y-41076D03*
X23413Y-664D03*
X26916Y-65352D03*
X27350Y-59839D03*
Y-4601D03*
X27156Y2016D03*
X31287Y-59839D03*
Y-51965D03*
Y-40154D03*
Y-24286D03*
Y-12475D03*
X35224Y-51965D03*
Y-44091D03*
Y-40154D03*
Y-24286D03*
Y-12475D03*
X39161Y-55902D03*
Y-51965D03*
Y-44091D03*
Y-36217D03*
Y-16412D03*
Y-12475D03*
Y-8538D03*
X43098Y-48028D03*
Y-44091D03*
Y-40154D03*
Y-36217D03*
Y-20349D03*
Y-16412D03*
Y-12475D03*
X47035Y-55902D03*
Y-51965D03*
Y-44091D03*
Y-40154D03*
Y-36217D03*
Y-28223D03*
Y-24286D03*
Y-16412D03*
Y-12475D03*
Y-8538D03*
X50972Y-63776D03*
Y-59839D03*
Y-48028D03*
Y-44091D03*
Y-40154D03*
Y-36217D03*
Y-28223D03*
Y-24286D03*
Y-20349D03*
Y-16412D03*
X51000Y-12503D03*
X52452Y5520D03*
X58966Y-63776D03*
Y-55902D03*
Y-51965D03*
Y-48028D03*
Y-44091D03*
Y-40154D03*
Y-36217D03*
Y-28223D03*
Y-24286D03*
Y-20349D03*
Y-16412D03*
X58884Y-12557D03*
X58548Y-8520D03*
X58656Y5100D03*
X62903Y-55902D03*
Y-51965D03*
Y-48028D03*
Y-40154D03*
Y-36217D03*
Y-28223D03*
Y-24286D03*
Y-20349D03*
Y-12475D03*
X63267Y-8558D03*
X66840Y-59839D03*
Y-48028D03*
Y-44091D03*
Y-40154D03*
Y-24286D03*
Y-20349D03*
Y-16412D03*
X66804Y-12511D03*
X65460Y30012D03*
Y40596D03*
X70777Y-55902D03*
Y-51965D03*
Y-48028D03*
Y-44091D03*
Y-40154D03*
Y-16412D03*
Y-12475D03*
Y-8538D03*
Y-4601D03*
X70992Y16044D03*
X74714Y-51965D03*
Y-24286D03*
Y-12475D03*
X71616Y55560D03*
X73572Y63732D03*
X78651Y-51965D03*
Y-48028D03*
Y-44091D03*
Y-40154D03*
Y-24286D03*
Y-20349D03*
Y-16412D03*
Y-12475D03*
X75624Y33288D03*
X80760Y-65112D03*
X82588Y-59839D03*
Y-4601D03*
X81396Y1356D03*
X86525Y-63776D03*
Y-664D03*
X86424Y20496D03*
X83736Y40668D03*
X88896Y-55824D03*
X89328Y-46440D03*
X87828Y40884D03*
X94524Y-28452D03*
X94116Y78948D03*
X107040Y16248D03*
X107304Y19536D03*
X107172Y27360D03*
X110868Y51444D03*
X111660Y16332D03*
X111888Y27444D03*
X111228Y34800D03*
X113472Y43920D03*
X113184Y48192D03*
X113196Y57168D03*
X131292Y87791D03*
X137100Y8028D03*
X140184Y-98160D03*
X139752Y-90852D03*
X139812Y-75804D03*
X139692Y-71112D03*
X146352Y-90684D03*
X145800Y-75804D03*
X145692Y-70896D03*
X146124Y-64680D03*
X144852Y71832D03*
X147924Y-103392D03*
X148200Y-97884D03*
X151848Y-90684D03*
X151908Y-76128D03*
Y-71112D03*
X151476Y-65016D03*
X151512Y-31188D03*
X152640Y71892D03*
X155772Y-113580D03*
X157140Y-103440D03*
X157356Y-98040D03*
X161256Y-30684D03*
X162528Y89616D03*
X163620Y-113580D03*
X163500Y-23988D03*
X163596Y-18492D03*
X172212Y-98016D03*
X172848Y-30936D03*
X174048Y-24084D03*
X173748Y-18144D03*
X171540Y-7896D03*
X176208Y-90912D03*
X176508Y-85524D03*
X177108Y-69120D03*
X177300Y-64116D03*
X177504Y-58320D03*
X175788Y-7932D03*
X180456Y-122532D03*
X180708Y-97920D03*
X181440Y-30456D03*
X181860Y-23472D03*
X180144Y-7836D03*
X182904Y-90720D03*
Y-85524D03*
X184404Y-69216D03*
X184104Y-63924D03*
X184008Y-58128D03*
X187860Y-121944D03*
X189108Y-98016D03*
X189768Y-30036D03*
X189516Y-23472D03*
X194088Y-121944D03*
X190548Y-116892D03*
X190800Y-91116D03*
X190596Y-85524D03*
X191496Y-69324D03*
X195600Y-116724D03*
X197904Y-97920D03*
X198204Y-91620D03*
X198096Y-50820D03*
X197676Y-29952D03*
X197244Y-23472D03*
X197280Y-15636D03*
X201312Y-122028D03*
Y-116472D03*
X198432Y-46452D03*
X202236Y-15804D03*
X203892Y-50568D03*
X203724Y-46200D03*
X205824Y-30456D03*
X205740Y-23472D03*
X209700Y-50484D03*
X209280Y-46200D03*
X206952Y-15552D03*
G54D41*
G01X-198036Y2251D02*
X-213054D01*
X-217819Y7016D01*
G01X-197904Y22975D02*
X-200674D01*
X-201180Y22469D01*
X-212366D01*
X-217819Y17016D01*
G01X-198036Y12852D02*
X-191964Y18924D01*
Y47880D01*
X-198156Y54072D01*
G01X-102420Y-14698D02*
X-99912Y-17206D01*
Y-20856D01*
X-111612Y-32556D01*
Y-48876D01*
X-129422Y-66686D01*
X-179018D01*
G01X-168240Y-116412D02*
X-166158D01*
X-163158Y-113412D01*
X-159072D01*
X-155780Y-110120D01*
Y-106064D01*
X-151260Y-101544D01*
X-130464D01*
X-77436Y-48516D01*
Y-39612D01*
G01X-80983Y-44707D02*
X-84048Y-47772D01*
X-106294D01*
X-168228Y-109706D01*
Y-112908D01*
G01X-118176Y55452D02*
X-167076D01*
G01X-121144Y58708D02*
X-164680D01*
G01X-128172Y74400D02*
X-125580Y76992D01*
G01X-115620Y-1200D02*
Y106584D01*
X-120327Y111291D01*
G01X-106812Y3036D02*
X-101508D01*
X-54948Y-43524D01*
Y-120046D01*
X-41965Y-133029D01*
X-34748D01*
G01X-105108Y6420D02*
X-101520D01*
X-45288Y-49812D01*
Y-120888D01*
X-39564Y-126612D01*
X-35344D01*
X-31599Y-130357D01*
Y-133029D01*
G01X-103308Y9636D02*
X-101226D01*
X-35196Y-56394D01*
Y-123610D01*
X-28449Y-130357D01*
Y-133029D01*
G01X-25300D02*
Y-92744D01*
X-31152Y-86892D01*
Y-57816D01*
X-101328Y12360D01*
G01X-75114Y-27498D02*
Y-30252D01*
X-75108Y-30258D01*
Y-38572D01*
X-75055Y-38625D01*
Y-40599D01*
X-75108Y-40652D01*
Y-139416D01*
G01X-72144Y-34644D02*
X-65430Y-41358D01*
Y-123192D01*
X-65364Y-123258D01*
Y-125340D01*
G01X-46322Y-7044D02*
X-33830Y5448D01*
X13200D01*
X25126Y17374D01*
Y116744D01*
X29673Y121291D01*
G01X-43620Y-28896D02*
X-43506D01*
G01X-30327Y121291D02*
X-35028Y116590D01*
Y81816D01*
X-7368Y54156D01*
Y35796D01*
G01X-29208Y-32016D02*
Y-85332D01*
X-15420Y-99120D01*
Y-113143D01*
X-10327Y-118236D01*
G01X-30327Y111291D02*
Y107043D01*
X-30348Y107022D01*
Y98424D01*
X-4872Y72948D01*
Y32724D01*
X-6552Y31044D01*
X-27540D01*
G01X-10327Y-108236D02*
Y-99209D01*
X-26430Y-83106D01*
Y-30114D01*
G01X-20327Y121291D02*
X-25284Y116334D01*
Y109236D01*
X-936Y84888D01*
Y34788D01*
G01X-327Y-118236D02*
X-5304Y-113259D01*
Y-98364D01*
X-23964Y-79704D01*
Y-27528D01*
G01X-327Y-108236D02*
Y-98736D01*
X-21282Y-77781D01*
Y-25146D01*
G01X1749Y-126360D02*
X1757D01*
X4386Y-123731D01*
Y-90972D01*
X20571Y-74787D01*
G01X13915Y-34176D02*
Y-39211D01*
X15780Y-41076D01*
G01X15153Y-126576D02*
Y-124495D01*
X15126Y-124468D01*
Y-84702D01*
X31287Y-68541D01*
Y-59839D01*
G01X19956Y-36744D02*
Y-35887D01*
X18245Y-34176D01*
G01X21780Y-60945D02*
X22572D01*
X23413Y-61786D01*
Y-63776D01*
G01X21240Y-7533D02*
X23124D01*
G01X24804Y-79920D02*
Y-124115D01*
X27697Y-127008D01*
X27705D01*
G01X26355Y-57168D02*
Y-55284D01*
G01X24463D02*
X26355D01*
G01D02*
Y-53400D01*
G01X26475Y-46368D02*
Y-44484D01*
G01X24583D02*
X26475D01*
G01D02*
Y-42600D01*
G01X24271Y-30408D02*
X26163D01*
G01Y-32292D02*
Y-30408D01*
G01D02*
Y-28524D01*
G01X26223Y-18612D02*
Y-16728D01*
G01X24331D02*
X26223D01*
G01D02*
Y-14844D01*
G01X23124Y-9425D02*
Y-7533D01*
G01D02*
X25008D01*
G01X23124Y-3123D02*
Y-953D01*
X23413Y-664D01*
G01X34488Y-3291D02*
Y-1399D01*
G01X32604Y-3291D02*
X34488D01*
G01D02*
X36372D01*
G01X40800Y-77069D02*
Y-80472D01*
G01X41189Y-69091D02*
Y-72350D01*
X40800Y-72739D01*
G01X41160Y-61305D02*
X43044D01*
G01X39852Y-600D02*
X41748Y1296D01*
Y8839D01*
G01Y13169D02*
X45449D01*
G01X43044Y-63197D02*
Y-61305D01*
G01D02*
X44928D01*
G01X47035Y-24286D02*
X46877Y-24444D01*
X44181D01*
G01X45663Y18736D02*
X52056Y12343D01*
Y12245D01*
G01X49884Y-3243D02*
Y-1351D01*
G01X48000Y-3243D02*
X49884D01*
G01D02*
X51768D01*
G01X52341Y-63090D02*
X54816D01*
G01X53076Y-41043D02*
X54960D01*
G01X50469Y-34332D02*
Y-32448D01*
G01D02*
X52361D01*
G01X50469D02*
Y-30564D01*
G01X52641Y-24570D02*
X55116D01*
G01X53340Y-3123D02*
X55224D01*
G01X52452Y5520D02*
Y7519D01*
X52056Y7915D01*
G01X54816Y-65171D02*
Y-63090D01*
G01D02*
Y-61009D01*
G01Y-63090D02*
X57291D01*
G01X54960Y-41043D02*
Y-39151D01*
G01Y-41043D02*
X56844D01*
G01X57247Y-32328D02*
X59139D01*
G01X55116Y-26651D02*
Y-24570D01*
G01D02*
X57591D01*
G01X55224Y-3123D02*
Y-1231D01*
G01Y-3123D02*
X57108D01*
G01X58966Y-55902D02*
X61848Y-58784D01*
Y-72079D01*
G01D02*
X58651D01*
G01X59139Y-34212D02*
Y-32328D01*
G01D02*
Y-30444D01*
G01X58656Y5100D02*
X59340Y5784D01*
Y7759D01*
G01Y12089D02*
X68309D01*
G01X65460Y30012D02*
Y40596D01*
G01X69072Y-78053D02*
Y-81672D01*
G01X68749Y-69781D02*
Y-73400D01*
X69072Y-73723D01*
G01X73728Y-63149D02*
Y-61257D01*
G01X71844D02*
X73728D01*
G01D02*
X75612D01*
G01X73176Y-3387D02*
X75060D01*
G01X158941Y50421D02*
X151875D01*
X147768Y54528D01*
X98136D01*
X95760Y56904D01*
X72960D01*
X71616Y55560D01*
G01X73572Y63732D02*
X155055D01*
X158551Y67228D01*
X159142D01*
G01X74714Y-24286D02*
Y-26873D01*
X74937Y-27096D01*
G01X75060Y-3387D02*
Y-1495D01*
G01Y-3387D02*
X76944D01*
G01X78651Y-44091D02*
Y-48028D01*
G01X84933Y-56976D02*
Y-55092D01*
G01D02*
X86825D01*
G01X84933D02*
Y-53208D01*
G01X85557Y-41796D02*
Y-39912D01*
G01D02*
X87449D01*
G01X84945Y-26424D02*
X86837D01*
G01X84945D02*
Y-24540D01*
G01X84813Y-9996D02*
X86705D01*
G01X84813Y-11880D02*
Y-9996D01*
G01D02*
Y-8112D01*
G01X82588Y-4601D02*
X82841D01*
G01D02*
X83453D01*
G01X86525Y-63776D02*
X89399D01*
X89580Y-63957D01*
G01Y-59547D02*
Y-57655D01*
G01X87696Y-59547D02*
X89580D01*
G01X89340Y-7025D02*
Y-5133D01*
G01X87456D02*
X89340D01*
G01X86525Y-664D02*
X89281D01*
X89340Y-723D01*
G01X94116Y78948D02*
X96257Y76807D01*
X138771D01*
X140912Y78948D01*
X154457D01*
X156332Y80823D01*
Y81414D01*
X158150Y83232D01*
X158741D01*
G01X94524Y-28452D02*
Y-25831D01*
X94831Y-25524D01*
G01X99161D02*
Y-21175D01*
X101028Y-19308D01*
G01X137100Y8028D02*
X158741Y29669D01*
Y32823D01*
G01D02*
X174486D01*
X175092Y32217D01*
X177862D01*
G01X158941Y50421D02*
X174493D01*
X175895Y51823D01*
X178665D01*
G01X210697Y46169D02*
X205638Y51228D01*
X195768D01*
X179768Y67228D01*
X159142D01*
G01X177862Y82465D02*
X162180D01*
X161413Y83232D01*
X158741D01*
G01X168189Y27199D02*
Y29083D01*
G01X165714D02*
X168189D01*
G01D02*
X170664D01*
G01X175289Y25823D02*
X177862D01*
G01X176092Y45429D02*
X178665D01*
G01X177862Y23840D02*
Y25823D01*
G01D02*
Y27806D01*
G01Y25823D02*
X180435D01*
G01X210697Y16169D02*
X205338Y21528D01*
X194256D01*
X183567Y32217D01*
X177862D01*
G01X178665Y43446D02*
Y45429D01*
G01D02*
Y47412D01*
G01Y45429D02*
X181238D01*
G01X210697Y36169D02*
X205244Y41622D01*
X193374D01*
X183173Y51823D01*
X178665D01*
G01X177862Y82465D02*
X184401D01*
X210697Y56169D01*
G54D32*
X158741Y32823D03*
X158941Y50421D03*
X159142Y67228D03*
X158741Y83232D03*
X168189Y29083D03*
Y36563D03*
X168389Y46681D03*
Y54161D03*
X168590Y63488D03*
Y70968D03*
X168189Y79492D03*
Y86972D03*
G54D23*
X21780Y-60945D03*
Y-56535D03*
X34488Y-7701D03*
Y-3291D03*
X49884Y-7653D03*
Y-3243D03*
X55224Y-7533D03*
Y-3123D03*
X75060Y-7797D03*
Y-3387D03*
X89580Y-63957D03*
Y-59547D03*
G54D14*
X-205726Y-48970D03*
X-170340Y-96816D03*
X-157545Y43767D03*
X-137616Y35484D03*
X-131568Y49992D03*
X-91068Y46054D03*
X-66404Y37076D03*
X-51936Y28992D03*
X83837Y-177319D03*
X90847Y50563D03*
X120180Y-151864D03*
X136092Y41783D03*
X159336Y23352D03*
X168472Y-131900D03*
X229956Y-84540D03*
G54D24*
X23124Y-7533D03*
Y-3123D03*
X43044Y-61305D03*
Y-56895D03*
X54960Y-45453D03*
Y-41043D03*
X73728Y-61257D03*
Y-56847D03*
X89340Y-5133D03*
Y-723D03*
G54D33*
X177862Y25823D03*
Y32217D03*
X178665Y45429D03*
Y51823D03*
G54D15*
X-198036Y2251D03*
Y8645D03*
X-197904Y22975D03*
Y29369D03*
G54D16*
X-152588Y37728D03*
X-145108D03*
X-66404Y28992D03*
X-58924D03*
G54D34*
X177862Y74787D03*
Y82465D03*
G54D25*
X40800Y-77069D03*
Y-72739D03*
X52056Y7915D03*
Y12245D03*
X59340Y7759D03*
Y12089D03*
X66840Y-12017D03*
Y-7687D03*
X69072Y-78053D03*
Y-73723D03*
G54D26*
X41748Y8839D03*
Y13169D03*
X61848Y-76409D03*
Y-72079D03*
G54D17*
X-34748Y-140115D03*
Y-133029D03*
X-31599Y-140115D03*
X-28449D03*
Y-133029D03*
X-31599D03*
X-25300Y-140115D03*
Y-133029D03*
G54D35*
X204588Y79889D03*
Y98786D03*
Y117684D03*
G54D36*
G01X-35870Y-163098D02*
X-40920Y-158048D01*
Y-146878D01*
X-34748Y-140706D01*
Y-140115D01*
G01X-35870Y-153098D02*
Y-147398D01*
X-31599Y-143127D01*
Y-140115D01*
G01X-25870Y-163098D02*
X-30816Y-158152D01*
Y-145644D01*
X-28449Y-143277D01*
Y-140115D01*
G01X-5870Y-163098D02*
X-11091Y-157877D01*
Y-148164D01*
X-5543Y-142616D01*
Y-141336D01*
G01X7513Y-141480D02*
Y-142760D01*
X-517Y-150790D01*
Y-158451D01*
X4130Y-163098D01*
G01Y-153098D02*
X8777Y-148451D01*
X14782D01*
X20317Y-142916D01*
Y-141636D01*
G01X44181Y-24444D02*
Y-21432D01*
X43098Y-20349D01*
G01X152251Y-159612D02*
X158671Y-153192D01*
X198300D01*
X224412Y-127080D01*
Y-61368D01*
X230682Y-55098D01*
Y21558D01*
X221064Y31176D01*
X205690D01*
X200697Y36169D01*
G54D18*
X-5543Y-141336D03*
X2135D03*
X7513Y-141480D03*
X15191D03*
X20317Y-141636D03*
X27995D03*
G54D27*
X54816Y-63090D03*
Y-56790D03*
G54D37*
G01X-157545Y43767D02*
X-152588Y38810D01*
Y37728D01*
G01X-145108D02*
X-139860D01*
X-137616Y35484D01*
G01X-66404Y28992D02*
Y37076D01*
G01X-58924Y28992D02*
X-51936D01*
G01X163212Y76740D02*
X165964Y79492D01*
X168189D01*
G01Y36563D02*
X173135D01*
G01X168389Y54161D02*
X172831D01*
G01X168590Y63488D02*
Y60178D01*
G01X168189Y86972D02*
X172060D01*
G54D19*
X-5087Y-133368D03*
X2591D03*
X7765Y-133284D03*
X15443D03*
X20461Y-133716D03*
X28139D03*
G54D28*
X55116Y-24570D03*
Y-18270D03*
G54D38*
G01X66072Y102540D02*
X60551Y97019D01*
Y70866D01*
G54D29*
X59139Y-32328D03*
X63549D03*
X80523Y-55092D03*
X81147Y-39912D03*
X80535Y-26424D03*
X80403Y-9996D03*
X84933Y-55092D03*
X85557Y-39912D03*
X84945Y-26424D03*
X84813Y-9996D03*
G54D39*
G01X2591Y-133368D02*
Y-140880D01*
X2135Y-141336D01*
G01X1749Y-126360D02*
Y-128670D01*
X2591Y-129512D01*
Y-133368D01*
G01X15153Y-126576D02*
Y-129138D01*
X15443Y-129428D01*
Y-133284D01*
G01D02*
Y-137372D01*
X15191Y-137624D01*
Y-141480D01*
G01X28139Y-133716D02*
Y-137636D01*
X27995Y-137780D01*
Y-141636D01*
G01X27705Y-127008D02*
Y-129426D01*
X28139Y-129860D01*
Y-133716D01*
M02*
