G04 ================== begin FILE IDENTIFICATION RECORD ==================*
G04 Layout Name:  E:/Cadence/SPB_Data/control_board/control_board.brd*
G04 Film Name:    DRILL*
G04 File Format:  Gerber RS274X*
G04 File Origin:  Cadence Allegro 16.6-2015-S098*
G04 Origin Date:  Fri Dec 27 14:31:35 2019*
G04 *
G04 Layer:  MANUFACTURING/NCLEGEND-1-4*
G04 Layer:  BOARD GEOMETRY/OUTLINE*
G04 *
G04 Offset:    (0.00 0.00)*
G04 Mirror:    No*
G04 Mode:      Positive*
G04 Rotation:  0*
G04 FullContactRelief:  No*
G04 UndefLineWidth:     6.00*
G04 ================== end FILE IDENTIFICATION RECORD ====================*
%FSLAX35Y35*MOIN*%
%IR0*IPPOS*OFA0.00000B0.00000*MIA0B0*SFA1.00000B1.00000*%
%AMMACRO12*
1,1,.006,.06004,0.0*
20,1,.006,.06004,0.0,0.0,-.06004,0.0*
1,1,.006,0.0,-.06004*
20,1,.006,0.0,-.06004,-.06004,0.0,0.0*
1,1,.006,-.06004,0.0*
20,1,.006,-.06004,0.0,0.0,.06004,0.0*
1,1,.006,0.0,.06004*
20,1,.006,0.0,.06004,.06004,0.0,0.0*
1,1,.006,.06004,0.0*
%
%ADD12MACRO12*%
%AMMACRO11*
1,1,.006,.00689,.00689*
20,1,.006,.00689,.00689,.00689,-.00689,0.0*
1,1,.006,.00689,-.00689*
20,1,.006,.00689,-.00689,-.00689,-.00689,0.0*
1,1,.006,-.00689,-.00689*
20,1,.006,-.00689,-.00689,-.00689,.00689,0.0*
1,1,.006,-.00689,.00689*
20,1,.006,-.00689,.00689,.00689,.00689,0.0*
1,1,.006,.00689,.00689*
%
%ADD11MACRO11*%
%AMMACRO15*
1,1,.006,.00492,0.0*
20,1,.006,.00492,0.0,-.00492,0.0,0.0*
1,1,.006,-.00492,0.0*
1,1,.006,0.0,.00492*
20,1,.006,0.0,.00492,0.0,-.00492,0.0*
1,1,.006,0.0,-.00492*
%
%ADD15MACRO15*%
%AMMACRO13*
1,1,.006,.013046,-.031495*
20,1,.006,.013046,-.031495,-.013046,-.031495,0.0*
1,1,.006,-.013046,-.031495*
20,1,.006,-.013046,-.031495,-.031495,-.013046,0.0*
1,1,.006,-.031495,-.013046*
20,1,.006,-.031495,-.013046,-.031495,.013046,0.0*
1,1,.006,-.031495,.013046*
20,1,.006,-.031495,.013046,-.013046,.031495,0.0*
1,1,.006,-.013046,.031495*
20,1,.006,-.013046,.031495,.013046,.031495,0.0*
1,1,.006,.013046,.031495*
20,1,.006,.013046,.031495,.031495,.013046,0.0*
1,1,.006,.031495,.013046*
20,1,.006,.031495,.013046,.031495,-.013046,0.0*
1,1,.006,.031495,-.013046*
20,1,.006,.031495,-.013046,.013046,-.031495,0.0*
1,1,.006,.013046,-.031495*
%
%ADD13MACRO13*%
%AMMACRO10*
1,1,.006,0.0,.017715*
20,1,.006,0.0,.017715,-.015342,.008858,0.0*
1,1,.006,-.015342,.008858*
20,1,.006,-.015342,.008858,-.015342,-.008857,0.0*
1,1,.006,-.015342,-.008857*
20,1,.006,-.015342,-.008857,0.0,-.017715,0.0*
1,1,.006,0.0,-.017715*
20,1,.006,0.0,-.017715,.015342,-.008858,0.0*
1,1,.006,.015342,-.008858*
20,1,.006,.015342,-.008858,.015342,.008857,0.0*
1,1,.006,.015342,.008857*
20,1,.006,.015342,.008857,0.0,.017715,0.0*
1,1,.006,0.0,.017715*
%
%ADD10MACRO10*%
%AMMACRO14*
1,1,.006,.009845,0.0*
20,1,.006,.009845,0.0,.004923,.008526,0.0*
1,1,.006,.004923,.008526*
20,1,.006,.004923,.008526,-.004922,.008526,0.0*
1,1,.006,-.004922,.008526*
20,1,.006,-.004922,.008526,-.009845,0.0,0.0*
1,1,.006,-.009845,0.0*
20,1,.006,-.009845,0.0,-.004923,-.008526,0.0*
1,1,.006,-.004923,-.008526*
20,1,.006,-.004923,-.008526,.004922,-.008526,0.0*
1,1,.006,.004922,-.008526*
20,1,.006,.004922,-.008526,.009845,0.0,0.0*
1,1,.006,.009845,0.0*
%
%ADD14MACRO14*%
%ADD16C,.015*%
%ADD17C,.006*%
G75*
%LPD*%
G75*
G54D10*
X-222106Y111201D03*
Y121201D03*
X-217819Y-22984D03*
Y-12984D03*
Y-2984D03*
Y7016D03*
Y17016D03*
Y27016D03*
Y37016D03*
Y47016D03*
Y57016D03*
Y67016D03*
X-212106Y111201D03*
Y121201D03*
X-207819Y-22984D03*
Y-12984D03*
Y-2984D03*
Y7016D03*
Y17016D03*
Y27016D03*
Y37016D03*
Y47016D03*
Y57016D03*
Y67016D03*
X-205726Y-48970D03*
X-202106Y111201D03*
Y121201D03*
X-192106Y111201D03*
Y121201D03*
X-190885Y204220D03*
X-182106Y111201D03*
Y121201D03*
X-179284Y-151524D03*
X-173890Y-162705D03*
X-172106Y111201D03*
Y121201D03*
X-168496Y-151524D03*
X-170340Y-96816D03*
X-163103Y-162705D03*
X-160327Y-118236D03*
Y-108236D03*
Y111291D03*
Y121291D03*
X-157709Y-151524D03*
X-157545Y43767D03*
X-152315Y-162705D03*
X-150327Y-118236D03*
Y-108236D03*
Y111291D03*
Y121291D03*
X-146921Y-151524D03*
X-141528Y-162705D03*
X-140327Y-118236D03*
Y-108236D03*
Y111291D03*
Y121291D03*
X-136134Y-151524D03*
X-137616Y35484D03*
X-130327Y-118236D03*
Y-108236D03*
X-131568Y49992D03*
X-130327Y111291D03*
Y121291D03*
X-120327Y-118236D03*
Y-108236D03*
Y111291D03*
Y121291D03*
X-110327Y-118236D03*
Y-108236D03*
Y111291D03*
Y121291D03*
X-100327Y-118236D03*
Y-108236D03*
Y111291D03*
Y121291D03*
X-90327Y-118236D03*
Y-108236D03*
X-91068Y46054D03*
X-90327Y111291D03*
Y121291D03*
X-80327Y-118236D03*
Y-108236D03*
Y111291D03*
Y121291D03*
X-70327Y-118236D03*
Y-108236D03*
Y111291D03*
Y121291D03*
X-65870Y-163098D03*
Y-153098D03*
X-66404Y37076D03*
X-60327Y-118236D03*
Y-108236D03*
Y111291D03*
Y121291D03*
X-55870Y-163098D03*
Y-153098D03*
X-50327Y-118236D03*
Y-108236D03*
X-51936Y28992D03*
X-50327Y111291D03*
Y121291D03*
X-45870Y-163098D03*
Y-153098D03*
X-40327Y-118236D03*
Y-108236D03*
Y111291D03*
Y121291D03*
X-35870Y-163098D03*
Y-153098D03*
X-30327Y-118236D03*
Y-108236D03*
Y111291D03*
Y121291D03*
X-25870Y-163098D03*
Y-153098D03*
X-20327Y-118236D03*
Y-108236D03*
Y111291D03*
Y121291D03*
X-15870Y-163098D03*
Y-153098D03*
X-10327Y-118236D03*
Y-108236D03*
Y111291D03*
Y121291D03*
X-5870Y-163098D03*
Y-153098D03*
X-327Y-118236D03*
Y-108236D03*
Y111291D03*
Y121291D03*
X4130Y-163098D03*
Y-153098D03*
X9673Y-118236D03*
Y-108236D03*
Y111291D03*
Y121291D03*
X14130Y-163098D03*
Y-153098D03*
X19673Y-118236D03*
Y-108236D03*
Y111291D03*
Y121291D03*
X24130Y-163098D03*
Y-153098D03*
X29673Y-118236D03*
Y-108236D03*
Y111291D03*
Y121291D03*
X46378Y-119134D03*
X50551Y70866D03*
X51461Y111130D03*
Y121130D03*
X56378Y-119134D03*
X60551Y70866D03*
X61461Y111130D03*
Y121130D03*
X66378Y-119134D03*
X70551Y70866D03*
X71461Y111130D03*
Y121130D03*
X76378Y-119134D03*
X80551Y70866D03*
X81461Y111130D03*
Y121130D03*
X83837Y-177319D03*
X86378Y-119134D03*
X90847Y50563D03*
X90551Y70866D03*
X91461Y111130D03*
Y121130D03*
X96378Y-119134D03*
X101461Y111130D03*
Y121130D03*
X106378Y-119134D03*
X111461Y111130D03*
Y121130D03*
X116378Y-119134D03*
X120180Y-151864D03*
X121461Y111130D03*
Y121130D03*
X126378Y-119134D03*
X131461Y111130D03*
Y121130D03*
X136378Y-119134D03*
X136092Y41783D03*
X141461Y111130D03*
Y121130D03*
X153235Y-174036D03*
X152251Y-159612D03*
X152371Y-145188D03*
X151461Y111130D03*
Y121130D03*
X159336Y23352D03*
X161461Y111130D03*
Y121130D03*
X168472Y-131900D03*
X172920Y-174036D03*
X171936Y-159612D03*
X172056Y-145188D03*
X200697Y16169D03*
Y26169D03*
Y36169D03*
Y46169D03*
Y56169D03*
X210697Y16169D03*
Y26169D03*
Y36169D03*
Y46169D03*
Y56169D03*
X229956Y-84540D03*
G54D11*
X-221205Y89139D03*
X-214800Y-105912D03*
X-210441Y-119925D03*
X-205212Y-77556D03*
X-203652Y98460D03*
X-198156Y54072D03*
X-198036Y12852D03*
X-197904Y34104D03*
X-190885Y254220D03*
X-179018Y-66686D03*
X-177084Y-77556D03*
X-168240Y-116412D03*
X-168228Y-112908D03*
X-167076Y55452D03*
X-164680Y58708D03*
X-145920Y-37008D03*
X-145944Y91620D03*
X-140664Y-49296D03*
X-141786Y88074D03*
X-128831Y-21095D03*
X-128172Y74400D03*
X-126036Y-19260D03*
X-125340Y37224D03*
X-124896Y62628D03*
X-125580Y76992D03*
X-121144Y58708D03*
X-122208Y80364D03*
X-118560Y-50496D03*
X-117804Y-31930D03*
X-115620Y-1200D03*
X-118176Y55452D03*
X-109536Y-24599D03*
X-110772Y26784D03*
X-106812Y3036D03*
X-105108Y6420D03*
X-103308Y9636D03*
X-106126Y66072D03*
X-102420Y-14698D03*
X-99708Y-7524D03*
X-101328Y12360D03*
X-96907Y-14753D03*
X-88914Y11610D03*
X-80983Y-44707D03*
X-75108Y-139416D03*
X-77436Y-39612D03*
X-75114Y-27498D03*
X-77503Y1771D03*
Y12259D03*
Y23753D03*
X-72144Y-34644D03*
X-70197Y-131979D03*
X-65364Y-125340D03*
X-65262Y11610D03*
X-53052Y-137952D03*
X-52908Y-131784D03*
X-54589Y-15480D03*
X-53688Y36816D03*
X-54408Y56592D03*
X-52950Y76014D03*
X-48351Y-142093D03*
X-46322Y-7044D03*
X-41927Y-25357D03*
X-37026Y9690D03*
X-39156Y16920D03*
X-35724Y18492D03*
X-39033Y42072D03*
X-36252Y71112D03*
X-33548Y-33304D03*
X-29208Y-32016D03*
X-27540Y31044D03*
X-23964Y-27528D03*
X-26430Y-30114D03*
X-21282Y-25146D03*
X-21367Y-20863D03*
X-17286Y-19098D03*
X-19296Y79740D03*
X-13962Y-17610D03*
X-10872Y65508D03*
X-11052Y87984D03*
X-7368Y35796D03*
X-936Y34788D03*
X7765Y-126421D03*
X15780Y-41076D03*
X19956Y-36744D03*
X20461Y-127273D03*
X20571Y-74787D03*
X24804Y-79920D03*
X39852Y-600D03*
X40800Y-80472D03*
X41189Y-69091D03*
X45953Y-181807D03*
X46875Y-166551D03*
X45449Y13169D03*
X45663Y18736D03*
X58651Y-72079D03*
X61026Y-79962D03*
X69072Y-81672D03*
X68749Y-69781D03*
X68309Y12089D03*
X75120Y-170736D03*
X71894Y-160558D03*
X101028Y-19308D03*
X103582Y-137066D03*
X106812Y67236D03*
X114277Y-166343D03*
X118608Y-75168D03*
X118944Y-69324D03*
X119280Y-62880D03*
X117610Y-7138D03*
X119532Y-91320D03*
X120906Y-9618D03*
X120479Y26725D03*
X127056Y-75252D03*
X126396Y-69408D03*
X126060Y-62712D03*
X124632Y81552D03*
X128400Y-91320D03*
X137400Y19392D03*
X137784Y79188D03*
X137880Y82620D03*
X145296Y103248D03*
X149868Y-19500D03*
X153336Y-19188D03*
X159636Y-86484D03*
X159972Y-66648D03*
X166548Y23844D03*
X163692Y42516D03*
X163212Y76740D03*
X168384Y-86568D03*
X167292Y-66480D03*
X168590Y60178D03*
X168780Y74988D03*
X172356Y23760D03*
X173135Y36563D03*
X172692Y42432D03*
X172831Y54161D03*
X172060Y86972D03*
X179340Y70908D03*
X209784Y-121932D03*
X209748Y-114480D03*
X220212Y-121584D03*
X219288Y-114360D03*
X218677Y-78047D03*
X231047D03*
G54D12*
X-206921Y-157115D03*
X-190885Y154220D03*
X-108496Y-157115D03*
G54D13*
X-190885Y179220D03*
X204588Y79889D03*
Y98786D03*
Y117684D03*
G54D14*
X-190885Y229220D03*
X66358Y132084D03*
X135636Y30060D03*
X223968Y7560D03*
G54D15*
X-190885Y279220D03*
X23413Y-63776D03*
X22212Y-53568D03*
X22464Y-46020D03*
X22344Y-41076D03*
X23413Y-664D03*
X26916Y-65352D03*
X27350Y-59839D03*
Y-4601D03*
X27156Y2016D03*
X31287Y-59839D03*
Y-51965D03*
Y-40154D03*
Y-24286D03*
Y-12475D03*
X35224Y-51965D03*
Y-44091D03*
Y-40154D03*
Y-24286D03*
Y-12475D03*
X39161Y-55902D03*
Y-51965D03*
Y-44091D03*
Y-36217D03*
Y-16412D03*
Y-12475D03*
Y-8538D03*
X43098Y-48028D03*
Y-44091D03*
Y-40154D03*
Y-36217D03*
Y-20349D03*
Y-16412D03*
Y-12475D03*
X47035Y-55902D03*
Y-51965D03*
Y-44091D03*
Y-40154D03*
Y-36217D03*
Y-28223D03*
Y-24286D03*
Y-16412D03*
Y-12475D03*
Y-8538D03*
X50972Y-63776D03*
Y-59839D03*
Y-48028D03*
Y-44091D03*
Y-40154D03*
Y-36217D03*
Y-28223D03*
Y-24286D03*
Y-20349D03*
Y-16412D03*
X51000Y-12503D03*
X52452Y5520D03*
X58966Y-63776D03*
Y-55902D03*
Y-51965D03*
Y-48028D03*
Y-44091D03*
Y-40154D03*
Y-36217D03*
Y-28223D03*
Y-24286D03*
Y-20349D03*
Y-16412D03*
X58884Y-12557D03*
X58548Y-8520D03*
X58656Y5100D03*
X62903Y-55902D03*
Y-51965D03*
Y-48028D03*
Y-40154D03*
Y-36217D03*
Y-28223D03*
Y-24286D03*
Y-20349D03*
Y-12475D03*
X63267Y-8558D03*
X66840Y-59839D03*
Y-48028D03*
Y-44091D03*
Y-40154D03*
Y-24286D03*
Y-20349D03*
Y-16412D03*
X66804Y-12511D03*
X65460Y30012D03*
Y40596D03*
X70777Y-55902D03*
Y-51965D03*
Y-48028D03*
Y-44091D03*
Y-40154D03*
Y-16412D03*
Y-12475D03*
Y-8538D03*
Y-4601D03*
X70992Y16044D03*
X74714Y-51965D03*
Y-24286D03*
Y-12475D03*
X71616Y55560D03*
X73572Y63732D03*
X78651Y-51965D03*
Y-48028D03*
Y-44091D03*
Y-40154D03*
Y-24286D03*
Y-20349D03*
Y-16412D03*
Y-12475D03*
X75624Y33288D03*
X80760Y-65112D03*
X82588Y-59839D03*
Y-4601D03*
X81396Y1356D03*
X86525Y-63776D03*
Y-664D03*
X86424Y20496D03*
X83736Y40668D03*
X88896Y-55824D03*
X89328Y-46440D03*
X87828Y40884D03*
X94524Y-28452D03*
X94116Y78948D03*
X107040Y16248D03*
X107304Y19536D03*
X107172Y27360D03*
X110868Y51444D03*
X111660Y16332D03*
X111888Y27444D03*
X111228Y34800D03*
X113472Y43920D03*
X113184Y48192D03*
X113196Y57168D03*
X131292Y87791D03*
X137100Y8028D03*
X140184Y-98160D03*
X139752Y-90852D03*
X139812Y-75804D03*
X139692Y-71112D03*
X146352Y-90684D03*
X145800Y-75804D03*
X145692Y-70896D03*
X146124Y-64680D03*
X144852Y71832D03*
X147924Y-103392D03*
X148200Y-97884D03*
X151848Y-90684D03*
X151908Y-76128D03*
Y-71112D03*
X151476Y-65016D03*
X151512Y-31188D03*
X152640Y71892D03*
X155772Y-113580D03*
X157140Y-103440D03*
X157356Y-98040D03*
X161256Y-30684D03*
X162528Y89616D03*
X163620Y-113580D03*
X163500Y-23988D03*
X163596Y-18492D03*
X172212Y-98016D03*
X172848Y-30936D03*
X174048Y-24084D03*
X173748Y-18144D03*
X171540Y-7896D03*
X176208Y-90912D03*
X176508Y-85524D03*
X177108Y-69120D03*
X177300Y-64116D03*
X177504Y-58320D03*
X175788Y-7932D03*
X180456Y-122532D03*
X180708Y-97920D03*
X181440Y-30456D03*
X181860Y-23472D03*
X180144Y-7836D03*
X182904Y-90720D03*
Y-85524D03*
X184404Y-69216D03*
X184104Y-63924D03*
X184008Y-58128D03*
X187860Y-121944D03*
X189108Y-98016D03*
X189768Y-30036D03*
X189516Y-23472D03*
X194088Y-121944D03*
X190548Y-116892D03*
X190800Y-91116D03*
X190596Y-85524D03*
X191496Y-69324D03*
X195600Y-116724D03*
X197904Y-97920D03*
X198204Y-91620D03*
X198096Y-50820D03*
X197676Y-29952D03*
X197244Y-23472D03*
X197280Y-15636D03*
X201312Y-122028D03*
Y-116472D03*
X198432Y-46452D03*
X202236Y-15804D03*
X203892Y-50568D03*
X203724Y-46200D03*
X205824Y-30456D03*
X205740Y-23472D03*
X209700Y-50484D03*
X209280Y-46200D03*
X206952Y-15552D03*
G54D16*
G01X-236220Y-196850D02*
X236220D01*
Y137795D01*
X-236220D01*
Y-196850D01*
G54D17*
G01X-235824Y141720D02*
Y366720D01*
X247654D01*
Y141720D01*
X-235824D01*
G01Y166720D02*
X247654D01*
G01X-235824Y191720D02*
X247654D01*
G01X-235824Y216720D02*
X247654D01*
G01X-235824Y241720D02*
X247654D01*
G01X-235824Y266720D02*
X247654D01*
G01X-235824Y291720D02*
X247654D01*
G01X-235824Y316720D02*
X247654D01*
G01X-235824Y341720D02*
X247654D01*
G01X-224822Y297970D02*
Y310470D01*
X-218933D01*
G01X-221103Y304428D02*
X-224822D01*
G01X-211340Y310470D02*
X-207621D01*
G01X-209481D02*
Y297970D01*
G01X-211340D02*
X-207621D01*
G01X-196154Y304220D02*
X-193054D01*
Y300470D01*
X-193984Y299220D01*
X-195069Y298387D01*
X-196619Y297970D01*
X-198168Y298387D01*
X-199253Y299220D01*
X-200183Y300470D01*
X-200803Y301928D01*
X-201113Y303595D01*
Y305053D01*
X-200803Y306303D01*
X-200183Y307762D01*
X-199253Y309012D01*
X-198324Y309845D01*
X-197084Y310470D01*
X-195999D01*
X-194759Y310053D01*
X-193829Y309220D01*
G01X-188096Y310470D02*
Y301512D01*
X-187476Y299636D01*
X-186236Y298387D01*
X-184687Y297970D01*
X-183137Y298387D01*
X-181897Y299636D01*
X-181277Y301512D01*
Y310470D01*
G01X-175389Y297970D02*
Y310470D01*
X-171515D01*
X-170275Y309845D01*
X-169500Y309012D01*
X-169190Y307345D01*
X-169500Y305678D01*
X-170430Y304637D01*
X-171515Y304012D01*
X-175389D01*
G01X-171515D02*
X-169190Y297970D01*
G01X-156793D02*
X-162992D01*
Y310470D01*
X-156793D01*
G01X-159273Y304428D02*
X-162992D01*
G01X-152457Y347970D02*
Y360470D01*
X-149358D01*
X-148118Y359845D01*
X-147188Y359012D01*
X-146413Y357762D01*
X-145793Y356303D01*
X-145638Y354220D01*
X-145793Y352137D01*
X-146413Y350678D01*
X-147188Y349428D01*
X-148118Y348595D01*
X-149358Y347970D01*
X-152457D01*
G01X-139750D02*
Y360470D01*
X-135876D01*
X-134636Y359845D01*
X-133861Y359012D01*
X-133551Y357345D01*
X-133861Y355678D01*
X-134791Y354637D01*
X-135876Y354012D01*
X-139750D01*
G01X-135876D02*
X-133551Y347970D01*
G01X-126113Y360470D02*
X-122394D01*
G01X-124254D02*
Y347970D01*
G01X-126113D02*
X-122394D01*
G01X-114956Y360470D02*
Y347970D01*
X-108757D01*
G01X-102559Y360470D02*
Y347970D01*
X-96360D01*
G01X-71256Y359428D02*
X-72186Y360053D01*
X-73271Y360470D01*
X-74510D01*
X-75906Y359845D01*
X-76990Y358803D01*
X-77765Y357553D01*
X-78385Y355470D01*
X-78540Y353595D01*
X-78230Y351720D01*
X-77765Y350470D01*
X-76835Y349220D01*
X-75750Y348387D01*
X-74666Y347970D01*
X-73581D01*
X-72496Y348387D01*
X-71566Y349011D01*
X-70791Y349845D01*
G01X-65523Y347970D02*
Y360470D01*
G01X-59014D02*
Y347970D01*
G01Y354220D02*
X-65523D01*
G01X-53746Y347970D02*
X-49872Y360470D01*
X-45997Y347970D01*
G01X-47392Y352345D02*
X-52351D01*
G01X-40574Y347970D02*
Y360470D01*
X-36700D01*
X-35460Y359845D01*
X-34685Y359012D01*
X-34375Y357345D01*
X-34685Y355678D01*
X-35615Y354637D01*
X-36700Y354012D01*
X-40574D01*
G01X-36700D02*
X-34375Y347970D01*
G01X-25078Y360470D02*
Y347970D01*
G01X-28642Y360470D02*
X-21513D01*
G01X-12681Y347553D02*
X-12991Y347762D01*
Y348178D01*
X-12681Y348387D01*
X-12370Y348178D01*
Y347762D01*
X-12681Y347553D01*
G01Y353178D02*
X-12991Y353387D01*
Y353803D01*
X-12681Y354012D01*
X-12370Y353803D01*
Y353387D01*
X-12681Y353178D01*
G01X12113Y360470D02*
Y347970D01*
G01X8549Y360470D02*
X15678D01*
G01X24510Y347970D02*
X23270Y348178D01*
X22186Y349011D01*
X21256Y350262D01*
X20636Y351720D01*
X20326Y353387D01*
Y355053D01*
X20636Y356720D01*
X21256Y358178D01*
X22186Y359428D01*
X23270Y360262D01*
X24510Y360470D01*
X25750Y360262D01*
X26835Y359428D01*
X27765Y358178D01*
X28385Y356720D01*
X28695Y355053D01*
Y353387D01*
X28385Y351720D01*
X27765Y350262D01*
X26835Y349011D01*
X25750Y348178D01*
X24510Y347970D01*
G01X33808D02*
Y360470D01*
X37527D01*
X38767Y359845D01*
X39697Y358387D01*
X40007Y356720D01*
X39697Y355053D01*
X38922Y353803D01*
X37527Y353178D01*
X33808D01*
G01X61701Y360470D02*
Y347970D01*
G01X59532Y356303D02*
X63871D01*
G01X74098Y347970D02*
X73169Y348178D01*
X72239Y349011D01*
X71619Y350470D01*
X71309Y352137D01*
X71619Y353803D01*
X72239Y355262D01*
X73169Y356095D01*
X74098Y356303D01*
X75028Y356095D01*
X75958Y355262D01*
X76578Y353803D01*
X76733Y352137D01*
X76578Y350470D01*
X75958Y349011D01*
X75028Y348178D01*
X74098Y347970D01*
G01X100132Y354637D02*
X100752Y355262D01*
X101217Y356303D01*
X101527Y357762D01*
X101217Y359012D01*
X100597Y359845D01*
X99512Y360470D01*
X95328D01*
Y347970D01*
X100442D01*
X101527Y348803D01*
X102147Y350053D01*
X102457Y351512D01*
X102147Y352970D01*
X101217Y354220D01*
X100132Y354637D01*
X95328D01*
G01X111289Y347970D02*
X110049Y348178D01*
X108965Y349011D01*
X108035Y350262D01*
X107415Y351720D01*
X107105Y353387D01*
Y355053D01*
X107415Y356720D01*
X108035Y358178D01*
X108965Y359428D01*
X110049Y360262D01*
X111289Y360470D01*
X112529Y360262D01*
X113614Y359428D01*
X114544Y358178D01*
X115164Y356720D01*
X115474Y355053D01*
Y353387D01*
X115164Y351720D01*
X114544Y350262D01*
X113614Y349011D01*
X112529Y348178D01*
X111289Y347970D01*
G01X123686Y360470D02*
Y347970D01*
G01X120122Y360470D02*
X127251D01*
G01X136083D02*
Y347970D01*
G01X132519Y360470D02*
X139648D01*
G01X148480Y347970D02*
X147240Y348178D01*
X146156Y349011D01*
X145226Y350262D01*
X144606Y351720D01*
X144296Y353387D01*
Y355053D01*
X144606Y356720D01*
X145226Y358178D01*
X146156Y359428D01*
X147240Y360262D01*
X148480Y360470D01*
X149720Y360262D01*
X150805Y359428D01*
X151735Y358178D01*
X152355Y356720D01*
X152665Y355053D01*
Y353387D01*
X152355Y351720D01*
X151735Y350262D01*
X150805Y349011D01*
X149720Y348178D01*
X148480Y347970D01*
G01X156848D02*
Y360470D01*
X160877Y350053D01*
X164907Y360470D01*
Y347970D01*
G01X-145947Y316720D02*
Y141720D01*
G01X-121930Y322970D02*
X-118056Y335470D01*
X-114181Y322970D01*
G01X-115576Y327345D02*
X-120535D01*
G01X-108758Y335470D02*
Y322970D01*
X-102559D01*
G01X-96361Y335470D02*
Y322970D01*
X-90162D01*
G01X-71877Y335470D02*
Y326512D01*
X-71257Y324636D01*
X-70017Y323387D01*
X-68468Y322970D01*
X-66918Y323387D01*
X-65678Y324636D01*
X-65058Y326512D01*
Y335470D01*
G01X-59635Y322970D02*
Y335470D01*
X-52506Y322970D01*
Y335470D01*
G01X-45533D02*
X-41814D01*
G01X-43674D02*
Y322970D01*
G01X-45533D02*
X-41814D01*
G01X-31277Y335470D02*
Y322970D01*
G01X-34841Y335470D02*
X-27712D01*
G01X-22134Y324636D02*
X-20894Y323595D01*
X-19499Y322970D01*
X-18260D01*
X-17020Y323595D01*
X-16090Y324636D01*
X-15625Y326095D01*
X-15935Y327553D01*
X-16710Y328803D01*
X-18105Y329637D01*
X-19964Y330053D01*
X-21049Y330887D01*
X-21514Y332345D01*
X-21204Y333803D01*
X-20429Y334845D01*
X-19344Y335470D01*
X-18260D01*
X-17175Y335053D01*
X-16245Y334012D01*
G01X2040Y322970D02*
X5914Y335470D01*
X9789Y322970D01*
G01X8394Y327345D02*
X3435D01*
G01X15212Y322970D02*
Y335470D01*
X19086D01*
X20326Y334845D01*
X21101Y334012D01*
X21411Y332345D01*
X21101Y330678D01*
X20171Y329637D01*
X19086Y329012D01*
X15212D01*
G01X19086D02*
X21411Y322970D01*
G01X33808D02*
X27609D01*
Y335470D01*
X33808D01*
G01X31328Y329428D02*
X27609D01*
G01X53643Y335470D02*
X57362D01*
G01X55502D02*
Y322970D01*
G01X53643D02*
X57362D01*
G01X64335D02*
Y335470D01*
X71464Y322970D01*
Y335470D01*
G01X88664Y322970D02*
Y335470D01*
X92693Y325053D01*
X96723Y335470D01*
Y322970D01*
G01X103231Y335470D02*
X106950D01*
G01X105090D02*
Y322970D01*
G01X103231D02*
X106950D01*
G01X114388Y335470D02*
Y322970D01*
X120587D01*
G01X126630Y324636D02*
X127870Y323595D01*
X129265Y322970D01*
X130504D01*
X131744Y323595D01*
X132674Y324636D01*
X133139Y326095D01*
X132829Y327553D01*
X132054Y328803D01*
X130659Y329637D01*
X128800Y330053D01*
X127715Y330887D01*
X127250Y332345D01*
X127560Y333803D01*
X128335Y334845D01*
X129420Y335470D01*
X130504D01*
X131589Y335053D01*
X132519Y334012D01*
G01X-82413Y147970D02*
Y160470D01*
X-84272Y157970D01*
G01Y147970D02*
X-80553D01*
G01X-72960Y158387D02*
X-72030Y159636D01*
X-70945Y160262D01*
X-69705Y160470D01*
X-68156Y160053D01*
X-67071Y159012D01*
X-66761Y157762D01*
X-66916Y156511D01*
X-67536Y155470D01*
X-70635Y153387D01*
X-72030Y151928D01*
X-72960Y149845D01*
X-73270Y147970D01*
X-66761D01*
G01X-57619Y160470D02*
X-58859Y160053D01*
X-59788Y159012D01*
X-60408Y157762D01*
X-60873Y156095D01*
X-61028Y154220D01*
X-60873Y152345D01*
X-60408Y150678D01*
X-59788Y149428D01*
X-58859Y148387D01*
X-57619Y147970D01*
X-56379Y148387D01*
X-55449Y149428D01*
X-54829Y150678D01*
X-54364Y152345D01*
X-54209Y154220D01*
X-54364Y156095D01*
X-54829Y157762D01*
X-55449Y159012D01*
X-56379Y160053D01*
X-57619Y160470D01*
G01X-45222Y147553D02*
X-45532Y147762D01*
Y148178D01*
X-45222Y148387D01*
X-44911Y148178D01*
Y147762D01*
X-45222Y147553D01*
G01X-32825Y160470D02*
X-34065Y160053D01*
X-34994Y159012D01*
X-35614Y157762D01*
X-36079Y156095D01*
X-36234Y154220D01*
X-36079Y152345D01*
X-35614Y150678D01*
X-34994Y149428D01*
X-34065Y148387D01*
X-32825Y147970D01*
X-31585Y148387D01*
X-30655Y149428D01*
X-30035Y150678D01*
X-29570Y152345D01*
X-29415Y154220D01*
X-29570Y156095D01*
X-30035Y157762D01*
X-30655Y159012D01*
X-31585Y160053D01*
X-32825Y160470D01*
G01X-20428Y147970D02*
X-19343Y148178D01*
X-18103Y148803D01*
X-17328Y149845D01*
X-17018Y151303D01*
X-17328Y152761D01*
X-18258Y154012D01*
X-19653Y154637D01*
X-21202D01*
X-22132Y155053D01*
X-22907Y156095D01*
X-23217Y157553D01*
X-22752Y159012D01*
X-21668Y160053D01*
X-20428Y160470D01*
X-19188Y160053D01*
X-18103Y159012D01*
X-17638Y157553D01*
X-17948Y156095D01*
X-18723Y155053D01*
X-19653Y154637D01*
X-21202D01*
X-22597Y154012D01*
X-23527Y152761D01*
X-23837Y151303D01*
X-23527Y149845D01*
X-22752Y148803D01*
X-21512Y148178D01*
X-20428Y147970D01*
G01X-79159Y178178D02*
X-78074Y179637D01*
X-77144Y180470D01*
X-75904Y180887D01*
X-74820Y180470D01*
X-74045Y179637D01*
X-73425Y178387D01*
X-73270Y176928D01*
X-73425Y175678D01*
X-74045Y174428D01*
X-74975Y173387D01*
X-76059Y172970D01*
X-77299Y173387D01*
X-78384Y174636D01*
X-79004Y176512D01*
X-79159Y178595D01*
X-78849Y181303D01*
X-78384Y182762D01*
X-77609Y184220D01*
X-76525Y185262D01*
X-75440Y185470D01*
X-74355Y185053D01*
X-73580Y184012D01*
G01X-66762Y183387D02*
X-65832Y184636D01*
X-64747Y185262D01*
X-63507Y185470D01*
X-61958Y185053D01*
X-60873Y184012D01*
X-60563Y182762D01*
X-60718Y181511D01*
X-61338Y180470D01*
X-64437Y178387D01*
X-65832Y176928D01*
X-66762Y174845D01*
X-67072Y172970D01*
X-60563D01*
G01X-51421Y172553D02*
X-51731Y172762D01*
Y173178D01*
X-51421Y173387D01*
X-51110Y173178D01*
Y172762D01*
X-51421Y172553D01*
G01X-41658Y174428D02*
X-40573Y173387D01*
X-39334Y172970D01*
X-38094Y173387D01*
X-37009Y174636D01*
X-36234Y176512D01*
X-35924Y178387D01*
Y180678D01*
X-36234Y182553D01*
X-37009Y184220D01*
X-37939Y185053D01*
X-39024Y185470D01*
X-40264Y185053D01*
X-41193Y184220D01*
X-41813Y182970D01*
X-42123Y181303D01*
X-41813Y179845D01*
X-41038Y178387D01*
X-40108Y177553D01*
X-39024Y177345D01*
X-37784Y177761D01*
X-36854Y178803D01*
X-35924Y180678D01*
G01X-29261Y174428D02*
X-28176Y173387D01*
X-26937Y172970D01*
X-25697Y173387D01*
X-24612Y174636D01*
X-23837Y176512D01*
X-23527Y178387D01*
Y180678D01*
X-23837Y182553D01*
X-24612Y184220D01*
X-25542Y185053D01*
X-26627Y185470D01*
X-27867Y185053D01*
X-28796Y184220D01*
X-29416Y182970D01*
X-29726Y181303D01*
X-29416Y179845D01*
X-28641Y178387D01*
X-27711Y177553D01*
X-26627Y177345D01*
X-25387Y177761D01*
X-24457Y178803D01*
X-23527Y180678D01*
G01X-79624Y200470D02*
X-78694Y199011D01*
X-77455Y198178D01*
X-76059Y197970D01*
X-74820Y198178D01*
X-73580Y199220D01*
X-72805Y200470D01*
X-72650Y201720D01*
X-72960Y203178D01*
X-74045Y204220D01*
X-75130Y204637D01*
X-76525D01*
G01X-75130D02*
X-74200Y205262D01*
X-73425Y206303D01*
X-73115Y207553D01*
X-73425Y208803D01*
X-74200Y209845D01*
X-75595Y210470D01*
X-76989Y210262D01*
X-78384Y209428D01*
G01X-67227Y199845D02*
X-66297Y198803D01*
X-65212Y198178D01*
X-63818Y197970D01*
X-62423Y198387D01*
X-61338Y199220D01*
X-60563Y200678D01*
X-60408Y202345D01*
X-60718Y204012D01*
X-61493Y205053D01*
X-62578Y205887D01*
X-63662Y206095D01*
X-64747Y205887D01*
X-66142Y205053D01*
X-65677Y210470D01*
X-61493D01*
G01X-51421Y197553D02*
X-51731Y197762D01*
Y198178D01*
X-51421Y198387D01*
X-51110Y198178D01*
Y197762D01*
X-51421Y197553D01*
G01X-37164Y197970D02*
Y210470D01*
X-42898Y201512D01*
X-35149D01*
G01X-30036Y200470D02*
X-29106Y199011D01*
X-27867Y198178D01*
X-26471Y197970D01*
X-25232Y198178D01*
X-23992Y199220D01*
X-23217Y200470D01*
X-23062Y201720D01*
X-23372Y203178D01*
X-24457Y204220D01*
X-25542Y204637D01*
X-26937D01*
G01X-25542D02*
X-24612Y205262D01*
X-23837Y206303D01*
X-23527Y207553D01*
X-23837Y208803D01*
X-24612Y209845D01*
X-26007Y210470D01*
X-27401Y210262D01*
X-28796Y209428D01*
G01X-76215Y222970D02*
Y235470D01*
X-78074Y232970D01*
G01Y222970D02*
X-74355D01*
G01X-66452Y224428D02*
X-65367Y223387D01*
X-64128Y222970D01*
X-62888Y223387D01*
X-61803Y224636D01*
X-61028Y226512D01*
X-60718Y228387D01*
Y230678D01*
X-61028Y232553D01*
X-61803Y234220D01*
X-62733Y235053D01*
X-63818Y235470D01*
X-65058Y235053D01*
X-65987Y234220D01*
X-66607Y232970D01*
X-66917Y231303D01*
X-66607Y229845D01*
X-65832Y228387D01*
X-64902Y227553D01*
X-63818Y227345D01*
X-62578Y227761D01*
X-61648Y228803D01*
X-60718Y230678D01*
G01X-51421Y222553D02*
X-51731Y222762D01*
Y223178D01*
X-51421Y223387D01*
X-51110Y223178D01*
Y222762D01*
X-51421Y222553D01*
G01X-41968Y228178D02*
X-40883Y229637D01*
X-39953Y230470D01*
X-38713Y230887D01*
X-37629Y230470D01*
X-36854Y229637D01*
X-36234Y228387D01*
X-36079Y226928D01*
X-36234Y225678D01*
X-36854Y224428D01*
X-37784Y223387D01*
X-38868Y222970D01*
X-40108Y223387D01*
X-41193Y224636D01*
X-41813Y226512D01*
X-41968Y228595D01*
X-41658Y231303D01*
X-41193Y232762D01*
X-40418Y234220D01*
X-39334Y235262D01*
X-38249Y235470D01*
X-37164Y235053D01*
X-36389Y234012D01*
G01X-29261Y224428D02*
X-28176Y223387D01*
X-26937Y222970D01*
X-25697Y223387D01*
X-24612Y224636D01*
X-23837Y226512D01*
X-23527Y228387D01*
Y230678D01*
X-23837Y232553D01*
X-24612Y234220D01*
X-25542Y235053D01*
X-26627Y235470D01*
X-27867Y235053D01*
X-28796Y234220D01*
X-29416Y232970D01*
X-29726Y231303D01*
X-29416Y229845D01*
X-28641Y228387D01*
X-27711Y227553D01*
X-26627Y227345D01*
X-25387Y227761D01*
X-24457Y228803D01*
X-23527Y230678D01*
G01X-76215Y247970D02*
Y260470D01*
X-78074Y257970D01*
G01Y247970D02*
X-74355D01*
G01X-67227Y250470D02*
X-66297Y249011D01*
X-65058Y248178D01*
X-63662Y247970D01*
X-62423Y248178D01*
X-61183Y249220D01*
X-60408Y250470D01*
X-60253Y251720D01*
X-60563Y253178D01*
X-61648Y254220D01*
X-62733Y254637D01*
X-64128D01*
G01X-62733D02*
X-61803Y255262D01*
X-61028Y256303D01*
X-60718Y257553D01*
X-61028Y258803D01*
X-61803Y259845D01*
X-63198Y260470D01*
X-64592Y260262D01*
X-65987Y259428D01*
G01X-51421Y247553D02*
X-51731Y247762D01*
Y248178D01*
X-51421Y248387D01*
X-51110Y248178D01*
Y247762D01*
X-51421Y247553D01*
G01X-39334Y247970D02*
X-39024Y250678D01*
X-38559Y252970D01*
X-37939Y255053D01*
X-37164Y257345D01*
X-35924Y260470D01*
X-42123D01*
G01X-26627Y247970D02*
X-25542Y248178D01*
X-24302Y248803D01*
X-23527Y249845D01*
X-23217Y251303D01*
X-23527Y252761D01*
X-24457Y254012D01*
X-25852Y254637D01*
X-27401D01*
X-28331Y255053D01*
X-29106Y256095D01*
X-29416Y257553D01*
X-28951Y259012D01*
X-27867Y260053D01*
X-26627Y260470D01*
X-25387Y260053D01*
X-24302Y259012D01*
X-23837Y257553D01*
X-24147Y256095D01*
X-24922Y255053D01*
X-25852Y254637D01*
X-27401D01*
X-28796Y254012D01*
X-29726Y252761D01*
X-30036Y251303D01*
X-29726Y249845D01*
X-28951Y248803D01*
X-27711Y248178D01*
X-26627Y247970D01*
G01X-72650Y274428D02*
X-71565Y273387D01*
X-70326Y272970D01*
X-69086Y273387D01*
X-68001Y274636D01*
X-67226Y276512D01*
X-66916Y278387D01*
Y280678D01*
X-67226Y282553D01*
X-68001Y284220D01*
X-68931Y285053D01*
X-70016Y285470D01*
X-71256Y285053D01*
X-72185Y284220D01*
X-72805Y282970D01*
X-73115Y281303D01*
X-72805Y279845D01*
X-72030Y278387D01*
X-71100Y277553D01*
X-70016Y277345D01*
X-68776Y277761D01*
X-67846Y278803D01*
X-66916Y280678D01*
G01X-57619Y272553D02*
X-57929Y272762D01*
Y273178D01*
X-57619Y273387D01*
X-57308Y273178D01*
Y272762D01*
X-57619Y272553D01*
G01X-45222Y272970D02*
X-44137Y273178D01*
X-42897Y273803D01*
X-42122Y274845D01*
X-41812Y276303D01*
X-42122Y277761D01*
X-43052Y279012D01*
X-44447Y279637D01*
X-45996D01*
X-46926Y280053D01*
X-47701Y281095D01*
X-48011Y282553D01*
X-47546Y284012D01*
X-46462Y285053D01*
X-45222Y285470D01*
X-43982Y285053D01*
X-42897Y284012D01*
X-42432Y282553D01*
X-42742Y281095D01*
X-43517Y280053D01*
X-44447Y279637D01*
X-45996D01*
X-47391Y279012D01*
X-48321Y277761D01*
X-48631Y276303D01*
X-48321Y274845D01*
X-47546Y273803D01*
X-46306Y273178D01*
X-45222Y272970D01*
G01X-30965D02*
Y285470D01*
X-36699Y276512D01*
X-28950D01*
G01X-73270Y299636D02*
X-72030Y298595D01*
X-70635Y297970D01*
X-69396D01*
X-68156Y298595D01*
X-67226Y299636D01*
X-66761Y301095D01*
X-67071Y302553D01*
X-67846Y303803D01*
X-69241Y304637D01*
X-71100Y305053D01*
X-72185Y305887D01*
X-72650Y307345D01*
X-72340Y308803D01*
X-71565Y309845D01*
X-70480Y310470D01*
X-69396D01*
X-68311Y310053D01*
X-67381Y309012D01*
G01X-59478Y310470D02*
X-55759D01*
G01X-57619D02*
Y297970D01*
G01X-59478D02*
X-55759D01*
G01X-48166Y310470D02*
X-42277D01*
X-48166Y297970D01*
X-42277D01*
G01X-29725D02*
X-35924D01*
Y310470D01*
X-29725D01*
G01X-32205Y304428D02*
X-35924D01*
G01X43106Y316720D02*
Y141720D01*
G01X72548Y147970D02*
Y160470D01*
X76267D01*
X77507Y159845D01*
X78437Y158387D01*
X78747Y156720D01*
X78437Y155053D01*
X77662Y153803D01*
X76267Y153178D01*
X72548D01*
G01X84945Y160470D02*
Y147970D01*
X91144D01*
G01X96567D02*
X100441Y160470D01*
X104316Y147970D01*
G01X102921Y152345D02*
X97962D01*
G01X112838Y160470D02*
Y147970D01*
G01X109274Y160470D02*
X116403D01*
G01X128335Y147970D02*
X122136D01*
Y160470D01*
X128335D01*
G01X125855Y154428D02*
X122136D01*
G01X134223Y147970D02*
Y160470D01*
X137322D01*
X138562Y159845D01*
X139492Y159012D01*
X140267Y157762D01*
X140887Y156303D01*
X141042Y154220D01*
X140887Y152137D01*
X140267Y150678D01*
X139492Y149428D01*
X138562Y148595D01*
X137322Y147970D01*
X134223D01*
G01X72548Y172970D02*
Y185470D01*
X76267D01*
X77507Y184845D01*
X78437Y183387D01*
X78747Y181720D01*
X78437Y180053D01*
X77662Y178803D01*
X76267Y178178D01*
X72548D01*
G01X84945Y185470D02*
Y172970D01*
X91144D01*
G01X96567D02*
X100441Y185470D01*
X104316Y172970D01*
G01X102921Y177345D02*
X97962D01*
G01X112838Y185470D02*
Y172970D01*
G01X109274Y185470D02*
X116403D01*
G01X128335Y172970D02*
X122136D01*
Y185470D01*
X128335D01*
G01X125855Y179428D02*
X122136D01*
G01X134223Y172970D02*
Y185470D01*
X137322D01*
X138562Y184845D01*
X139492Y184012D01*
X140267Y182762D01*
X140887Y181303D01*
X141042Y179220D01*
X140887Y177137D01*
X140267Y175678D01*
X139492Y174428D01*
X138562Y173595D01*
X137322Y172970D01*
X134223D01*
G01X72548Y197970D02*
Y210470D01*
X76267D01*
X77507Y209845D01*
X78437Y208387D01*
X78747Y206720D01*
X78437Y205053D01*
X77662Y203803D01*
X76267Y203178D01*
X72548D01*
G01X84945Y210470D02*
Y197970D01*
X91144D01*
G01X96567D02*
X100441Y210470D01*
X104316Y197970D01*
G01X102921Y202345D02*
X97962D01*
G01X112838Y210470D02*
Y197970D01*
G01X109274Y210470D02*
X116403D01*
G01X128335Y197970D02*
X122136D01*
Y210470D01*
X128335D01*
G01X125855Y204428D02*
X122136D01*
G01X134223Y197970D02*
Y210470D01*
X137322D01*
X138562Y209845D01*
X139492Y209012D01*
X140267Y207762D01*
X140887Y206303D01*
X141042Y204220D01*
X140887Y202137D01*
X140267Y200678D01*
X139492Y199428D01*
X138562Y198595D01*
X137322Y197970D01*
X134223D01*
G01X72548Y222970D02*
Y235470D01*
X76267D01*
X77507Y234845D01*
X78437Y233387D01*
X78747Y231720D01*
X78437Y230053D01*
X77662Y228803D01*
X76267Y228178D01*
X72548D01*
G01X84945Y235470D02*
Y222970D01*
X91144D01*
G01X96567D02*
X100441Y235470D01*
X104316Y222970D01*
G01X102921Y227345D02*
X97962D01*
G01X112838Y235470D02*
Y222970D01*
G01X109274Y235470D02*
X116403D01*
G01X128335Y222970D02*
X122136D01*
Y235470D01*
X128335D01*
G01X125855Y229428D02*
X122136D01*
G01X134223Y222970D02*
Y235470D01*
X137322D01*
X138562Y234845D01*
X139492Y234012D01*
X140267Y232762D01*
X140887Y231303D01*
X141042Y229220D01*
X140887Y227137D01*
X140267Y225678D01*
X139492Y224428D01*
X138562Y223595D01*
X137322Y222970D01*
X134223D01*
G01X72548Y247970D02*
Y260470D01*
X76267D01*
X77507Y259845D01*
X78437Y258387D01*
X78747Y256720D01*
X78437Y255053D01*
X77662Y253803D01*
X76267Y253178D01*
X72548D01*
G01X84945Y260470D02*
Y247970D01*
X91144D01*
G01X96567D02*
X100441Y260470D01*
X104316Y247970D01*
G01X102921Y252345D02*
X97962D01*
G01X112838Y260470D02*
Y247970D01*
G01X109274Y260470D02*
X116403D01*
G01X128335Y247970D02*
X122136D01*
Y260470D01*
X128335D01*
G01X125855Y254428D02*
X122136D01*
G01X134223Y247970D02*
Y260470D01*
X137322D01*
X138562Y259845D01*
X139492Y259012D01*
X140267Y257762D01*
X140887Y256303D01*
X141042Y254220D01*
X140887Y252137D01*
X140267Y250678D01*
X139492Y249428D01*
X138562Y248595D01*
X137322Y247970D01*
X134223D01*
G01X72548Y272970D02*
Y285470D01*
X76267D01*
X77507Y284845D01*
X78437Y283387D01*
X78747Y281720D01*
X78437Y280053D01*
X77662Y278803D01*
X76267Y278178D01*
X72548D01*
G01X84945Y285470D02*
Y272970D01*
X91144D01*
G01X96567D02*
X100441Y285470D01*
X104316Y272970D01*
G01X102921Y277345D02*
X97962D01*
G01X112838Y285470D02*
Y272970D01*
G01X109274Y285470D02*
X116403D01*
G01X128335Y272970D02*
X122136D01*
Y285470D01*
X128335D01*
G01X125855Y279428D02*
X122136D01*
G01X134223Y272970D02*
Y285470D01*
X137322D01*
X138562Y284845D01*
X139492Y284012D01*
X140267Y282762D01*
X140887Y281303D01*
X141042Y279220D01*
X140887Y277137D01*
X140267Y275678D01*
X139492Y274428D01*
X138562Y273595D01*
X137322Y272970D01*
X134223D01*
G01X72548Y297970D02*
Y310470D01*
X76267D01*
X77507Y309845D01*
X78437Y308387D01*
X78747Y306720D01*
X78437Y305053D01*
X77662Y303803D01*
X76267Y303178D01*
X72548D01*
G01X84945Y310470D02*
Y297970D01*
X91144D01*
G01X96567D02*
X100441Y310470D01*
X104316Y297970D01*
G01X102921Y302345D02*
X97962D01*
G01X112838Y310470D02*
Y297970D01*
G01X109274Y310470D02*
X116403D01*
G01X128335Y297970D02*
X122136D01*
Y310470D01*
X128335D01*
G01X125855Y304428D02*
X122136D01*
G01X134223Y297970D02*
Y310470D01*
X137322D01*
X138562Y309845D01*
X139492Y309012D01*
X140267Y307762D01*
X140887Y306303D01*
X141042Y304220D01*
X140887Y302137D01*
X140267Y300678D01*
X139492Y299428D01*
X138562Y298595D01*
X137322Y297970D01*
X134223D01*
G01X170174Y316720D02*
Y141720D01*
G01X193572Y208387D02*
X194502Y209636D01*
X195587Y210262D01*
X196827Y210470D01*
X198376Y210053D01*
X199461Y209012D01*
X199771Y207762D01*
X199616Y206511D01*
X198996Y205470D01*
X195897Y203387D01*
X194502Y201928D01*
X193572Y199845D01*
X193262Y197970D01*
X199771D01*
G01X208913D02*
Y210470D01*
X207054Y207970D01*
G01Y197970D02*
X210773D01*
G01X221310D02*
Y210470D01*
X219451Y207970D01*
G01Y197970D02*
X223170D01*
G01X196516Y247970D02*
Y260470D01*
X194657Y257970D01*
G01Y247970D02*
X198376D01*
G01X210773D02*
Y260470D01*
X205039Y251512D01*
X212788D01*
G01X217901Y250470D02*
X218831Y249011D01*
X220070Y248178D01*
X221466Y247970D01*
X222705Y248178D01*
X223945Y249220D01*
X224720Y250470D01*
X224875Y251720D01*
X224565Y253178D01*
X223480Y254220D01*
X222395Y254637D01*
X221000D01*
G01X222395D02*
X223325Y255262D01*
X224100Y256303D01*
X224410Y257553D01*
X224100Y258803D01*
X223325Y259845D01*
X221930Y260470D01*
X220536Y260262D01*
X219141Y259428D01*
G01X193572Y283387D02*
X194502Y284636D01*
X195587Y285262D01*
X196827Y285470D01*
X198376Y285053D01*
X199461Y284012D01*
X199771Y282762D01*
X199616Y281511D01*
X198996Y280470D01*
X195897Y278387D01*
X194502Y276928D01*
X193572Y274845D01*
X193262Y272970D01*
X199771D01*
G01X208913D02*
Y285470D01*
X207054Y282970D01*
G01Y272970D02*
X210773D01*
G01X221310D02*
Y285470D01*
X219451Y282970D01*
G01Y272970D02*
X223170D01*
G01X196516Y297970D02*
X195276Y298178D01*
X194192Y299011D01*
X193262Y300262D01*
X192642Y301720D01*
X192332Y303387D01*
Y305053D01*
X192642Y306720D01*
X193262Y308178D01*
X194192Y309428D01*
X195276Y310262D01*
X196516Y310470D01*
X197756Y310262D01*
X198841Y309428D01*
X199771Y308178D01*
X200391Y306720D01*
X200701Y305053D01*
Y303387D01*
X200391Y301720D01*
X199771Y300262D01*
X198841Y299011D01*
X197756Y298178D01*
X196516Y297970D01*
G01X197756Y301303D02*
X199616Y297970D01*
G01X208913Y310470D02*
Y297970D01*
G01X205349Y310470D02*
X212478D01*
G01X221310Y297970D02*
Y303595D01*
X218211Y310470D01*
G01X224410D02*
X221310Y303595D01*
G01X205969Y158387D02*
X206899Y159636D01*
X207984Y160262D01*
X209224Y160470D01*
X210773Y160053D01*
X211858Y159012D01*
X212168Y157762D01*
X212013Y156511D01*
X211393Y155470D01*
X208294Y153387D01*
X206899Y151928D01*
X205969Y149845D01*
X205659Y147970D01*
X212168D01*
G01X205504Y175470D02*
X206434Y174011D01*
X207673Y173178D01*
X209069Y172970D01*
X210308Y173178D01*
X211548Y174220D01*
X212323Y175470D01*
X212478Y176720D01*
X212168Y178178D01*
X211083Y179220D01*
X209998Y179637D01*
X208603D01*
G01X209998D02*
X210928Y180262D01*
X211703Y181303D01*
X212013Y182553D01*
X211703Y183803D01*
X210928Y184845D01*
X209533Y185470D01*
X208139Y185262D01*
X206744Y184428D01*
G01X205504Y225470D02*
X206434Y224011D01*
X207673Y223178D01*
X209069Y222970D01*
X210308Y223178D01*
X211548Y224220D01*
X212323Y225470D01*
X212478Y226720D01*
X212168Y228178D01*
X211083Y229220D01*
X209998Y229637D01*
X208603D01*
G01X209998D02*
X210928Y230262D01*
X211703Y231303D01*
X212013Y232553D01*
X211703Y233803D01*
X210928Y234845D01*
X209533Y235470D01*
X208139Y235262D01*
X206744Y234428D01*
M02*
