G04 ================== begin FILE IDENTIFICATION RECORD ==================*
G04 Layout Name:  E:/Cadence/SPB_Data/control_board/control_board.brd*
G04 Film Name:    PASTEMASK_TOP*
G04 File Format:  Gerber RS274X*
G04 File Origin:  Cadence Allegro 16.6-2015-S098*
G04 Origin Date:  Fri Dec 27 14:31:35 2019*
G04 *
G04 Layer:  VIA CLASS/PASTEMASK_TOP*
G04 Layer:  PIN/PASTEMASK_TOP*
G04 Layer:  PACKAGE GEOMETRY/PASTEMASK_TOP*
G04 *
G04 Offset:    (0.00 0.00)*
G04 Mirror:    No*
G04 Mode:      Positive*
G04 Rotation:  0*
G04 FullContactRelief:  No*
G04 UndefLineWidth:     6.00*
G04 ================== end FILE IDENTIFICATION RECORD ====================*
%FSLAX35Y35*MOIN*%
%IR0*IPPOS*OFA0.00000B0.00000*MIA0B0*SFA1.00000B1.00000*%
%AMMACRO12*
4,1,44,.0128,-.01476,
.0128,.01476,
.01274,.015444,
.012563,.016107,
.012273,.016729,
.01188,.017292,
.011394,.017778,
.010832,.018172,
.01021,.018462,
.009547,.01864,
.008863,.0187,
.00886,.0187,
-.00886,.0187,
-.009544,.01864,
-.010207,.018463,
-.010829,.018173,
-.011392,.01778,
-.011878,.017294,
-.012272,.016732,
-.012562,.01611,
-.01274,.015447,
-.0128,.014763,
-.0128,.01476,
-.0128,-.01476,
-.01274,-.015444,
-.012563,-.016107,
-.012273,-.016729,
-.01188,-.017292,
-.011394,-.017778,
-.010832,-.018172,
-.01021,-.018462,
-.009547,-.01864,
-.008863,-.0187,
-.00886,-.0187,
.00886,-.0187,
.009544,-.01864,
.010207,-.018463,
.010829,-.018173,
.011392,-.01778,
.011878,-.017294,
.012272,-.016732,
.012562,-.01611,
.01274,-.015447,
.0128,-.014763,
.0128,-.01476,
0.0*
%
%ADD12MACRO12*%
%AMMACRO15*
4,1,44,-.01476,-.0128,
.01476,-.0128,
.015444,-.01274,
.016107,-.012563,
.016729,-.012273,
.017292,-.01188,
.017778,-.011394,
.018172,-.010832,
.018462,-.01021,
.01864,-.009547,
.0187,-.008863,
.0187,-.00886,
.0187,.00886,
.01864,.009544,
.018463,.010207,
.018173,.010829,
.01778,.011392,
.017294,.011878,
.016732,.012272,
.01611,.012562,
.015447,.01274,
.014763,.0128,
.01476,.0128,
-.01476,.0128,
-.015444,.01274,
-.016107,.012563,
-.016729,.012273,
-.017292,.01188,
-.017778,.011394,
-.018172,.010832,
-.018462,.01021,
-.01864,.009547,
-.0187,.008863,
-.0187,.00886,
-.0187,-.00886,
-.01864,-.009544,
-.018463,-.010207,
-.018173,-.010829,
-.01778,-.011392,
-.017294,-.011878,
-.016732,-.012272,
-.01611,-.012562,
-.015447,-.01274,
-.014763,-.0128,
-.01476,-.0128,
0.0*
%
%ADD15MACRO15*%
%ADD61R,.13504X.03346*%
%ADD37C,.01772*%
%AMMACRO35*
21,1,.02559,.06004,0.0,0.0,135.*%
%ADD35MACRO35*%
%AMMACRO22*
21,1,.01181,.05807,0.0,0.0,135.*%
%ADD22MACRO22*%
%AMMACRO19*
21,1,.02362,.02953,0.0,0.0,135.*%
%ADD19MACRO19*%
%AMMACRO25*
4,1,44,-.01397,-.00284,
-.00284,-.01397,
-.002317,-.014414,
-.001723,-.014758,
-.001079,-.014993,
-.000403,-.015113,
.000283,-.015113,
.000959,-.014994,
.001604,-.01476,
.002199,-.014418,
.002725,-.013977,
.00273,-.01397,
.01397,-.00273,
.014413,-.002206,
.014757,-.001612,
.014992,-.000968,
.015112,-.000292,
.015113,.000394,
.014995,.00107,
.014761,.001715,
.014419,.00231,
.013979,.002836,
.01397,.00284,
.00284,.01397,
.002317,.014414,
.001723,.014758,
.001079,.014993,
.000403,.015113,
-.000283,.015113,
-.000959,.014994,
-.001604,.01476,
-.002199,.014418,
-.002725,.013977,
-.00273,.01397,
-.01397,.00273,
-.014413,.002206,
-.014757,.001612,
-.014992,.000968,
-.015112,.000292,
-.015113,-.000394,
-.014995,-.00107,
-.014761,-.001715,
-.014419,-.00231,
-.013979,-.002836,
-.01397,-.00284,
0.0*
%
%ADD25MACRO25*%
%AMMACRO24*
4,1,44,-.00284,.01397,
-.01397,.00284,
-.014414,.002317,
-.014758,.001723,
-.014993,.001079,
-.015113,.000403,
-.015113,-.000283,
-.014994,-.000959,
-.01476,-.001604,
-.014418,-.002199,
-.013977,-.002725,
-.01397,-.00273,
-.00273,-.01397,
-.002206,-.014413,
-.001612,-.014757,
-.000968,-.014992,
-.000292,-.015112,
.000394,-.015113,
.00107,-.014995,
.001715,-.014761,
.00231,-.014419,
.002836,-.013979,
.00284,-.01397,
.01397,-.00284,
.014414,-.002317,
.014758,-.001723,
.014993,-.001079,
.015113,-.000403,
.015113,.000283,
.014994,.000959,
.01476,.001604,
.014418,.002199,
.013977,.002725,
.01397,.00273,
.00273,.01397,
.002206,.014413,
.001612,.014757,
.000968,.014992,
.000292,.015112,
-.000394,.015113,
-.00107,.014995,
-.001715,.014761,
-.00231,.014419,
-.002836,.013979,
-.00284,.01397,
0.0*
%
%ADD24MACRO24*%
%AMMACRO21*
4,1,44,.01397,.00284,
.00284,.01397,
.002317,.014414,
.001723,.014758,
.001079,.014993,
.000403,.015113,
-.000283,.015113,
-.000959,.014994,
-.001604,.01476,
-.002199,.014418,
-.002725,.013977,
-.00273,.01397,
-.01397,.00273,
-.014413,.002206,
-.014757,.001612,
-.014992,.000968,
-.015112,.000292,
-.015113,-.000394,
-.014995,-.00107,
-.014761,-.001715,
-.014419,-.00231,
-.013979,-.002836,
-.01397,-.00284,
-.00284,-.01397,
-.002317,-.014414,
-.001723,-.014758,
-.001079,-.014993,
-.000403,-.015113,
.000283,-.015113,
.000959,-.014994,
.001604,-.01476,
.002199,-.014418,
.002725,-.013977,
.00273,-.01397,
.01397,-.00273,
.014413,-.002206,
.014757,-.001612,
.014992,-.000968,
.015112,-.000292,
.015113,.000394,
.014995,.00107,
.014761,.001715,
.014419,.00231,
.013979,.002836,
.01397,.00284,
0.0*
%
%ADD21MACRO21*%
%AMMACRO13*
4,1,44,-.01189,.00787,
-.01189,-.00787,
-.011831,-.008554,
-.011654,-.009217,
-.011364,-.009839,
-.010971,-.010401,
-.010486,-.010887,
-.009924,-.011281,
-.009303,-.011571,
-.00864,-.01175,
-.007957,-.01181,
-.00795,-.01181,
.00795,-.01181,
.008634,-.011751,
.009297,-.011574,
.009919,-.011284,
.010481,-.010891,
.010967,-.010406,
.011361,-.009844,
.011651,-.009223,
.01183,-.00856,
.01189,-.007877,
.01189,-.00787,
.01189,.00787,
.011831,.008554,
.011654,.009217,
.011364,.009839,
.010971,.010401,
.010486,.010887,
.009924,.011281,
.009303,.011571,
.00864,.01175,
.007957,.01181,
.00795,.01181,
-.00795,.01181,
-.008634,.011751,
-.009297,.011574,
-.009919,.011284,
-.010481,.010891,
-.010967,.010406,
-.011361,.009844,
-.011651,.009223,
-.01183,.00856,
-.01189,.007877,
-.01189,.00787,
0.0*
%
%ADD13MACRO13*%
%AMMACRO10*
4,1,44,.00787,.01189,
-.00787,.01189,
-.008554,.011831,
-.009217,.011654,
-.009839,.011364,
-.010401,.010971,
-.010887,.010486,
-.011281,.009924,
-.011571,.009303,
-.01175,.00864,
-.01181,.007957,
-.01181,.00795,
-.01181,-.00795,
-.011751,-.008634,
-.011574,-.009297,
-.011284,-.009919,
-.010891,-.010481,
-.010406,-.010967,
-.009844,-.011361,
-.009223,-.011651,
-.00856,-.01183,
-.007877,-.01189,
-.00787,-.01189,
.00787,-.01189,
.008554,-.011831,
.009217,-.011654,
.009839,-.011364,
.010401,-.010971,
.010887,-.010486,
.011281,-.009924,
.011571,-.009303,
.01175,-.00864,
.01181,-.007957,
.01181,-.00795,
.01181,.00795,
.011751,.008634,
.011574,.009297,
.011284,.009919,
.010891,.010481,
.010406,.010967,
.009844,.011361,
.009223,.011651,
.00856,.01183,
.007877,.01189,
.00787,.01189,
0.0*
%
%ADD10MACRO10*%
%ADD11R,.05906X.05906*%
%AMMACRO52*
4,1,44,-.06516,.02756,
-.06516,-.02756,
-.0651,-.028244,
-.064923,-.028907,
-.064633,-.02953,
-.064239,-.030092,
-.063754,-.030578,
-.063191,-.030972,
-.062569,-.031262,
-.061906,-.03144,
-.061222,-.0315,
-.06122,-.0315,
.06122,-.0315,
.061904,-.03144,
.062567,-.031263,
.06319,-.030973,
.063752,-.030579,
.064238,-.030094,
.064632,-.029531,
.064922,-.028909,
.0651,-.028246,
.06516,-.027562,
.06516,-.02756,
.06516,.02756,
.0651,.028244,
.064923,.028907,
.064633,.02953,
.064239,.030092,
.063754,.030578,
.063191,.030972,
.062569,.031262,
.061906,.03144,
.061222,.0315,
.06122,.0315,
-.06122,.0315,
-.061904,.03144,
-.062567,.031263,
-.06319,.030973,
-.063752,.030579,
-.064238,.030094,
-.064632,.029531,
-.064922,.028909,
-.0651,.028246,
-.06516,.027562,
-.06516,.02756,
0.0*
%
%ADD52MACRO52*%
%AMMACRO49*
4,1,44,-.01181,.00689,
-.01181,-.00689,
-.011751,-.007574,
-.011573,-.008237,
-.011284,-.008859,
-.01089,-.009422,
-.010405,-.009907,
-.009843,-.010301,
-.009221,-.010592,
-.008558,-.01077,
-.007875,-.01083,
-.00787,-.01083,
.00787,-.01083,
.008554,-.010771,
.009217,-.010593,
.009839,-.010304,
.010402,-.00991,
.010887,-.009425,
.011281,-.008863,
.011572,-.008241,
.01175,-.007578,
.01181,-.006895,
.01181,-.00689,
.01181,.00689,
.011751,.007574,
.011573,.008237,
.011284,.008859,
.01089,.009422,
.010405,.009907,
.009843,.010301,
.009221,.010592,
.008558,.01077,
.007875,.01083,
.00787,.01083,
-.00787,.01083,
-.008554,.010771,
-.009217,.010593,
-.009839,.010304,
-.010402,.00991,
-.010887,.009425,
-.011281,.008863,
-.011572,.008241,
-.01175,.007578,
-.01181,.006895,
-.01181,.00689,
0.0*
%
%ADD49MACRO49*%
%AMMACRO32*
21,1,.03937,.07087,0.0,0.0,135.*%
%ADD32MACRO32*%
%AMMACRO57*
4,1,40,-.01476,.02362,
-.01476,-.02362,
-.014701,-.024304,
-.014524,-.024966,
-.014235,-.025589,
-.013842,-.026151,
-.013357,-.026637,
-.012795,-.027031,
-.012174,-.027321,
-.011511,-.0275,
-.01083,-.02756,
.01083,-.02756,
.011513,-.027499,
.012176,-.027321,
.012797,-.02703,
.013359,-.026635,
.013843,-.026149,
.014236,-.025587,
.014525,-.024964,
.014701,-.024301,
.01476,-.02362,
.01476,.02362,
.014701,.024304,
.014524,.024966,
.014235,.025589,
.013842,.026151,
.013357,.026637,
.012795,.027031,
.012174,.027321,
.011511,.0275,
.01083,.02756,
-.01083,.02756,
-.011513,.027499,
-.012176,.027321,
-.012797,.02703,
-.013359,.026635,
-.013843,.026149,
-.014236,.025587,
-.014525,.024964,
-.014701,.024301,
-.01476,.02362,
0.0*
%
%ADD57MACRO57*%
%AMMACRO46*
4,1,40,.02264,.01575,
-.02264,.01575,
-.023323,.015689,
-.023986,.015511,
-.024607,.01522,
-.025169,.014825,
-.025653,.014339,
-.026046,.013777,
-.026335,.013154,
-.026511,.012491,
-.02657,.01181,
-.02657,-.01181,
-.026511,-.012494,
-.026334,-.013156,
-.026045,-.013779,
-.025652,-.014341,
-.025167,-.014827,
-.024605,-.015221,
-.023984,-.015511,
-.023321,-.01569,
-.02264,-.01575,
.02264,-.01575,
.023323,-.015689,
.023986,-.015511,
.024607,-.01522,
.025169,-.014825,
.025653,-.014339,
.026046,-.013777,
.026335,-.013154,
.026511,-.012491,
.02657,-.01181,
.02657,.01181,
.026511,.012494,
.026334,.013156,
.026045,.013779,
.025652,.014341,
.025167,.014827,
.024605,.015221,
.023984,.015511,
.023321,.01569,
.02264,.01575,
0.0*
%
%ADD46MACRO46*%
%AMMACRO38*
4,1,40,-.01575,.02264,
-.01575,-.02264,
-.015689,-.023323,
-.015511,-.023986,
-.01522,-.024607,
-.014825,-.025169,
-.014339,-.025653,
-.013777,-.026046,
-.013154,-.026335,
-.012491,-.026511,
-.01181,-.02657,
.01181,-.02657,
.012494,-.026511,
.013156,-.026334,
.013779,-.026045,
.014341,-.025652,
.014827,-.025167,
.015221,-.024605,
.015511,-.023984,
.01569,-.023321,
.01575,-.02264,
.01575,.02264,
.015689,.023323,
.015511,.023986,
.01522,.024607,
.014825,.025169,
.014339,.025653,
.013777,.026046,
.013154,.026335,
.012491,.026511,
.01181,.02657,
-.01181,.02657,
-.012494,.026511,
-.013156,.026334,
-.013779,.026045,
-.014341,.025652,
-.014827,.025167,
-.015221,.024605,
-.015511,.023984,
-.01569,.023321,
-.01575,.02264,
0.0*
%
%ADD38MACRO38*%
%AMMACRO34*
4,1,40,-.02714,.00626,
.00626,-.02714,
.006788,-.027579,
.007382,-.027923,
.008026,-.028159,
.008701,-.028279,
.009387,-.02828,
.010063,-.028162,
.010708,-.027928,
.011303,-.027586,
.01183,-.02715,
.02715,-.01183,
.027588,-.011301,
.027929,-.010706,
.028163,-.010061,
.02828,-.009385,
.028279,-.008699,
.028158,-.008024,
.027922,-.007379,
.027577,-.006786,
.02714,-.00626,
-.00626,.02714,
-.006788,.027579,
-.007382,.027923,
-.008026,.028159,
-.008701,.028279,
-.009387,.02828,
-.010063,.028162,
-.010708,.027928,
-.011303,.027586,
-.01183,.02715,
-.02715,.01183,
-.027588,.011301,
-.027929,.010706,
-.028163,.010061,
-.02828,.009385,
-.028279,.008699,
-.028158,.008024,
-.027922,.007379,
-.027577,.006786,
-.02714,.00626,
0.0*
%
%ADD34MACRO34*%
%AMMACRO33*
4,1,40,.02714,-.00626,
-.00626,.02714,
-.006788,.027579,
-.007382,.027923,
-.008026,.028159,
-.008701,.028279,
-.009387,.02828,
-.010063,.028162,
-.010708,.027928,
-.011303,.027586,
-.01183,.02715,
-.02715,.01183,
-.027588,.011301,
-.027929,.010706,
-.028163,.010061,
-.02828,.009385,
-.028279,.008699,
-.028158,.008024,
-.027922,.007379,
-.027577,.006786,
-.02714,.00626,
.00626,-.02714,
.006788,-.027579,
.007382,-.027923,
.008026,-.028159,
.008701,-.028279,
.009387,-.02828,
.010063,-.028162,
.010708,-.027928,
.011303,-.027586,
.01183,-.02715,
.02715,-.01183,
.027588,-.011301,
.027929,-.010706,
.028163,-.010061,
.02828,-.009385,
.028279,-.008699,
.028158,-.008024,
.027922,-.007379,
.027577,-.006786,
.02714,-.00626,
0.0*
%
%ADD33MACRO33*%
%AMMACRO27*
4,1,40,.00626,.02714,
-.02714,-.00626,
-.027579,-.006788,
-.027923,-.007382,
-.028159,-.008026,
-.028279,-.008701,
-.02828,-.009387,
-.028162,-.010063,
-.027928,-.010708,
-.027586,-.011303,
-.02715,-.01183,
-.01183,-.02715,
-.011301,-.027588,
-.010706,-.027929,
-.010061,-.028163,
-.009385,-.02828,
-.008699,-.028279,
-.008024,-.028158,
-.007379,-.027922,
-.006786,-.027577,
-.00626,-.02714,
.02714,.00626,
.027579,.006788,
.027923,.007382,
.028159,.008026,
.028279,.008701,
.02828,.009387,
.028162,.010063,
.027928,.010708,
.027586,.011303,
.02715,.01183,
.01183,.02715,
.011301,.027588,
.010706,.027929,
.010061,.028163,
.009385,.02828,
.008699,.028279,
.008024,.028158,
.007379,.027922,
.006786,.027577,
.00626,.02714,
0.0*
%
%ADD27MACRO27*%
%ADD55R,.0689X.12598*%
%AMMACRO62*
4,1,40,-.01673,.02264,
-.01673,-.02264,
-.016669,-.023323,
-.016491,-.023985,
-.016201,-.024607,
-.015806,-.025168,
-.015321,-.025652,
-.014759,-.026045,
-.014137,-.026334,
-.013474,-.026511,
-.0128,-.02657,
.0128,-.02657,
.013483,-.026509,
.014145,-.026331,
.014767,-.026041,
.015328,-.025646,
.015812,-.025161,
.016205,-.024599,
.016494,-.023977,
.016671,-.023314,
.01673,-.02264,
.01673,.02264,
.016669,.023323,
.016491,.023985,
.016201,.024607,
.015806,.025168,
.015321,.025652,
.014759,.026045,
.014137,.026334,
.013474,.026511,
.0128,.02657,
-.0128,.02657,
-.013483,.026509,
-.014145,.026331,
-.014767,.026041,
-.015328,.025646,
-.015812,.025161,
-.016205,.024599,
-.016494,.023977,
-.016671,.023314,
-.01673,.02264,
0.0*
%
%ADD62MACRO62*%
%AMMACRO26*
4,1,40,.00697,.02784,
-.02784,-.00697,
-.028282,-.007495,
-.028623,-.008089,
-.028856,-.008734,
-.028974,-.00941,
-.028972,-.010096,
-.028852,-.010771,
-.028615,-.011415,
-.028271,-.012008,
-.02784,-.01252,
-.01252,-.02784,
-.011995,-.028281,
-.0114,-.028622,
-.010755,-.028856,
-.010079,-.028974,
-.009394,-.028972,
-.008718,-.028852,
-.008074,-.028616,
-.007481,-.028272,
-.00697,-.02784,
.02784,.00697,
.028282,.007495,
.028623,.008089,
.028856,.008734,
.028974,.00941,
.028972,.010096,
.028852,.010771,
.028615,.011415,
.028271,.012008,
.02784,.01252,
.01252,.02784,
.011995,.028281,
.0114,.028622,
.010755,.028856,
.010079,.028974,
.009394,.028972,
.008718,.028852,
.008074,.028616,
.007481,.028272,
.00697,.02784,
0.0*
%
%ADD26MACRO26*%
%AMMACRO18*
4,1,44,-.0128,.01476,
-.0128,-.01476,
-.01274,-.015444,
-.012563,-.016107,
-.012273,-.016729,
-.01188,-.017292,
-.011394,-.017778,
-.010832,-.018172,
-.01021,-.018462,
-.009547,-.01864,
-.008863,-.0187,
-.00886,-.0187,
.00886,-.0187,
.009544,-.01864,
.010207,-.018463,
.010829,-.018173,
.011392,-.01778,
.011878,-.017294,
.012272,-.016732,
.012562,-.01611,
.01274,-.015447,
.0128,-.014763,
.0128,-.01476,
.0128,.01476,
.01274,.015444,
.012563,.016107,
.012273,.016729,
.01188,.017292,
.011394,.017778,
.010832,.018172,
.01021,.018462,
.009547,.01864,
.008863,.0187,
.00886,.0187,
-.00886,.0187,
-.009544,.01864,
-.010207,.018463,
-.010829,.018173,
-.011392,.01778,
-.011878,.017294,
-.012272,.016732,
-.012562,.01611,
-.01274,.015447,
-.0128,.014763,
-.0128,.01476,
0.0*
%
%ADD18MACRO18*%
%AMMACRO41*
4,1,40,-.01673,.04823,
-.01673,-.04823,
-.016671,-.048914,
-.016493,-.049577,
-.016204,-.050199,
-.01581,-.050762,
-.015325,-.051247,
-.014763,-.051641,
-.014141,-.051932,
-.013478,-.05211,
-.0128,-.05217,
.0128,-.05217,
.013484,-.052109,
.014146,-.05193,
.014768,-.051639,
.015329,-.051244,
.015814,-.050757,
.016206,-.050194,
.016495,-.049572,
.016672,-.048908,
.01673,-.04823,
.01673,.04823,
.016671,.048914,
.016493,.049577,
.016204,.050199,
.01581,.050762,
.015325,.051247,
.014763,.051641,
.014141,.051932,
.013478,.05211,
.0128,.05217,
-.0128,.05217,
-.013484,.052109,
-.014146,.05193,
-.014768,.051639,
-.015329,.051244,
-.015814,.050757,
-.016206,.050194,
-.016495,.049572,
-.016672,.048908,
-.01673,.04823,
0.0*
%
%ADD41MACRO41*%
%ADD59R,.072X.04*%
%ADD17R,.02362X.03543*%
%ADD47R,.05512X.04724*%
%AMMACRO20*
21,1,.04724,.05512,0.0,0.0,45.*%
%ADD20MACRO20*%
%ADD51R,.06004X.02559*%
%AMMACRO23*
21,1,.01181,.05807,0.0,0.0,45.*%
%ADD23MACRO23*%
%ADD40R,.02559X.06004*%
%ADD36R,.02953X.02362*%
%ADD29R,.03346X.01378*%
%ADD60R,.0689X.0374*%
%ADD53R,.05799X.01402*%
%ADD14R,.05807X.01772*%
%ADD50R,.06693X.05118*%
%ADD54R,.05118X.06693*%
%AMMACRO31*
4,1,44,.00284,-.01397,
.01397,-.00284,
.014414,-.002317,
.014758,-.001723,
.014993,-.001079,
.015113,-.000403,
.015113,.000283,
.014994,.000959,
.01476,.001604,
.014418,.002199,
.013977,.002725,
.01397,.00273,
.00273,.01397,
.002206,.014413,
.001612,.014757,
.000968,.014992,
.000292,.015112,
-.000394,.015113,
-.00107,.014995,
-.001715,.014761,
-.00231,.014419,
-.002836,.013979,
-.00284,.01397,
-.01397,.00284,
-.014414,.002317,
-.014758,.001723,
-.014993,.001079,
-.015113,.000403,
-.015113,-.000283,
-.014994,-.000959,
-.01476,-.001604,
-.014418,-.002199,
-.013977,-.002725,
-.01397,-.00273,
-.00273,-.01397,
-.002206,-.014413,
-.001612,-.014757,
-.000968,-.014992,
-.000292,-.015112,
.000394,-.015113,
.00107,-.014995,
.001715,-.014761,
.00231,-.014419,
.002836,-.013979,
.00284,-.01397,
0.0*
%
%ADD31MACRO31*%
%AMMACRO16*
4,1,44,.01189,-.00787,
.01189,.00787,
.011831,.008554,
.011654,.009217,
.011364,.009839,
.010971,.010401,
.010486,.010887,
.009924,.011281,
.009303,.011571,
.00864,.01175,
.007957,.01181,
.00795,.01181,
-.00795,.01181,
-.008634,.011751,
-.009297,.011574,
-.009919,.011284,
-.010481,.010891,
-.010967,.010406,
-.011361,.009844,
-.011651,.009223,
-.01183,.00856,
-.01189,.007877,
-.01189,.00787,
-.01189,-.00787,
-.011831,-.008554,
-.011654,-.009217,
-.011364,-.009839,
-.010971,-.010401,
-.010486,-.010887,
-.009924,-.011281,
-.009303,-.011571,
-.00864,-.01175,
-.007957,-.01181,
-.00795,-.01181,
.00795,-.01181,
.008634,-.011751,
.009297,-.011574,
.009919,-.011284,
.010481,-.010891,
.010967,-.010406,
.011361,-.009844,
.011651,-.009223,
.01183,-.00856,
.01189,-.007877,
.01189,-.00787,
0.0*
%
%ADD16MACRO16*%
%AMMACRO44*
4,1,44,-.00787,-.01189,
.00787,-.01189,
.008554,-.011831,
.009217,-.011654,
.009839,-.011364,
.010401,-.010971,
.010887,-.010486,
.011281,-.009924,
.011571,-.009303,
.01175,-.00864,
.01181,-.007957,
.01181,-.00795,
.01181,.00795,
.011751,.008634,
.011574,.009297,
.011284,.009919,
.010891,.010481,
.010406,.010967,
.009844,.011361,
.009223,.011651,
.00856,.01183,
.007877,.01189,
.00787,.01189,
-.00787,.01189,
-.008554,.011831,
-.009217,.011654,
-.009839,.011364,
-.010401,.010971,
-.010887,.010486,
-.011281,.009924,
-.011571,.009303,
-.01175,.00864,
-.01181,.007957,
-.01181,.00795,
-.01181,-.00795,
-.011751,-.008634,
-.011574,-.009297,
-.011284,-.009919,
-.010891,-.010481,
-.010406,-.010967,
-.009844,-.011361,
-.009223,-.011651,
-.00856,-.01183,
-.007877,-.01189,
-.00787,-.01189,
0.0*
%
%ADD44MACRO44*%
%AMMACRO58*
4,1,44,.06516,-.02756,
.06516,.02756,
.0651,.028244,
.064923,.028907,
.064633,.02953,
.064239,.030092,
.063754,.030578,
.063191,.030972,
.062569,.031262,
.061906,.03144,
.061222,.0315,
.06122,.0315,
-.06122,.0315,
-.061904,.03144,
-.062567,.031263,
-.06319,.030973,
-.063752,.030579,
-.064238,.030094,
-.064632,.029531,
-.064922,.028909,
-.0651,.028246,
-.06516,.027562,
-.06516,.02756,
-.06516,-.02756,
-.0651,-.028244,
-.064923,-.028907,
-.064633,-.02953,
-.064239,-.030092,
-.063754,-.030578,
-.063191,-.030972,
-.062569,-.031262,
-.061906,-.03144,
-.061222,-.0315,
-.06122,-.0315,
.06122,-.0315,
.061904,-.03144,
.062567,-.031263,
.06319,-.030973,
.063752,-.030579,
.064238,-.030094,
.064632,-.029531,
.064922,-.028909,
.0651,-.028246,
.06516,-.027562,
.06516,-.02756,
0.0*
%
%ADD58MACRO58*%
%ADD30R,.06614X.09843*%
%AMMACRO28*
21,1,.27559,.27559,0.0,0.0,45.*%
%ADD28MACRO28*%
%AMMACRO48*
4,1,44,.01181,-.00689,
.01181,.00689,
.011751,.007574,
.011573,.008237,
.011284,.008859,
.01089,.009422,
.010405,.009907,
.009843,.010301,
.009221,.010592,
.008558,.01077,
.007875,.01083,
.00787,.01083,
-.00787,.01083,
-.008554,.010771,
-.009217,.010593,
-.009839,.010304,
-.010402,.00991,
-.010887,.009425,
-.011281,.008863,
-.011572,.008241,
-.01175,.007578,
-.01181,.006895,
-.01181,.00689,
-.01181,-.00689,
-.011751,-.007574,
-.011573,-.008237,
-.011284,-.008859,
-.01089,-.009422,
-.010405,-.009907,
-.009843,-.010301,
-.009221,-.010592,
-.008558,-.01077,
-.007875,-.01083,
-.00787,-.01083,
.00787,-.01083,
.008554,-.010771,
.009217,-.010593,
.009839,-.010304,
.010402,-.00991,
.010887,-.009425,
.011281,-.008863,
.011572,-.008241,
.01175,-.007578,
.01181,-.006895,
.01181,-.00689,
0.0*
%
%ADD48MACRO48*%
%AMMACRO45*
4,1,44,-.00689,-.01181,
.00689,-.01181,
.007574,-.011751,
.008237,-.011573,
.008859,-.011284,
.009422,-.01089,
.009907,-.010405,
.010301,-.009843,
.010592,-.009221,
.01077,-.008558,
.01083,-.007875,
.01083,-.00787,
.01083,.00787,
.010771,.008554,
.010593,.009217,
.010304,.009839,
.00991,.010402,
.009425,.010887,
.008863,.011281,
.008241,.011572,
.007578,.01175,
.006895,.01181,
.00689,.01181,
-.00689,.01181,
-.007574,.011751,
-.008237,.011573,
-.008859,.011284,
-.009422,.01089,
-.009907,.010405,
-.010301,.009843,
-.010592,.009221,
-.01077,.008558,
-.01083,.007875,
-.01083,.00787,
-.01083,-.00787,
-.010771,-.008554,
-.010593,-.009217,
-.010304,-.009839,
-.00991,-.010402,
-.009425,-.010887,
-.008863,-.011281,
-.008241,-.011572,
-.007578,-.01175,
-.006895,-.01181,
-.00689,-.01181,
0.0*
%
%ADD45MACRO45*%
%AMMACRO43*
4,1,40,.01575,-.02264,
.01575,.02264,
.015689,.023323,
.015511,.023986,
.01522,.024607,
.014825,.025169,
.014339,.025653,
.013777,.026046,
.013154,.026335,
.012491,.026511,
.01181,.02657,
-.01181,.02657,
-.012494,.026511,
-.013156,.026334,
-.013779,.026045,
-.014341,.025652,
-.014827,.025167,
-.015221,.024605,
-.015511,.023984,
-.01569,.023321,
-.01575,.02264,
-.01575,-.02264,
-.015689,-.023323,
-.015511,-.023986,
-.01522,-.024607,
-.014825,-.025169,
-.014339,-.025653,
-.013777,-.026046,
-.013154,-.026335,
-.012491,-.026511,
-.01181,-.02657,
.01181,-.02657,
.012494,-.026511,
.013156,-.026334,
.013779,-.026045,
.014341,-.025652,
.014827,-.025167,
.015221,-.024605,
.015511,-.023984,
.01569,-.023321,
.01575,-.02264,
0.0*
%
%ADD43MACRO43*%
%AMMACRO39*
4,1,40,.01476,-.02362,
.01476,.02362,
.014701,.024304,
.014524,.024966,
.014235,.025589,
.013842,.026151,
.013357,.026637,
.012795,.027031,
.012174,.027321,
.011511,.0275,
.01083,.02756,
-.01083,.02756,
-.011513,.027499,
-.012176,.027321,
-.012797,.02703,
-.013359,.026635,
-.013843,.026149,
-.014236,.025587,
-.014525,.024964,
-.014701,.024301,
-.01476,.02362,
-.01476,-.02362,
-.014701,-.024304,
-.014524,-.024966,
-.014235,-.025589,
-.013842,-.026151,
-.013357,-.026637,
-.012795,-.027031,
-.012174,-.027321,
-.011511,-.0275,
-.01083,-.02756,
.01083,-.02756,
.011513,-.027499,
.012176,-.027321,
.012797,-.02703,
.013359,-.026635,
.013843,-.026149,
.014236,-.025587,
.014525,-.024964,
.014701,-.024301,
.01476,-.02362,
0.0*
%
%ADD39MACRO39*%
%AMMACRO56*
4,1,40,-.02264,-.01575,
.02264,-.01575,
.023323,-.015689,
.023986,-.015511,
.024607,-.01522,
.025169,-.014825,
.025653,-.014339,
.026046,-.013777,
.026335,-.013154,
.026511,-.012491,
.02657,-.01181,
.02657,.01181,
.026511,.012494,
.026334,.013156,
.026045,.013779,
.025652,.014341,
.025167,.014827,
.024605,.015221,
.023984,.015511,
.023321,.01569,
.02264,.01575,
-.02264,.01575,
-.023323,.015689,
-.023986,.015511,
-.024607,.01522,
-.025169,.014825,
-.025653,.014339,
-.026046,.013777,
-.026335,.013154,
-.026511,.012491,
-.02657,.01181,
-.02657,-.01181,
-.026511,-.012494,
-.026334,-.013156,
-.026045,-.013779,
-.025652,-.014341,
-.025167,-.014827,
-.024605,-.015221,
-.023984,-.015511,
-.023321,-.01569,
-.02264,-.01575,
0.0*
%
%ADD56MACRO56*%
%AMMACRO42*
4,1,40,.01673,-.02264,
.01673,.02264,
.016669,.023323,
.016491,.023985,
.016201,.024607,
.015806,.025168,
.015321,.025652,
.014759,.026045,
.014137,.026334,
.013474,.026511,
.0128,.02657,
-.0128,.02657,
-.013483,.026509,
-.014145,.026331,
-.014767,.026041,
-.015328,.025646,
-.015812,.025161,
-.016205,.024599,
-.016494,.023977,
-.016671,.023314,
-.01673,.02264,
-.01673,-.02264,
-.016669,-.023323,
-.016491,-.023985,
-.016201,-.024607,
-.015806,-.025168,
-.015321,-.025652,
-.014759,-.026045,
-.014137,-.026334,
-.013474,-.026511,
-.0128,-.02657,
.0128,-.02657,
.013483,-.026509,
.014145,-.026331,
.014767,-.026041,
.015328,-.025646,
.015812,-.025161,
.016205,-.024599,
.016494,-.023977,
.016671,-.023314,
.01673,-.02264,
0.0*
%
%ADD42MACRO42*%
%LPD*%
G75*
G54D10*
X-219348Y-116637D03*
Y-112227D03*
X-219660Y-107769D03*
Y-103359D03*
X-170340Y-106017D03*
Y-101607D03*
X-66732Y-136389D03*
Y-131979D03*
X146064Y75111D03*
Y79521D03*
X152640Y75147D03*
Y79557D03*
G54D20*
X-134701Y-39081D03*
X-129384Y-33763D03*
X-128021Y-45761D03*
X-122703Y-40444D03*
G54D11*
X-219964Y-66686D03*
Y-48970D03*
X-188468Y-66686D03*
Y-48970D03*
G54D30*
X-52932Y-135168D03*
G54D21*
X-136187Y-27179D03*
X-133069Y-24061D03*
G54D12*
X-221205Y93862D03*
X-214811D03*
X-207658Y93992D03*
X-201264D03*
G54D31*
X-53747Y60476D03*
X-47310Y54110D03*
X-50629Y57358D03*
X-44192Y50992D03*
X-39515Y-31657D03*
X-36397Y-34775D03*
X-38087Y-26785D03*
X-34969Y-29903D03*
G54D40*
X50985Y-166551D03*
Y-145213D03*
X55945Y-166551D03*
Y-145213D03*
X60985Y-166551D03*
Y-145213D03*
X65945Y-166551D03*
Y-145213D03*
X88957Y-166043D03*
Y-144705D03*
X93917Y-166043D03*
Y-144705D03*
X98957Y-166043D03*
Y-144705D03*
X103917Y-166043D03*
Y-144705D03*
G54D13*
X-211545Y-105912D03*
X-210441Y-116532D03*
X-207135Y-105912D03*
X-206031Y-116532D03*
X-55768Y-173657D03*
X-52761Y-145164D03*
X-51358Y-173657D03*
X-48351Y-145164D03*
X117363Y15960D03*
X121773D03*
X130827Y24300D03*
X135237D03*
X158118Y85394D03*
X162528D03*
G54D22*
X-130368Y4678D03*
X-131761Y6071D03*
X-126193Y503D03*
X-127585Y1894D03*
X-128977Y3287D03*
X-123409Y-2281D03*
X-124801Y-890D03*
X-119233Y-6457D03*
X-120625Y-5065D03*
X-122017Y-3673D03*
X-115057Y-10633D03*
X-116449Y-9241D03*
X-117841Y-7849D03*
X-110881Y-14809D03*
X-112274Y-13417D03*
X-113665Y-12025D03*
X-106706Y-18984D03*
X-108097Y-17593D03*
X-109490Y-16201D03*
X-102530Y-23161D03*
X-103922Y-21768D03*
X-105314Y-20377D03*
X-98354Y-27336D03*
X-99746Y-25944D03*
X-101138Y-24552D03*
X-95570Y-30120D03*
X-96962Y-28728D03*
X-91394Y-34296D03*
X-92786Y-32904D03*
X-94178Y-31512D03*
X-87219Y-38472D03*
X-88610Y-37080D03*
X-90003Y-35688D03*
X-83042Y-42648D03*
X-84435Y-41255D03*
X-85826Y-39864D03*
X-70571Y64475D03*
X-71964Y65868D03*
X-69180Y63084D03*
X-67787Y61692D03*
X-66396Y60300D03*
X-65003Y58908D03*
X-63612Y57516D03*
X-62220Y56124D03*
X-60828Y54732D03*
X-59436Y53340D03*
X-58044Y51948D03*
X-56652Y50556D03*
X-55260Y49164D03*
X-53868Y47772D03*
X-52476Y46381D03*
X-51084Y44988D03*
X-49692Y43597D03*
X-48300Y42204D03*
X-46909Y40813D03*
X-42732Y36637D03*
X-45516Y39421D03*
X-44125Y38029D03*
X-41341Y35245D03*
X-39949Y33853D03*
X-38557Y32461D03*
X-37165Y31069D03*
X-35773Y29677D03*
X-34381Y28285D03*
X-32989Y26893D03*
X-31597Y25501D03*
X-30205Y24110D03*
X-28813Y22717D03*
X-27421Y21326D03*
X-26029Y19933D03*
X-24638Y18542D03*
X-23245Y17149D03*
G54D50*
X109849Y23160D03*
X120479D03*
G54D14*
X-199675Y-121392D03*
Y-118794D03*
Y-116274D03*
Y-113676D03*
Y-111156D03*
Y-108558D03*
Y-106038D03*
Y-103440D03*
X-176525Y-121392D03*
Y-116274D03*
Y-118794D03*
Y-113676D03*
Y-108558D03*
Y-111156D03*
Y-106038D03*
Y-103440D03*
G54D23*
X-131761Y17149D03*
X-130368Y18542D03*
X-128977Y19933D03*
X-127585Y21326D03*
X-126193Y22717D03*
X-124801Y24110D03*
X-123409Y25501D03*
X-122017Y26893D03*
X-120625Y28285D03*
X-119233Y29677D03*
X-117841Y31069D03*
X-116449Y32461D03*
X-115057Y33853D03*
X-113665Y35245D03*
X-112274Y36637D03*
X-110881Y38029D03*
X-109490Y39421D03*
X-108097Y40813D03*
X-106706Y42204D03*
X-105314Y43597D03*
X-103922Y44988D03*
X-102530Y46381D03*
X-101138Y47772D03*
X-99746Y49164D03*
X-98354Y50556D03*
X-96962Y51948D03*
X-95570Y53340D03*
X-94178Y54732D03*
X-92786Y56124D03*
X-91394Y57516D03*
X-90003Y58908D03*
X-88610Y60300D03*
X-87219Y61692D03*
X-85826Y63084D03*
X-84435Y64475D03*
X-83042Y65868D03*
X-70571Y-41255D03*
X-71964Y-42648D03*
X-69180Y-39864D03*
X-67787Y-38472D03*
X-65003Y-35688D03*
X-66396Y-37080D03*
X-63612Y-34296D03*
X-60828Y-31512D03*
X-62220Y-32904D03*
X-59436Y-30120D03*
X-56652Y-27336D03*
X-58044Y-28728D03*
X-55260Y-25944D03*
X-52476Y-23161D03*
X-53868Y-24552D03*
X-51084Y-21768D03*
X-48300Y-18984D03*
X-49692Y-20377D03*
X-46909Y-17593D03*
X-45516Y-16201D03*
X-42732Y-13417D03*
X-44125Y-14809D03*
X-41341Y-12025D03*
X-39949Y-10633D03*
X-37165Y-7849D03*
X-38557Y-9241D03*
X-35773Y-6457D03*
X-32989Y-3673D03*
X-34381Y-5065D03*
X-31597Y-2281D03*
X-28813Y503D03*
X-30205Y-890D03*
X-27421Y1894D03*
X-24638Y4678D03*
X-26029Y3287D03*
X-23245Y6071D03*
G54D41*
X52189Y-177697D03*
X64197D03*
G54D32*
X-46231Y68397D03*
X-39271Y61437D03*
G54D42*
X53742Y-85716D03*
X61026D03*
G54D60*
X172710Y-104357D03*
G54D51*
X114634Y60800D03*
Y65760D03*
Y70800D03*
Y75760D03*
X135972Y60800D03*
Y65760D03*
Y70800D03*
Y75760D03*
G54D33*
X-30195Y50937D03*
X-24765Y56367D03*
G54D24*
X-130967Y42851D03*
X-127849Y39733D03*
X-127667Y46091D03*
X-124549Y42973D03*
X-107269Y58693D03*
X-110387Y61811D03*
G54D15*
X-198156Y42499D03*
Y48893D03*
X54744Y-78569D03*
Y-72175D03*
G54D43*
X70315Y-177319D03*
X77795D03*
X100575Y46665D03*
X108055D03*
X191496Y-58311D03*
X198976D03*
G54D16*
X-197673Y-77556D03*
X-193263D03*
X-15369Y-171456D03*
X-10959D03*
X104955Y40644D03*
X109365D03*
X130239Y81552D03*
X134649D03*
X134697Y86575D03*
X139107D03*
G54D34*
X-23631Y44037D03*
X-18201Y49467D03*
G54D52*
X125803Y-82920D03*
X146237D03*
X164539Y-78047D03*
X184973D03*
X202381Y-39531D03*
X202464Y-8846D03*
X222815Y-39531D03*
X222898Y-8846D03*
G54D25*
X-126743Y-23183D03*
X-123625Y-20065D03*
X-120035Y-29699D03*
X-116917Y-26581D03*
X-117275Y61585D03*
X-114157Y64703D03*
X-40625Y47862D03*
X-36869Y44236D03*
X-37507Y50980D03*
X-33751Y47354D03*
X-16607Y82429D03*
X-13489Y85547D03*
G54D61*
X181606Y102122D03*
Y120232D03*
G54D44*
X71894Y-168988D03*
Y-164578D03*
X110031Y-166343D03*
Y-161933D03*
X148668Y-27069D03*
Y-22659D03*
X153336Y-27069D03*
Y-22659D03*
G54D53*
X130170Y-14736D03*
Y-12216D03*
Y-9618D03*
Y-7138D03*
Y-4539D03*
Y-1941D03*
Y579D03*
Y3177D03*
Y5697D03*
Y8295D03*
Y10894D03*
Y13374D03*
Y15972D03*
Y18492D03*
X152374Y-14736D03*
Y-9618D03*
Y-12216D03*
Y-7138D03*
Y-1941D03*
Y-4539D03*
Y3177D03*
Y579D03*
Y5697D03*
Y10894D03*
Y8295D03*
Y13374D03*
Y18492D03*
Y15972D03*
G54D17*
X-193784Y90873D03*
Y97959D03*
X-187485Y90873D03*
X-190635D03*
Y97959D03*
X-187485D03*
X-184336Y90873D03*
Y97959D03*
X-176576Y91077D03*
Y98163D03*
X-173427Y91077D03*
Y98163D03*
X-167128Y91077D03*
X-170277D03*
Y98163D03*
X-167128D03*
X31216Y85725D03*
Y92811D03*
X34365Y85725D03*
Y92811D03*
X37515Y85725D03*
Y92811D03*
X40664Y85725D03*
Y92811D03*
X53176Y85725D03*
Y92811D03*
X56325Y85725D03*
Y92811D03*
X62624Y85725D03*
X59475D03*
Y92811D03*
X62624D03*
X73456Y85389D03*
Y92475D03*
X76605Y85389D03*
Y92475D03*
X82904Y85389D03*
X79755D03*
Y92475D03*
X82904D03*
X143859Y84095D03*
Y91181D03*
X150158Y84095D03*
X147008D03*
Y91181D03*
X150158D03*
X153307Y84095D03*
Y91181D03*
G54D26*
X-125079Y71307D03*
X-119649Y65877D03*
X-118623Y77679D03*
X-113193Y72249D03*
G54D62*
X191444Y-131900D03*
X198728D03*
G54D35*
X-22325Y68197D03*
X-18818Y64690D03*
X-15254Y61126D03*
X-11747Y57619D03*
X-7237Y83285D03*
X-3730Y79778D03*
X-166Y76214D03*
X3341Y72707D03*
G54D45*
X77067Y21882D03*
Y26212D03*
G54D54*
X130032Y31153D03*
Y41783D03*
G54D36*
X-11021Y-176328D03*
X-6691D03*
X90847Y45295D03*
X95177D03*
G54D18*
X-188429Y-77556D03*
X-182035D03*
G54D27*
X-108651Y68751D03*
X-103221Y63321D03*
G54D28*
X-77503Y11610D03*
G54D55*
X147906Y-113412D03*
X163689Y-8232D03*
X199570Y-78047D03*
G54D46*
X81216Y-169484D03*
Y-162004D03*
X111756Y-154827D03*
Y-147347D03*
X159336Y9052D03*
Y16532D03*
G54D19*
X-142867Y-33955D03*
X-139805Y-30893D03*
G54D37*
X25441Y-61748D03*
Y-57811D03*
Y-53874D03*
Y-49937D03*
Y-46000D03*
Y-42063D03*
Y-38126D03*
Y-34189D03*
Y-30251D03*
Y-26314D03*
Y-22377D03*
Y-18440D03*
Y-14503D03*
Y-10566D03*
Y-6629D03*
Y-2692D03*
X29378Y-61748D03*
Y-57811D03*
Y-53874D03*
Y-49937D03*
Y-46000D03*
Y-42063D03*
Y-38126D03*
Y-34189D03*
Y-30251D03*
Y-26314D03*
Y-22377D03*
Y-18440D03*
Y-14503D03*
Y-10566D03*
Y-6629D03*
Y-2692D03*
X33315Y-61748D03*
Y-57811D03*
Y-53874D03*
Y-49937D03*
Y-46000D03*
Y-42063D03*
Y-38126D03*
Y-34189D03*
Y-30251D03*
Y-26314D03*
Y-22377D03*
Y-18440D03*
Y-14503D03*
Y-10566D03*
Y-6629D03*
Y-2692D03*
X37252Y-61748D03*
Y-57811D03*
Y-53874D03*
Y-49937D03*
Y-46000D03*
Y-42063D03*
Y-38126D03*
Y-34189D03*
Y-30251D03*
Y-26314D03*
Y-22377D03*
Y-18440D03*
Y-14503D03*
Y-10566D03*
Y-6629D03*
Y-2692D03*
X41189Y-61748D03*
Y-57811D03*
Y-53874D03*
Y-49937D03*
Y-46000D03*
Y-42063D03*
Y-38126D03*
Y-34189D03*
Y-30251D03*
Y-26314D03*
Y-22377D03*
Y-18440D03*
Y-14503D03*
Y-10566D03*
Y-6629D03*
Y-2692D03*
X45126Y-61748D03*
Y-57811D03*
Y-53874D03*
Y-49937D03*
Y-46000D03*
Y-42063D03*
Y-38126D03*
Y-34189D03*
Y-30251D03*
Y-26314D03*
Y-22377D03*
Y-18440D03*
Y-14503D03*
Y-10566D03*
Y-6629D03*
Y-2692D03*
X49063Y-61748D03*
Y-57811D03*
Y-53874D03*
Y-49937D03*
Y-46000D03*
Y-42063D03*
Y-38126D03*
Y-34189D03*
Y-30251D03*
Y-26314D03*
Y-22377D03*
Y-18440D03*
Y-14503D03*
Y-10566D03*
Y-6629D03*
Y-2692D03*
X53000Y-61748D03*
Y-57811D03*
Y-53874D03*
Y-49937D03*
Y-46000D03*
Y-42063D03*
Y-38126D03*
Y-34189D03*
Y-30251D03*
Y-26314D03*
Y-22377D03*
Y-18440D03*
Y-14503D03*
Y-10566D03*
Y-6629D03*
Y-2692D03*
X56938Y-61748D03*
Y-57811D03*
Y-53874D03*
Y-49937D03*
Y-46000D03*
Y-42063D03*
Y-38126D03*
Y-34189D03*
Y-30251D03*
Y-26314D03*
Y-22377D03*
Y-18440D03*
Y-14503D03*
Y-10566D03*
Y-6629D03*
Y-2692D03*
X60875Y-61748D03*
Y-57811D03*
Y-53874D03*
Y-49937D03*
Y-46000D03*
Y-42063D03*
Y-38126D03*
Y-34189D03*
Y-30251D03*
Y-26314D03*
Y-22377D03*
Y-18440D03*
Y-14503D03*
Y-10566D03*
Y-6629D03*
Y-2692D03*
X64812Y-61748D03*
Y-57811D03*
Y-53874D03*
Y-49937D03*
Y-46000D03*
Y-42063D03*
Y-38126D03*
Y-34189D03*
Y-30251D03*
Y-26314D03*
Y-22377D03*
Y-18440D03*
Y-14503D03*
Y-10566D03*
Y-6629D03*
Y-2692D03*
X68749Y-61748D03*
Y-57811D03*
Y-53874D03*
Y-49937D03*
Y-46000D03*
Y-42063D03*
Y-38126D03*
Y-34189D03*
Y-30251D03*
Y-26314D03*
Y-22377D03*
Y-18440D03*
Y-14503D03*
Y-10566D03*
Y-6629D03*
Y-2692D03*
X72686Y-61748D03*
Y-57811D03*
Y-53874D03*
Y-49937D03*
Y-46000D03*
Y-42063D03*
Y-38126D03*
Y-34189D03*
Y-30251D03*
Y-26314D03*
Y-22377D03*
Y-18440D03*
Y-14503D03*
Y-10566D03*
Y-6629D03*
Y-2692D03*
X76623Y-61748D03*
Y-57811D03*
Y-53874D03*
Y-49937D03*
Y-46000D03*
Y-42063D03*
Y-38126D03*
Y-34189D03*
Y-30251D03*
Y-26314D03*
Y-22377D03*
Y-18440D03*
Y-14503D03*
Y-10566D03*
Y-6629D03*
Y-2692D03*
X80560Y-61748D03*
Y-57811D03*
Y-53874D03*
Y-49937D03*
Y-46000D03*
Y-42063D03*
Y-38126D03*
Y-34189D03*
Y-30251D03*
Y-26314D03*
Y-22377D03*
Y-18440D03*
Y-14503D03*
Y-10566D03*
Y-6629D03*
Y-2692D03*
X84497Y-61748D03*
Y-57811D03*
Y-53874D03*
Y-49937D03*
Y-46000D03*
Y-42063D03*
Y-38126D03*
Y-34189D03*
Y-30251D03*
Y-26314D03*
Y-22377D03*
Y-18440D03*
Y-14503D03*
Y-10566D03*
Y-6629D03*
Y-2692D03*
G54D56*
X151500Y-48320D03*
Y-40840D03*
X182700Y-115952D03*
Y-108472D03*
G54D29*
X-58641Y-139026D03*
Y-136428D03*
Y-133908D03*
Y-131310D03*
X-47223Y-136428D03*
Y-139026D03*
Y-133908D03*
Y-131310D03*
G54D47*
X86209Y26574D03*
Y34094D03*
X95657Y26574D03*
Y34094D03*
G54D38*
X38473Y-177567D03*
X45953D03*
X132484Y-64128D03*
X139964D03*
X178835Y12378D03*
X186315D03*
X212080Y-58860D03*
X219560D03*
G54D39*
X42626Y-131894D03*
X50304D03*
X63862D03*
X71540D03*
X82346Y-131646D03*
X90024D03*
X103582Y-131398D03*
X111260D03*
X175255Y-131900D03*
X182933D03*
G54D48*
X103910Y73335D03*
X108240D03*
G54D57*
X148228Y101835D03*
X155906D03*
G54D58*
X164161Y-38528D03*
X184595D03*
X195151Y-108744D03*
X215585D03*
G54D49*
X103083Y78378D03*
X107413D03*
G54D59*
X172710Y-122467D03*
Y-113412D03*
X188493Y-17287D03*
Y-8232D03*
Y823D03*
X224374Y-87102D03*
Y-78047D03*
Y-68992D03*
M02*
