G04 ================== begin FILE IDENTIFICATION RECORD ==================*
G04 Layout Name:  E:/Cadence/SPB_Data/control_board/control_board.brd*
G04 Film Name:    PASTEMASK_BOTTOM*
G04 File Format:  Gerber RS274X*
G04 File Origin:  Cadence Allegro 16.6-2015-S098*
G04 Origin Date:  Fri Dec 27 14:31:35 2019*
G04 *
G04 Layer:  VIA CLASS/PASTEMASK_BOTTOM*
G04 Layer:  PIN/PASTEMASK_BOTTOM*
G04 Layer:  PACKAGE GEOMETRY/PASTEMASK_BOTTOM*
G04 *
G04 Offset:    (0.00 0.00)*
G04 Mirror:    No*
G04 Mode:      Positive*
G04 Rotation:  0*
G04 FullContactRelief:  No*
G04 UndefLineWidth:     6.00*
G04 ================== end FILE IDENTIFICATION RECORD ====================*
%FSLAX35Y35*MOIN*%
%IR0*IPPOS*OFA0.00000B0.00000*MIA0B0*SFA1.00000B1.00000*%
%AMMACRO10*
4,1,44,.01476,-.0128,
-.01476,-.0128,
-.015444,-.01274,
-.016107,-.012563,
-.016729,-.012273,
-.017292,-.01188,
-.017778,-.011394,
-.018172,-.010832,
-.018462,-.01021,
-.01864,-.009547,
-.0187,-.008863,
-.0187,-.00886,
-.0187,.00886,
-.01864,.009544,
-.018463,.010207,
-.018173,.010829,
-.01778,.011392,
-.017294,.011878,
-.016732,.012272,
-.01611,.012562,
-.015447,.01274,
-.014763,.0128,
-.01476,.0128,
.01476,.0128,
.015444,.01274,
.016107,.012563,
.016729,.012273,
.017292,.01188,
.017778,.011394,
.018172,.010832,
.018462,.01021,
.01864,.009547,
.0187,.008863,
.0187,.00886,
.0187,-.00886,
.01864,-.009544,
.018463,-.010207,
.018173,-.010829,
.01778,-.011392,
.017294,-.011878,
.016732,-.012272,
.01611,-.012562,
.015447,-.01274,
.014763,-.0128,
.01476,-.0128,
0.0*
%
%ADD10MACRO10*%
%AMMACRO17*
4,1,44,-.00787,.01189,
.00787,.01189,
.008554,.011831,
.009217,.011654,
.009839,.011364,
.010401,.010971,
.010887,.010486,
.011281,.009924,
.011571,.009303,
.01175,.00864,
.01181,.007957,
.01181,.00795,
.01181,-.00795,
.011751,-.008634,
.011574,-.009297,
.011284,-.009919,
.010891,-.010481,
.010406,-.010967,
.009844,-.011361,
.009223,-.011651,
.00856,-.01183,
.007877,-.01189,
.00787,-.01189,
-.00787,-.01189,
-.008554,-.011831,
-.009217,-.011654,
-.009839,-.011364,
-.010401,-.010971,
-.010887,-.010486,
-.011281,-.009924,
-.011571,-.009303,
-.01175,-.00864,
-.01181,-.007957,
-.01181,-.00795,
-.01181,.00795,
-.011751,.008634,
-.011574,.009297,
-.011284,.009919,
-.010891,.010481,
-.010406,.010967,
-.009844,.011361,
-.009223,.011651,
-.00856,.01183,
-.007877,.01189,
-.00787,.01189,
0.0*
%
%ADD17MACRO17*%
%AMMACRO15*
4,1,44,-.01189,-.00787,
-.01189,.00787,
-.011831,.008554,
-.011654,.009217,
-.011364,.009839,
-.010971,.010401,
-.010486,.010887,
-.009924,.011281,
-.009303,.011571,
-.00864,.01175,
-.007957,.01181,
-.00795,.01181,
.00795,.01181,
.008634,.011751,
.009297,.011574,
.009919,.011284,
.010481,.010891,
.010967,.010406,
.011361,.009844,
.011651,.009223,
.01183,.00856,
.01189,.007877,
.01189,.00787,
.01189,-.00787,
.011831,-.008554,
.011654,-.009217,
.011364,-.009839,
.010971,-.010401,
.010486,-.010887,
.009924,-.011281,
.009303,-.011571,
.00864,-.01175,
.007957,-.01181,
.00795,-.01181,
-.00795,-.01181,
-.008634,-.011751,
-.009297,-.011574,
-.009919,-.011284,
-.010481,-.010891,
-.010967,-.010406,
-.011361,-.009844,
-.011651,-.009223,
-.01183,-.00856,
-.01189,-.007877,
-.01189,-.00787,
0.0*
%
%ADD15MACRO15*%
%AMMACRO24*
4,1,44,-.01181,-.00689,
-.01181,.00689,
-.011751,.007574,
-.011573,.008237,
-.011284,.008859,
-.01089,.009422,
-.010405,.009907,
-.009843,.010301,
-.009221,.010592,
-.008558,.01077,
-.007875,.01083,
-.00787,.01083,
.00787,.01083,
.008554,.010771,
.009217,.010593,
.009839,.010304,
.010402,.00991,
.010887,.009425,
.011281,.008863,
.011572,.008241,
.01175,.007578,
.01181,.006895,
.01181,.00689,
.01181,-.00689,
.011751,-.007574,
.011573,-.008237,
.011284,-.008859,
.01089,-.009422,
.010405,-.009907,
.009843,-.010301,
.009221,-.010592,
.008558,-.01077,
.007875,-.01083,
.00787,-.01083,
-.00787,-.01083,
-.008554,-.010771,
-.009217,-.010593,
-.009839,-.010304,
-.010402,-.00991,
-.010887,-.009425,
-.011281,-.008863,
-.011572,-.008241,
-.01175,-.007578,
-.01181,-.006895,
-.01181,-.00689,
0.0*
%
%ADD24MACRO24*%
%AMMACRO22*
4,1,44,-.01378,.01378,
.01378,.01378,
.014464,.01372,
.015127,.013543,
.015749,.013253,
.016312,.01286,
.016798,.012374,
.017192,.011812,
.017482,.01119,
.01766,.010527,
.01772,.009843,
.01772,.00984,
.01772,-.00984,
.01766,-.010524,
.017483,-.011187,
.017193,-.011809,
.0168,-.012372,
.016314,-.012858,
.015752,-.013252,
.01513,-.013542,
.014467,-.01372,
.013783,-.01378,
.01378,-.01378,
-.01378,-.01378,
-.014464,-.01372,
-.015127,-.013543,
-.015749,-.013253,
-.016312,-.01286,
-.016798,-.012374,
-.017192,-.011812,
-.017482,-.01119,
-.01766,-.010527,
-.01772,-.009843,
-.01772,-.00984,
-.01772,.00984,
-.01766,.010524,
-.017483,.011187,
-.017193,.011809,
-.0168,.012372,
-.016314,.012858,
-.015752,.013252,
-.01513,.013542,
-.014467,.01372,
-.013783,.01378,
-.01378,.01378,
0.0*
%
%ADD22MACRO22*%
%AMMACRO19*
4,1,44,-.00689,.01181,
.00689,.01181,
.007574,.011751,
.008237,.011573,
.008859,.011284,
.009422,.01089,
.009907,.010405,
.010301,.009843,
.010592,.009221,
.01077,.008558,
.01083,.007875,
.01083,.00787,
.01083,-.00787,
.010771,-.008554,
.010593,-.009217,
.010304,-.009839,
.00991,-.010402,
.009425,-.010887,
.008863,-.011281,
.008241,-.011572,
.007578,-.01175,
.006895,-.01181,
.00689,-.01181,
-.00689,-.01181,
-.007574,-.011751,
-.008237,-.011573,
-.008859,-.011284,
-.009422,-.01089,
-.009907,-.010405,
-.010301,-.009843,
-.010592,-.009221,
-.01077,-.008558,
-.01083,-.007875,
-.01083,-.00787,
-.01083,.00787,
-.010771,.008554,
-.010593,.009217,
-.010304,.009839,
-.00991,.010402,
-.009425,.010887,
-.008863,.011281,
-.008241,.011572,
-.007578,.01175,
-.006895,.01181,
-.00689,.01181,
0.0*
%
%ADD19MACRO19*%
%AMMACRO27*
4,1,40,-.02362,.01476,
.02362,.01476,
.024304,.014701,
.024966,.014524,
.025589,.014235,
.026151,.013842,
.026637,.013357,
.027031,.012795,
.027321,.012174,
.0275,.011511,
.02756,.01083,
.02756,-.01083,
.027499,-.011513,
.027321,-.012176,
.02703,-.012797,
.026635,-.013359,
.026149,-.013843,
.025587,-.014236,
.024964,-.014525,
.024301,-.014701,
.02362,-.01476,
-.02362,-.01476,
-.024304,-.014701,
-.024966,-.014524,
-.025589,-.014235,
-.026151,-.013842,
-.026637,-.013357,
-.027031,-.012795,
-.027321,-.012174,
-.0275,-.011511,
-.02756,-.01083,
-.02756,.01083,
-.027499,.011513,
-.027321,.012176,
-.02703,.012797,
-.026635,.013359,
-.026149,.013843,
-.025587,.014236,
-.024964,.014525,
-.024301,.014701,
-.02362,.01476,
0.0*
%
%ADD27MACRO27*%
%AMMACRO14*
4,1,40,-.01476,-.02362,
-.01476,.02362,
-.014701,.024304,
-.014524,.024966,
-.014235,.025589,
-.013842,.026151,
-.013357,.026637,
-.012795,.027031,
-.012174,.027321,
-.011511,.0275,
-.01083,.02756,
.01083,.02756,
.011513,.027499,
.012176,.027321,
.012797,.02703,
.013359,.026635,
.013843,.026149,
.014236,.025587,
.014525,.024964,
.014701,.024301,
.01476,.02362,
.01476,-.02362,
.014701,-.024304,
.014524,-.024966,
.014235,-.025589,
.013842,-.026151,
.013357,-.026637,
.012795,-.027031,
.012174,-.027321,
.011511,-.0275,
.01083,-.02756,
-.01083,-.02756,
-.011513,-.027499,
-.012176,-.027321,
-.012797,-.02703,
-.013359,-.026635,
-.013843,-.026149,
-.014236,-.025587,
-.014525,-.024964,
-.014701,-.024301,
-.01476,-.02362,
0.0*
%
%ADD14MACRO14*%
%AMMACRO11*
4,1,40,-.01575,-.02264,
-.01575,.02264,
-.015689,.023323,
-.015511,.023986,
-.01522,.024607,
-.014825,.025169,
-.014339,.025653,
-.013777,.026046,
-.013154,.026335,
-.012491,.026511,
-.01181,.02657,
.01181,.02657,
.012494,.026511,
.013156,.026334,
.013779,.026045,
.014341,.025652,
.014827,.025167,
.015221,.024605,
.015511,.023984,
.01569,.023321,
.01575,.02264,
.01575,-.02264,
.015689,-.023323,
.015511,-.023986,
.01522,-.024607,
.014825,-.025169,
.014339,-.025653,
.013777,-.026046,
.013154,-.026335,
.012491,-.026511,
.01181,-.02657,
-.01181,-.02657,
-.012494,-.026511,
-.013156,-.026334,
-.013779,-.026045,
-.014341,-.025652,
-.014827,-.025167,
-.015221,-.024605,
-.015511,-.023984,
-.01569,-.023321,
-.01575,-.02264,
0.0*
%
%ADD11MACRO11*%
%AMMACRO26*
4,1,44,-.01476,.0128,
.01476,.0128,
.015444,.01274,
.016107,.012563,
.016729,.012273,
.017292,.01188,
.017778,.011394,
.018172,.010832,
.018462,.01021,
.01864,.009547,
.0187,.008863,
.0187,.00886,
.0187,-.00886,
.01864,-.009544,
.018463,-.010207,
.018173,-.010829,
.01778,-.011392,
.017294,-.011878,
.016732,-.012272,
.01611,-.012562,
.015447,-.01274,
.014763,-.0128,
.01476,-.0128,
-.01476,-.0128,
-.015444,-.01274,
-.016107,-.012563,
-.016729,-.012273,
-.017292,-.01188,
-.017778,-.011394,
-.018172,-.010832,
-.018462,-.01021,
-.01864,-.009547,
-.0187,-.008863,
-.0187,-.00886,
-.0187,.00886,
-.01864,.009544,
-.018463,.010207,
-.018173,.010829,
-.01778,.011392,
-.017294,.011878,
-.016732,.012272,
-.01611,.012562,
-.015447,.01274,
-.014763,.0128,
-.01476,.0128,
0.0*
%
%ADD26MACRO26*%
%ADD25R,.03543X.02362*%
%ADD12R,.02362X.03543*%
%AMMACRO23*
4,1,44,.01189,.00787,
.01189,-.00787,
.011831,-.008554,
.011654,-.009217,
.011364,-.009839,
.010971,-.010401,
.010486,-.010887,
.009924,-.011281,
.009303,-.011571,
.00864,-.01175,
.007957,-.01181,
.00795,-.01181,
-.00795,-.01181,
-.008634,-.011751,
-.009297,-.011574,
-.009919,-.011284,
-.010481,-.010891,
-.010967,-.010406,
-.011361,-.009844,
-.011651,-.009223,
-.01183,-.00856,
-.01189,-.007877,
-.01189,-.00787,
-.01189,.00787,
-.011831,.008554,
-.011654,.009217,
-.011364,.009839,
-.010971,.010401,
-.010486,.010887,
-.009924,.011281,
-.009303,.011571,
-.00864,.01175,
-.007957,.01181,
-.00795,.01181,
.00795,.01181,
.008634,.011751,
.009297,.011574,
.009919,.011284,
.010481,.010891,
.010967,.010406,
.011361,.009844,
.011651,.009223,
.01183,.00856,
.01189,.007877,
.01189,.00787,
0.0*
%
%ADD23MACRO23*%
%AMMACRO18*
4,1,44,.00787,-.01189,
-.00787,-.01189,
-.008554,-.011831,
-.009217,-.011654,
-.009839,-.011364,
-.010401,-.010971,
-.010887,-.010486,
-.011281,-.009924,
-.011571,-.009303,
-.01175,-.00864,
-.01181,-.007957,
-.01181,-.00795,
-.01181,.00795,
-.011751,.008634,
-.011574,.009297,
-.011284,.009919,
-.010891,.010481,
-.010406,.010967,
-.009844,.011361,
-.009223,.011651,
-.00856,.01183,
-.007877,.01189,
-.00787,.01189,
.00787,.01189,
.008554,.011831,
.009217,.011654,
.009839,.011364,
.010401,.010971,
.010887,.010486,
.011281,.009924,
.011571,.009303,
.01175,.00864,
.01181,.007957,
.01181,.00795,
.01181,-.00795,
.011751,-.008634,
.011574,-.009297,
.011284,-.009919,
.010891,-.010481,
.010406,-.010967,
.009844,-.011361,
.009223,-.011651,
.00856,-.01183,
.007877,-.01189,
.00787,-.01189,
0.0*
%
%ADD18MACRO18*%
%AMMACRO16*
4,1,44,.01181,.00689,
.01181,-.00689,
.011751,-.007574,
.011573,-.008237,
.011284,-.008859,
.01089,-.009422,
.010405,-.009907,
.009843,-.010301,
.009221,-.010592,
.008558,-.01077,
.007875,-.01083,
.00787,-.01083,
-.00787,-.01083,
-.008554,-.010771,
-.009217,-.010593,
-.009839,-.010304,
-.010402,-.00991,
-.010887,-.009425,
-.011281,-.008863,
-.011572,-.008241,
-.01175,-.007578,
-.01181,-.006895,
-.01181,-.00689,
-.01181,.00689,
-.011751,.007574,
-.011573,.008237,
-.011284,.008859,
-.01089,.009422,
-.010405,.009907,
-.009843,.010301,
-.009221,.010592,
-.008558,.01077,
-.007875,.01083,
-.00787,.01083,
.00787,.01083,
.008554,.010771,
.009217,.010593,
.009839,.010304,
.010402,.00991,
.010887,.009425,
.011281,.008863,
.011572,.008241,
.01175,.007578,
.01181,.006895,
.01181,.00689,
0.0*
%
%ADD16MACRO16*%
%AMMACRO21*
4,1,44,.01378,-.01378,
-.01378,-.01378,
-.014464,-.01372,
-.015127,-.013543,
-.015749,-.013253,
-.016312,-.01286,
-.016798,-.012374,
-.017192,-.011812,
-.017482,-.01119,
-.01766,-.010527,
-.01772,-.009843,
-.01772,-.00984,
-.01772,.00984,
-.01766,.010524,
-.017483,.011187,
-.017193,.011809,
-.0168,.012372,
-.016314,.012858,
-.015752,.013252,
-.01513,.013542,
-.014467,.01372,
-.013783,.01378,
-.01378,.01378,
.01378,.01378,
.014464,.01372,
.015127,.013543,
.015749,.013253,
.016312,.01286,
.016798,.012374,
.017192,.011812,
.017482,.01119,
.01766,.010527,
.01772,.009843,
.01772,.00984,
.01772,-.00984,
.01766,-.010524,
.017483,-.011187,
.017193,-.011809,
.0168,-.012372,
.016314,-.012858,
.015752,-.013252,
.01513,-.013542,
.014467,-.01372,
.013783,-.01378,
.01378,-.01378,
0.0*
%
%ADD21MACRO21*%
%AMMACRO20*
4,1,44,.00689,-.01181,
-.00689,-.01181,
-.007574,-.011751,
-.008237,-.011573,
-.008859,-.011284,
-.009422,-.01089,
-.009907,-.010405,
-.010301,-.009843,
-.010592,-.009221,
-.01077,-.008558,
-.01083,-.007875,
-.01083,-.00787,
-.01083,.00787,
-.010771,.008554,
-.010593,.009217,
-.010304,.009839,
-.00991,.010402,
-.009425,.010887,
-.008863,.011281,
-.008241,.011572,
-.007578,.01175,
-.006895,.01181,
-.00689,.01181,
.00689,.01181,
.007574,.011751,
.008237,.011573,
.008859,.011284,
.009422,.01089,
.009907,.010405,
.010301,.009843,
.010592,.009221,
.01077,.008558,
.01083,.007875,
.01083,.00787,
.01083,-.00787,
.010771,-.008554,
.010593,-.009217,
.010304,-.009839,
.00991,-.010402,
.009425,-.010887,
.008863,-.011281,
.008241,-.011572,
.007578,-.01175,
.006895,-.01181,
.00689,-.01181,
0.0*
%
%ADD20MACRO20*%
%AMMACRO13*
4,1,40,.01476,.02362,
.01476,-.02362,
.014701,-.024304,
.014524,-.024966,
.014235,-.025589,
.013842,-.026151,
.013357,-.026637,
.012795,-.027031,
.012174,-.027321,
.011511,-.0275,
.01083,-.02756,
-.01083,-.02756,
-.011513,-.027499,
-.012176,-.027321,
-.012797,-.02703,
-.013359,-.026635,
-.013843,-.026149,
-.014236,-.025587,
-.014525,-.024964,
-.014701,-.024301,
-.01476,-.02362,
-.01476,.02362,
-.014701,.024304,
-.014524,.024966,
-.014235,.025589,
-.013842,.026151,
-.013357,.026637,
-.012795,.027031,
-.012174,.027321,
-.011511,.0275,
-.01083,.02756,
.01083,.02756,
.011513,.027499,
.012176,.027321,
.012797,.02703,
.013359,.026635,
.013843,.026149,
.014236,.025587,
.014525,.024964,
.014701,.024301,
.01476,.02362,
0.0*
%
%ADD13MACRO13*%
%LPD*%
G75*
G54D10*
X-198036Y2251D03*
Y8645D03*
X-197904Y22975D03*
Y29369D03*
G54D20*
X41748Y8839D03*
Y13169D03*
X61848Y-76409D03*
Y-72079D03*
G54D11*
X-152588Y37728D03*
X-145108D03*
X-66404Y28992D03*
X-58924D03*
G54D21*
X54816Y-63090D03*
Y-56790D03*
G54D12*
X-34748Y-140115D03*
Y-133029D03*
X-31599Y-140115D03*
X-28449D03*
Y-133029D03*
X-31599D03*
X-25300Y-140115D03*
Y-133029D03*
G54D13*
X-5543Y-141336D03*
X2135D03*
X7513Y-141480D03*
X15191D03*
X20317Y-141636D03*
X27995D03*
G54D22*
X55116Y-24570D03*
Y-18270D03*
G54D23*
X59139Y-32328D03*
X63549D03*
X80523Y-55092D03*
X81147Y-39912D03*
X80535Y-26424D03*
X80403Y-9996D03*
X84933Y-55092D03*
X85557Y-39912D03*
X84945Y-26424D03*
X84813Y-9996D03*
G54D14*
X-5087Y-133368D03*
X2591D03*
X7765Y-133284D03*
X15443D03*
X20461Y-133716D03*
X28139D03*
G54D24*
X94831Y-25524D03*
X99161D03*
G54D15*
X-2661Y-126360D03*
X1749D03*
X10743Y-126576D03*
X15153D03*
X23295Y-127008D03*
X26355Y-55284D03*
X26475Y-44484D03*
X26163Y-30408D03*
X26223Y-16728D03*
X27705Y-127008D03*
X30765Y-55284D03*
X30885Y-44484D03*
X30573Y-30408D03*
X30633Y-16728D03*
X46059Y-32448D03*
X50469D03*
X70527Y-27096D03*
X74937D03*
G54D16*
X13915Y-34176D03*
X18245D03*
G54D25*
X158741Y32823D03*
X158941Y50421D03*
X159142Y67228D03*
X158741Y83232D03*
X168189Y29083D03*
Y36563D03*
X168389Y46681D03*
Y54161D03*
X168590Y63488D03*
Y70968D03*
X168189Y79492D03*
Y86972D03*
G54D26*
X177862Y25823D03*
Y32217D03*
X178665Y45429D03*
Y51823D03*
G54D17*
X21780Y-60945D03*
Y-56535D03*
X34488Y-7701D03*
Y-3291D03*
X49884Y-7653D03*
Y-3243D03*
X55224Y-7533D03*
Y-3123D03*
X75060Y-7797D03*
Y-3387D03*
X89580Y-63957D03*
Y-59547D03*
G54D18*
X23124Y-7533D03*
Y-3123D03*
X43044Y-61305D03*
Y-56895D03*
X54960Y-45453D03*
Y-41043D03*
X73728Y-61257D03*
Y-56847D03*
X89340Y-5133D03*
Y-723D03*
G54D27*
X177862Y74787D03*
Y82465D03*
G54D19*
X40800Y-77069D03*
Y-72739D03*
X52056Y7915D03*
Y12245D03*
X59340Y7759D03*
Y12089D03*
X66840Y-12017D03*
Y-7687D03*
X69072Y-78053D03*
Y-73723D03*
M02*
