G04 ================== begin FILE IDENTIFICATION RECORD ==================*
G04 Layout Name:  E:/Cadence/SPB_Data/control_board/control_board.brd*
G04 Film Name:    SILKSCREEN_BOTTOM*
G04 File Format:  Gerber RS274X*
G04 File Origin:  Cadence Allegro 16.6-2015-S098*
G04 Origin Date:  Fri Dec 27 14:31:35 2019*
G04 *
G04 Layer:  PACKAGE GEOMETRY/SILKSCREEN_BOTTOM*
G04 Layer:  MANUFACTURING/AUTOSILK_BOTTOM*
G04 Layer:  BOARD GEOMETRY/SILKSCREEN_BOTTOM*
G04 *
G04 Offset:    (0.00 0.00)*
G04 Mirror:    No*
G04 Mode:      Positive*
G04 Rotation:  0*
G04 FullContactRelief:  No*
G04 UndefLineWidth:     6.00*
G04 ================== end FILE IDENTIFICATION RECORD ====================*
%FSLAX35Y35*MOIN*%
%IR0*IPPOS*OFA0.00000B0.00000*MIA0B0*SFA1.00000B1.00000*%
%ADD10C,.015*%
%ADD11C,.006*%
%ADD12C,.00787*%
G75*
%LPD*%
G75*
G54D10*
G01X-199906Y5795D02*
Y5102D01*
G01X-199774Y26518D02*
Y25825D01*
G01X-196166Y5795D02*
Y5102D01*
G01X-196034Y26518D02*
Y25825D01*
G01X-148257Y35071D02*
X-149438D01*
G01X-148257Y40386D02*
X-149438D01*
G01X-62073Y26335D02*
X-63254D01*
G01X-62073Y31650D02*
X-63254D01*
G01X-36717Y-133423D02*
Y-139722D01*
G01X-23331D02*
Y-133423D01*
G01X-2492Y-144092D02*
X-917D01*
G01X-2492Y-138580D02*
X-917D01*
G01X-461Y-136124D02*
X-2036D01*
G01X-461Y-130612D02*
X-2036D01*
G01X-259Y-128131D02*
X-653D01*
G01X-259Y-124588D02*
X-653D01*
G01X10565Y-144236D02*
X12139D01*
G01X10565Y-138724D02*
X12139D01*
G01X12391Y-136040D02*
X10816D01*
G01X12391Y-130528D02*
X10816D01*
G01X13145Y-128348D02*
X12751D01*
G01X13145Y-124804D02*
X12751D01*
G01X15883Y-35850D02*
X16277D01*
G01X15883Y-32503D02*
X16277D01*
G01X20008Y-58937D02*
Y-58543D01*
G01X21352Y-5131D02*
Y-5525D01*
G01X23369Y-144392D02*
X24944D01*
G01X23369Y-138880D02*
X24944D01*
G01X25088Y-136472D02*
X23513D01*
G01X25697Y-128780D02*
X25303D01*
G01X25088Y-130960D02*
X23513D01*
G01X25697Y-125236D02*
X25303D01*
G01X23552Y-58937D02*
Y-58543D01*
G01X24896Y-5131D02*
Y-5525D01*
G01X28757Y-57056D02*
X28363D01*
G01X28757Y-53512D02*
X28363D01*
G01X28877Y-46256D02*
X28483D01*
G01X28877Y-42712D02*
X28483D01*
G01X28565Y-28636D02*
X28171D01*
G01X28565Y-32180D02*
X28171D01*
G01X28625Y-18500D02*
X28231D01*
G01X28625Y-14956D02*
X28231D01*
G01X32716Y-5693D02*
Y-5299D01*
G01X36260Y-5693D02*
Y-5299D01*
G01X42473Y-75100D02*
Y-74707D01*
G01X39126Y-75100D02*
Y-74707D01*
G01X41272Y-58903D02*
Y-59297D01*
G01X40074Y11201D02*
Y10807D01*
G01X44816Y-58903D02*
Y-59297D01*
G01X43421Y11201D02*
Y10807D01*
G01X48461Y-34220D02*
X48067D01*
G01X48461Y-30676D02*
X48067D01*
G01X48112Y-5645D02*
Y-5251D01*
G01X50383Y9883D02*
Y10276D01*
G01X53044Y-59743D02*
Y-60137D01*
G01X53188Y-43051D02*
Y-43445D01*
G01X53344Y-21617D02*
Y-21223D01*
G01X51656Y-5645D02*
Y-5251D01*
G01X53452Y-5525D02*
Y-5131D01*
G01X53729Y9883D02*
Y10276D01*
G01X56588Y-59743D02*
Y-60137D01*
G01X56732Y-43051D02*
Y-43445D01*
G01X56888Y-21617D02*
Y-21223D01*
G01X56996Y-5525D02*
Y-5131D01*
G01X57667Y9727D02*
Y10121D01*
G01X60175Y-74047D02*
Y-74441D01*
G01X61147Y-34100D02*
X61541D01*
G01X61147Y-30556D02*
X61541D01*
G01X61014Y9727D02*
Y10121D01*
G01X63521Y-74047D02*
Y-74441D01*
G01X65167Y-10049D02*
Y-9655D01*
G01X67398Y-76085D02*
Y-75691D01*
G01X68513Y-10049D02*
Y-9655D01*
G01X70745Y-76085D02*
Y-75691D01*
G01X71956Y-58855D02*
Y-59249D01*
G01X72929Y-28868D02*
X72535D01*
G01X72929Y-25324D02*
X72535D01*
G01X73288Y-5789D02*
Y-5395D01*
G01X75500Y-58855D02*
Y-59249D01*
G01X76832Y-5789D02*
Y-5395D01*
G01X82531Y-56864D02*
X82925D01*
G01X82531Y-53320D02*
X82925D01*
G01X82543Y-28196D02*
X82937D01*
G01X82543Y-24652D02*
X82937D01*
G01X82411Y-11768D02*
X82805D01*
G01X82411Y-8224D02*
X82805D01*
G01X83155Y-41684D02*
X83549D01*
G01X83155Y-38140D02*
X83549D01*
G01X87808Y-61949D02*
Y-61555D01*
G01X87568Y-2731D02*
Y-3125D01*
G01X91352Y-61949D02*
Y-61555D01*
G01X91112Y-2731D02*
Y-3125D01*
G01X97193Y-27197D02*
X96799D01*
G01X97193Y-23851D02*
X96799D01*
G01X165039Y38531D02*
X161890D01*
Y27114D01*
X165039D01*
Y38531D01*
G01X161890Y88395D02*
Y77594D01*
G01X165240Y56130D02*
X162091D01*
Y44713D01*
X165240D01*
Y56130D01*
G01X165441Y72937D02*
X162291D01*
Y61520D01*
X165441D01*
Y72937D01*
G01X164577Y77524D02*
X165039D01*
Y88941D01*
G01D02*
X163729D01*
G01X169961Y38728D02*
X166417D01*
G01X170161Y56327D02*
X166618D01*
G01X170362Y73134D02*
X166819D01*
G01X169961Y89138D02*
X166417D01*
G01X175992Y28673D02*
Y29366D01*
G01X176795Y48280D02*
Y48972D01*
G01X175106Y77839D02*
Y79413D01*
G01X179732Y28673D02*
Y29366D01*
G01X180535Y48280D02*
Y48972D01*
G01X180618Y77839D02*
Y79413D01*
G54D11*
G01X-186479Y4380D02*
Y7478D01*
X-187437D01*
X-187744Y7323D01*
X-187935Y7117D01*
X-188012Y6703D01*
X-187935Y6290D01*
X-187705Y6032D01*
X-187437Y5877D01*
X-186479D01*
G01X-187437D02*
X-188012Y4380D01*
G01X-190803D02*
Y7478D01*
X-189386Y5258D01*
X-191301D01*
G01X-192713Y6962D02*
X-192943Y7271D01*
X-193212Y7426D01*
X-193518Y7478D01*
X-193901Y7375D01*
X-194170Y7117D01*
X-194246Y6807D01*
X-194208Y6497D01*
X-194055Y6239D01*
X-193288Y5722D01*
X-192943Y5361D01*
X-192713Y4845D01*
X-192637Y4380D01*
X-194246D01*
G01X-185231Y24984D02*
Y28082D01*
X-186189D01*
X-186496Y27927D01*
X-186687Y27721D01*
X-186764Y27307D01*
X-186687Y26894D01*
X-186457Y26636D01*
X-186189Y26481D01*
X-185231D01*
G01X-186189D02*
X-186764Y24984D01*
G01X-189555D02*
Y28082D01*
X-188138Y25862D01*
X-190053D01*
G01X-192653Y24984D02*
Y28082D01*
X-191236Y25862D01*
X-193151D01*
G01X-155141Y30615D02*
X-154912Y30770D01*
X-154643Y30873D01*
X-154337D01*
X-153992Y30718D01*
X-153724Y30460D01*
X-153532Y30150D01*
X-153379Y29634D01*
X-153341Y29169D01*
X-153417Y28704D01*
X-153532Y28395D01*
X-153762Y28085D01*
X-154030Y27878D01*
X-154298Y27775D01*
X-154567D01*
X-154835Y27878D01*
X-155065Y28033D01*
X-155256Y28240D01*
G01X-156554D02*
X-156783Y27981D01*
X-157052Y27827D01*
X-157396Y27775D01*
X-157741Y27878D01*
X-158010Y28085D01*
X-158201Y28446D01*
X-158239Y28859D01*
X-158163Y29272D01*
X-157971Y29531D01*
X-157703Y29737D01*
X-157435Y29789D01*
X-157167Y29737D01*
X-156822Y29531D01*
X-156937Y30873D01*
X-157971D01*
G01X-58944Y23708D02*
X-58715Y23863D01*
X-58446Y23966D01*
X-58140D01*
X-57795Y23811D01*
X-57527Y23553D01*
X-57335Y23243D01*
X-57182Y22727D01*
X-57144Y22262D01*
X-57220Y21797D01*
X-57335Y21488D01*
X-57565Y21178D01*
X-57833Y20971D01*
X-58101Y20868D01*
X-58370D01*
X-58638Y20971D01*
X-58868Y21126D01*
X-59059Y21333D01*
G01X-61199Y20868D02*
Y23966D01*
X-60740Y23346D01*
G01Y20868D02*
X-61659D01*
G01X-64297Y23966D02*
X-63991Y23863D01*
X-63761Y23605D01*
X-63608Y23295D01*
X-63493Y22882D01*
X-63455Y22417D01*
X-63493Y21952D01*
X-63608Y21539D01*
X-63761Y21229D01*
X-63991Y20971D01*
X-64297Y20868D01*
X-64604Y20971D01*
X-64834Y21229D01*
X-64987Y21539D01*
X-65102Y21952D01*
X-65140Y22417D01*
X-65102Y22882D01*
X-64987Y23295D01*
X-64834Y23605D01*
X-64604Y23863D01*
X-64297Y23966D01*
G01X-24107Y-129636D02*
Y-126538D01*
X-25065D01*
X-25372Y-126693D01*
X-25563Y-126899D01*
X-25640Y-127313D01*
X-25563Y-127726D01*
X-25333Y-127984D01*
X-25065Y-128139D01*
X-24107D01*
G01X-25065D02*
X-25640Y-129636D01*
G01X-27090D02*
Y-126538D01*
X-28853Y-129636D01*
Y-126538D01*
G01X-30993Y-129636D02*
X-31069Y-128965D01*
X-31184Y-128397D01*
X-31338Y-127880D01*
X-31529Y-127313D01*
X-31836Y-126538D01*
X-30303D01*
G01X-10367Y-141876D02*
Y-138778D01*
X-11325D01*
X-11632Y-138933D01*
X-11823Y-139139D01*
X-11900Y-139553D01*
X-11823Y-139966D01*
X-11593Y-140224D01*
X-11325Y-140379D01*
X-10367D01*
G01X-11325D02*
X-11900Y-141876D01*
G01X-13389Y-141256D02*
X-13618Y-141618D01*
X-13925Y-141824D01*
X-14270Y-141876D01*
X-14576Y-141824D01*
X-14883Y-141566D01*
X-15074Y-141256D01*
X-15113Y-140947D01*
X-15036Y-140585D01*
X-14768Y-140327D01*
X-14500Y-140224D01*
X-14155D01*
G01X-14500D02*
X-14730Y-140069D01*
X-14921Y-139811D01*
X-14998Y-139501D01*
X-14921Y-139191D01*
X-14730Y-138933D01*
X-14385Y-138778D01*
X-14040Y-138830D01*
X-13695Y-139036D01*
G01X-16601Y-140585D02*
X-16870Y-140224D01*
X-17100Y-140017D01*
X-17406Y-139914D01*
X-17674Y-140017D01*
X-17866Y-140224D01*
X-18019Y-140534D01*
X-18058Y-140895D01*
X-18019Y-141205D01*
X-17866Y-141515D01*
X-17636Y-141773D01*
X-17368Y-141876D01*
X-17061Y-141773D01*
X-16793Y-141463D01*
X-16640Y-140998D01*
X-16601Y-140482D01*
X-16678Y-139811D01*
X-16793Y-139449D01*
X-16985Y-139088D01*
X-17253Y-138830D01*
X-17521Y-138778D01*
X-17789Y-138881D01*
X-17981Y-139139D01*
G01X-9863Y-134508D02*
Y-131410D01*
X-10821D01*
X-11128Y-131565D01*
X-11319Y-131771D01*
X-11396Y-132185D01*
X-11319Y-132598D01*
X-11089Y-132856D01*
X-10821Y-133011D01*
X-9863D01*
G01X-10821D02*
X-11396Y-134508D01*
G01X-12885Y-133888D02*
X-13114Y-134250D01*
X-13421Y-134456D01*
X-13766Y-134508D01*
X-14072Y-134456D01*
X-14379Y-134198D01*
X-14570Y-133888D01*
X-14609Y-133579D01*
X-14532Y-133217D01*
X-14264Y-132959D01*
X-13996Y-132856D01*
X-13651D01*
G01X-13996D02*
X-14226Y-132701D01*
X-14417Y-132443D01*
X-14494Y-132133D01*
X-14417Y-131823D01*
X-14226Y-131565D01*
X-13881Y-131410D01*
X-13536Y-131462D01*
X-13191Y-131668D01*
G01X-16749Y-134508D02*
X-16825Y-133837D01*
X-16940Y-133269D01*
X-17094Y-132752D01*
X-17285Y-132185D01*
X-17592Y-131410D01*
X-16059D01*
G01X-8472Y-126052D02*
X-8243Y-125897D01*
X-7974Y-125794D01*
X-7668D01*
X-7323Y-125949D01*
X-7055Y-126207D01*
X-6863Y-126517D01*
X-6710Y-127033D01*
X-6672Y-127498D01*
X-6748Y-127963D01*
X-6863Y-128272D01*
X-7093Y-128582D01*
X-7361Y-128789D01*
X-7629Y-128892D01*
X-7898D01*
X-8166Y-128789D01*
X-8396Y-128634D01*
X-8587Y-128427D01*
G01X-10076Y-128531D02*
X-10344Y-128789D01*
X-10651Y-128892D01*
X-10957Y-128789D01*
X-11226Y-128479D01*
X-11417Y-128014D01*
X-11494Y-127550D01*
Y-126982D01*
X-11417Y-126517D01*
X-11226Y-126104D01*
X-10996Y-125897D01*
X-10727Y-125794D01*
X-10421Y-125897D01*
X-10191Y-126104D01*
X-10038Y-126414D01*
X-9961Y-126827D01*
X-10038Y-127188D01*
X-10229Y-127550D01*
X-10459Y-127756D01*
X-10727Y-127808D01*
X-11034Y-127704D01*
X-11264Y-127446D01*
X-11494Y-126982D01*
G01X-14285Y-128892D02*
Y-125794D01*
X-12868Y-128014D01*
X-14783D01*
G01X4933Y-23884D02*
X5162Y-23729D01*
X5431Y-23626D01*
X5737D01*
X6082Y-23781D01*
X6350Y-24039D01*
X6542Y-24349D01*
X6695Y-24865D01*
X6733Y-25330D01*
X6657Y-25795D01*
X6542Y-26104D01*
X6312Y-26414D01*
X6044Y-26621D01*
X5776Y-26724D01*
X5507D01*
X5239Y-26621D01*
X5009Y-26466D01*
X4818Y-26259D01*
G01X2678Y-26724D02*
Y-23626D01*
X3137Y-24246D01*
G01Y-26724D02*
X2218D01*
G01X308Y-24142D02*
X78Y-23833D01*
X-191Y-23678D01*
X-497Y-23626D01*
X-880Y-23729D01*
X-1149Y-23987D01*
X-1225Y-24297D01*
X-1187Y-24607D01*
X-1034Y-24865D01*
X-267Y-25382D01*
X78Y-25743D01*
X308Y-26259D01*
X384Y-26724D01*
X-1225D01*
G01X-3518D02*
Y-23626D01*
X-3059Y-24246D01*
G01Y-26724D02*
X-3978D01*
G01X9997Y-148872D02*
Y-145774D01*
X9039D01*
X8732Y-145929D01*
X8541Y-146135D01*
X8464Y-146549D01*
X8541Y-146962D01*
X8771Y-147220D01*
X9039Y-147375D01*
X9997D01*
G01X9039D02*
X8464Y-148872D01*
G01X6975Y-148252D02*
X6746Y-148614D01*
X6439Y-148820D01*
X6094Y-148872D01*
X5788Y-148820D01*
X5481Y-148562D01*
X5290Y-148252D01*
X5251Y-147943D01*
X5328Y-147581D01*
X5596Y-147323D01*
X5864Y-147220D01*
X6209D01*
G01X5864D02*
X5634Y-147065D01*
X5443Y-146807D01*
X5366Y-146497D01*
X5443Y-146187D01*
X5634Y-145929D01*
X5979Y-145774D01*
X6324Y-145826D01*
X6669Y-146032D01*
G01X3877Y-148407D02*
X3648Y-148666D01*
X3379Y-148820D01*
X3035Y-148872D01*
X2690Y-148769D01*
X2421Y-148562D01*
X2230Y-148201D01*
X2192Y-147788D01*
X2268Y-147375D01*
X2460Y-147116D01*
X2728Y-146910D01*
X2996Y-146858D01*
X3264Y-146910D01*
X3609Y-147116D01*
X3494Y-145774D01*
X2460D01*
G01X9121Y-35340D02*
Y-32242D01*
X8163D01*
X7856Y-32397D01*
X7665Y-32603D01*
X7588Y-33017D01*
X7665Y-33430D01*
X7895Y-33688D01*
X8163Y-33843D01*
X9121D01*
G01X8163D02*
X7588Y-35340D01*
G01X6099Y-34875D02*
X5870Y-35134D01*
X5601Y-35288D01*
X5257Y-35340D01*
X4912Y-35237D01*
X4643Y-35030D01*
X4452Y-34669D01*
X4414Y-34256D01*
X4490Y-33843D01*
X4682Y-33584D01*
X4950Y-33378D01*
X5218Y-33326D01*
X5486Y-33378D01*
X5831Y-33584D01*
X5716Y-32242D01*
X4682D01*
G01X3001Y-34720D02*
X2772Y-35082D01*
X2465Y-35288D01*
X2120Y-35340D01*
X1814Y-35288D01*
X1507Y-35030D01*
X1316Y-34720D01*
X1277Y-34411D01*
X1354Y-34049D01*
X1622Y-33791D01*
X1890Y-33688D01*
X2235D01*
G01X1890D02*
X1660Y-33533D01*
X1469Y-33275D01*
X1392Y-32965D01*
X1469Y-32655D01*
X1660Y-32397D01*
X2005Y-32242D01*
X2350Y-32294D01*
X2695Y-32500D01*
G01X15301Y-57976D02*
X15530Y-57821D01*
X15799Y-57718D01*
X16105D01*
X16450Y-57873D01*
X16718Y-58131D01*
X16910Y-58441D01*
X17063Y-58957D01*
X17101Y-59422D01*
X17025Y-59887D01*
X16910Y-60196D01*
X16680Y-60506D01*
X16412Y-60713D01*
X16144Y-60816D01*
X15875D01*
X15607Y-60713D01*
X15377Y-60558D01*
X15186Y-60351D01*
G01X13046Y-60816D02*
Y-57718D01*
X13505Y-58338D01*
G01Y-60816D02*
X12586D01*
G01X9948D02*
Y-57718D01*
X10407Y-58338D01*
G01Y-60816D02*
X9488D01*
G01X6926D02*
X6850Y-60145D01*
X6735Y-59577D01*
X6581Y-59060D01*
X6390Y-58493D01*
X6083Y-57718D01*
X7616D01*
G01X15181Y-1276D02*
X15410Y-1121D01*
X15679Y-1018D01*
X15985D01*
X16330Y-1173D01*
X16598Y-1431D01*
X16790Y-1741D01*
X16943Y-2257D01*
X16981Y-2722D01*
X16905Y-3187D01*
X16790Y-3496D01*
X16560Y-3806D01*
X16292Y-4013D01*
X16024Y-4116D01*
X15755D01*
X15487Y-4013D01*
X15257Y-3858D01*
X15066Y-3651D01*
G01X12926Y-4116D02*
Y-1018D01*
X13385Y-1638D01*
G01Y-4116D02*
X12466D01*
G01X9828D02*
Y-1018D01*
X10287Y-1638D01*
G01Y-4116D02*
X9368D01*
G01X6270D02*
Y-1018D01*
X7687Y-3238D01*
X5772D01*
G01X14196Y-121996D02*
X14425Y-121841D01*
X14694Y-121738D01*
X15000D01*
X15345Y-121893D01*
X15613Y-122151D01*
X15805Y-122461D01*
X15958Y-122977D01*
X15996Y-123442D01*
X15920Y-123907D01*
X15805Y-124216D01*
X15575Y-124526D01*
X15307Y-124733D01*
X15039Y-124836D01*
X14770D01*
X14502Y-124733D01*
X14272Y-124578D01*
X14081Y-124371D01*
G01X12592Y-124475D02*
X12324Y-124733D01*
X12017Y-124836D01*
X11711Y-124733D01*
X11442Y-124423D01*
X11251Y-123958D01*
X11174Y-123494D01*
Y-122926D01*
X11251Y-122461D01*
X11442Y-122048D01*
X11672Y-121841D01*
X11941Y-121738D01*
X12247Y-121841D01*
X12477Y-122048D01*
X12630Y-122358D01*
X12707Y-122771D01*
X12630Y-123132D01*
X12439Y-123494D01*
X12209Y-123700D01*
X11941Y-123752D01*
X11634Y-123648D01*
X11404Y-123390D01*
X11174Y-122926D01*
G01X9571Y-122254D02*
X9341Y-121945D01*
X9072Y-121790D01*
X8766Y-121738D01*
X8383Y-121841D01*
X8114Y-122099D01*
X8038Y-122409D01*
X8076Y-122719D01*
X8229Y-122977D01*
X8996Y-123494D01*
X9341Y-123855D01*
X9571Y-124371D01*
X9647Y-124836D01*
X8038D01*
G01X18553Y-51988D02*
X18782Y-51833D01*
X19051Y-51730D01*
X19357D01*
X19702Y-51885D01*
X19970Y-52143D01*
X20162Y-52453D01*
X20315Y-52969D01*
X20353Y-53434D01*
X20277Y-53899D01*
X20162Y-54208D01*
X19932Y-54518D01*
X19664Y-54725D01*
X19396Y-54828D01*
X19127D01*
X18859Y-54725D01*
X18629Y-54570D01*
X18438Y-54363D01*
G01X16298Y-54828D02*
Y-51730D01*
X16757Y-52350D01*
G01Y-54828D02*
X15838D01*
G01X13200Y-51730D02*
X13506Y-51833D01*
X13736Y-52091D01*
X13889Y-52401D01*
X14004Y-52814D01*
X14042Y-53279D01*
X14004Y-53744D01*
X13889Y-54157D01*
X13736Y-54467D01*
X13506Y-54725D01*
X13200Y-54828D01*
X12893Y-54725D01*
X12663Y-54467D01*
X12510Y-54157D01*
X12395Y-53744D01*
X12357Y-53279D01*
X12395Y-52814D01*
X12510Y-52401D01*
X12663Y-52091D01*
X12893Y-51833D01*
X13200Y-51730D01*
G01X10830Y-53537D02*
X10561Y-53176D01*
X10331Y-52969D01*
X10025Y-52866D01*
X9757Y-52969D01*
X9565Y-53176D01*
X9412Y-53486D01*
X9373Y-53847D01*
X9412Y-54157D01*
X9565Y-54467D01*
X9795Y-54725D01*
X10063Y-54828D01*
X10370Y-54725D01*
X10638Y-54415D01*
X10791Y-53950D01*
X10830Y-53434D01*
X10753Y-52763D01*
X10638Y-52401D01*
X10446Y-52040D01*
X10178Y-51782D01*
X9910Y-51730D01*
X9642Y-51833D01*
X9450Y-52091D01*
G01X17557Y-43864D02*
X17786Y-43709D01*
X18055Y-43606D01*
X18361D01*
X18706Y-43761D01*
X18974Y-44019D01*
X19166Y-44329D01*
X19319Y-44845D01*
X19357Y-45310D01*
X19281Y-45775D01*
X19166Y-46084D01*
X18936Y-46394D01*
X18668Y-46601D01*
X18400Y-46704D01*
X18131D01*
X17863Y-46601D01*
X17633Y-46446D01*
X17442Y-46239D01*
G01X15302Y-46704D02*
Y-43606D01*
X15761Y-44226D01*
G01Y-46704D02*
X14842D01*
G01X12204Y-43606D02*
X12510Y-43709D01*
X12740Y-43967D01*
X12893Y-44277D01*
X13008Y-44690D01*
X13046Y-45155D01*
X13008Y-45620D01*
X12893Y-46033D01*
X12740Y-46343D01*
X12510Y-46601D01*
X12204Y-46704D01*
X11897Y-46601D01*
X11667Y-46343D01*
X11514Y-46033D01*
X11399Y-45620D01*
X11361Y-45155D01*
X11399Y-44690D01*
X11514Y-44277D01*
X11667Y-43967D01*
X11897Y-43709D01*
X12204Y-43606D01*
G01X9948Y-46239D02*
X9719Y-46498D01*
X9450Y-46652D01*
X9106Y-46704D01*
X8761Y-46601D01*
X8492Y-46394D01*
X8301Y-46033D01*
X8263Y-45620D01*
X8339Y-45207D01*
X8531Y-44948D01*
X8799Y-44742D01*
X9067Y-44690D01*
X9335Y-44742D01*
X9680Y-44948D01*
X9565Y-43606D01*
X8531D01*
G01X18421Y-27508D02*
X18650Y-27353D01*
X18919Y-27250D01*
X19225D01*
X19570Y-27405D01*
X19838Y-27663D01*
X20030Y-27973D01*
X20183Y-28489D01*
X20221Y-28954D01*
X20145Y-29419D01*
X20030Y-29728D01*
X19800Y-30038D01*
X19532Y-30245D01*
X19264Y-30348D01*
X18995D01*
X18727Y-30245D01*
X18497Y-30090D01*
X18306Y-29883D01*
G01X16166Y-30348D02*
Y-27250D01*
X16625Y-27870D01*
G01Y-30348D02*
X15706D01*
G01X13068Y-27250D02*
X13374Y-27353D01*
X13604Y-27611D01*
X13757Y-27921D01*
X13872Y-28334D01*
X13910Y-28799D01*
X13872Y-29264D01*
X13757Y-29677D01*
X13604Y-29987D01*
X13374Y-30245D01*
X13068Y-30348D01*
X12761Y-30245D01*
X12531Y-29987D01*
X12378Y-29677D01*
X12263Y-29264D01*
X12225Y-28799D01*
X12263Y-28334D01*
X12378Y-27921D01*
X12531Y-27611D01*
X12761Y-27353D01*
X13068Y-27250D01*
G01X9510Y-30348D02*
Y-27250D01*
X10927Y-29470D01*
X9012D01*
G01X16681Y-18388D02*
X16910Y-18233D01*
X17179Y-18130D01*
X17485D01*
X17830Y-18285D01*
X18098Y-18543D01*
X18290Y-18853D01*
X18443Y-19369D01*
X18481Y-19834D01*
X18405Y-20299D01*
X18290Y-20608D01*
X18060Y-20918D01*
X17792Y-21125D01*
X17524Y-21228D01*
X17255D01*
X16987Y-21125D01*
X16757Y-20970D01*
X16566Y-20763D01*
G01X14426Y-21228D02*
Y-18130D01*
X14885Y-18750D01*
G01Y-21228D02*
X13966D01*
G01X11328Y-18130D02*
X11634Y-18233D01*
X11864Y-18491D01*
X12017Y-18801D01*
X12132Y-19214D01*
X12170Y-19679D01*
X12132Y-20144D01*
X12017Y-20557D01*
X11864Y-20867D01*
X11634Y-21125D01*
X11328Y-21228D01*
X11021Y-21125D01*
X10791Y-20867D01*
X10638Y-20557D01*
X10523Y-20144D01*
X10485Y-19679D01*
X10523Y-19214D01*
X10638Y-18801D01*
X10791Y-18491D01*
X11021Y-18233D01*
X11328Y-18130D01*
G01X9072Y-20608D02*
X8843Y-20970D01*
X8536Y-21176D01*
X8191Y-21228D01*
X7885Y-21176D01*
X7578Y-20918D01*
X7387Y-20608D01*
X7348Y-20299D01*
X7425Y-19937D01*
X7693Y-19679D01*
X7961Y-19576D01*
X8306D01*
G01X7961D02*
X7731Y-19421D01*
X7540Y-19163D01*
X7463Y-18853D01*
X7540Y-18543D01*
X7731Y-18285D01*
X8076Y-18130D01*
X8421Y-18182D01*
X8766Y-18388D01*
G01X20989Y-148500D02*
Y-145402D01*
X20031D01*
X19724Y-145557D01*
X19533Y-145763D01*
X19456Y-146177D01*
X19533Y-146590D01*
X19763Y-146848D01*
X20031Y-147003D01*
X20989D01*
G01X20031D02*
X19456Y-148500D01*
G01X17967Y-147880D02*
X17738Y-148242D01*
X17431Y-148448D01*
X17086Y-148500D01*
X16780Y-148448D01*
X16473Y-148190D01*
X16282Y-147880D01*
X16243Y-147571D01*
X16320Y-147209D01*
X16588Y-146951D01*
X16856Y-146848D01*
X17201D01*
G01X16856D02*
X16626Y-146693D01*
X16435Y-146435D01*
X16358Y-146125D01*
X16435Y-145815D01*
X16626Y-145557D01*
X16971Y-145402D01*
X17316Y-145454D01*
X17661Y-145660D01*
G01X13567Y-148500D02*
Y-145402D01*
X14984Y-147622D01*
X13069D01*
G01X35845Y-77436D02*
Y-74338D01*
X34887D01*
X34580Y-74493D01*
X34389Y-74699D01*
X34312Y-75113D01*
X34389Y-75526D01*
X34619Y-75784D01*
X34887Y-75939D01*
X35845D01*
G01X34887D02*
X34312Y-77436D01*
G01X32823Y-76971D02*
X32594Y-77230D01*
X32325Y-77384D01*
X31981Y-77436D01*
X31636Y-77333D01*
X31367Y-77126D01*
X31176Y-76765D01*
X31138Y-76352D01*
X31214Y-75939D01*
X31406Y-75680D01*
X31674Y-75474D01*
X31942Y-75422D01*
X32210Y-75474D01*
X32555Y-75680D01*
X32440Y-74338D01*
X31406D01*
G01X28883Y-77436D02*
Y-74338D01*
X29342Y-74958D01*
G01Y-77436D02*
X28423D01*
G01X34368Y7100D02*
X34597Y7255D01*
X34866Y7358D01*
X35172D01*
X35517Y7203D01*
X35785Y6945D01*
X35977Y6635D01*
X36130Y6119D01*
X36168Y5654D01*
X36092Y5189D01*
X35977Y4880D01*
X35747Y4570D01*
X35479Y4363D01*
X35211Y4260D01*
X34942D01*
X34674Y4363D01*
X34444Y4518D01*
X34253Y4725D01*
G01X32764Y4621D02*
X32496Y4363D01*
X32189Y4260D01*
X31883Y4363D01*
X31614Y4673D01*
X31423Y5138D01*
X31346Y5602D01*
Y6170D01*
X31423Y6635D01*
X31614Y7048D01*
X31844Y7255D01*
X32113Y7358D01*
X32419Y7255D01*
X32649Y7048D01*
X32802Y6738D01*
X32879Y6325D01*
X32802Y5964D01*
X32611Y5602D01*
X32381Y5396D01*
X32113Y5344D01*
X31806Y5448D01*
X31576Y5706D01*
X31346Y6170D01*
G01X29666Y4621D02*
X29398Y4363D01*
X29091Y4260D01*
X28785Y4363D01*
X28516Y4673D01*
X28325Y5138D01*
X28248Y5602D01*
Y6170D01*
X28325Y6635D01*
X28516Y7048D01*
X28746Y7255D01*
X29015Y7358D01*
X29321Y7255D01*
X29551Y7048D01*
X29704Y6738D01*
X29781Y6325D01*
X29704Y5964D01*
X29513Y5602D01*
X29283Y5396D01*
X29015Y5344D01*
X28708Y5448D01*
X28478Y5706D01*
X28248Y6170D01*
G01X39349Y-143124D02*
Y-140026D01*
X38391D01*
X38084Y-140181D01*
X37893Y-140387D01*
X37816Y-140801D01*
X37893Y-141214D01*
X38123Y-141472D01*
X38391Y-141627D01*
X39349D01*
G01X38391D02*
X37816Y-143124D01*
G01X36327Y-142504D02*
X36098Y-142866D01*
X35791Y-143072D01*
X35446Y-143124D01*
X35140Y-143072D01*
X34833Y-142814D01*
X34642Y-142504D01*
X34603Y-142195D01*
X34680Y-141833D01*
X34948Y-141575D01*
X35216Y-141472D01*
X35561D01*
G01X35216D02*
X34986Y-141317D01*
X34795Y-141059D01*
X34718Y-140749D01*
X34795Y-140439D01*
X34986Y-140181D01*
X35331Y-140026D01*
X35676Y-140078D01*
X36021Y-140284D01*
G01X33115Y-140542D02*
X32885Y-140233D01*
X32616Y-140078D01*
X32310Y-140026D01*
X31927Y-140129D01*
X31658Y-140387D01*
X31582Y-140697D01*
X31620Y-141007D01*
X31773Y-141265D01*
X32540Y-141782D01*
X32885Y-142143D01*
X33115Y-142659D01*
X33191Y-143124D01*
X31582D01*
G01X38473Y-135636D02*
Y-132538D01*
X37515D01*
X37208Y-132693D01*
X37017Y-132899D01*
X36940Y-133313D01*
X37017Y-133726D01*
X37247Y-133984D01*
X37515Y-134139D01*
X38473D01*
G01X37515D02*
X36940Y-135636D01*
G01X35451Y-135016D02*
X35222Y-135378D01*
X34915Y-135584D01*
X34570Y-135636D01*
X34264Y-135584D01*
X33957Y-135326D01*
X33766Y-135016D01*
X33727Y-134707D01*
X33804Y-134345D01*
X34072Y-134087D01*
X34340Y-133984D01*
X34685D01*
G01X34340D02*
X34110Y-133829D01*
X33919Y-133571D01*
X33842Y-133261D01*
X33919Y-132951D01*
X34110Y-132693D01*
X34455Y-132538D01*
X34800Y-132590D01*
X35145Y-132796D01*
G01X32353Y-135016D02*
X32124Y-135378D01*
X31817Y-135584D01*
X31472Y-135636D01*
X31166Y-135584D01*
X30859Y-135326D01*
X30668Y-135016D01*
X30629Y-134707D01*
X30706Y-134345D01*
X30974Y-134087D01*
X31242Y-133984D01*
X31587D01*
G01X31242D02*
X31012Y-133829D01*
X30821Y-133571D01*
X30744Y-133261D01*
X30821Y-132951D01*
X31012Y-132693D01*
X31357Y-132538D01*
X31702Y-132590D01*
X32047Y-132796D01*
G01X36744Y-126544D02*
X36973Y-126389D01*
X37242Y-126286D01*
X37548D01*
X37893Y-126441D01*
X38161Y-126699D01*
X38353Y-127009D01*
X38506Y-127525D01*
X38544Y-127990D01*
X38468Y-128455D01*
X38353Y-128764D01*
X38123Y-129074D01*
X37855Y-129281D01*
X37587Y-129384D01*
X37318D01*
X37050Y-129281D01*
X36820Y-129126D01*
X36629Y-128919D01*
G01X35140Y-129023D02*
X34872Y-129281D01*
X34565Y-129384D01*
X34259Y-129281D01*
X33990Y-128971D01*
X33799Y-128506D01*
X33722Y-128042D01*
Y-127474D01*
X33799Y-127009D01*
X33990Y-126596D01*
X34220Y-126389D01*
X34489Y-126286D01*
X34795Y-126389D01*
X35025Y-126596D01*
X35178Y-126906D01*
X35255Y-127319D01*
X35178Y-127680D01*
X34987Y-128042D01*
X34757Y-128248D01*
X34489Y-128300D01*
X34182Y-128196D01*
X33952Y-127938D01*
X33722Y-127474D01*
G01X32233Y-128764D02*
X32004Y-129126D01*
X31697Y-129332D01*
X31352Y-129384D01*
X31046Y-129332D01*
X30739Y-129074D01*
X30548Y-128764D01*
X30509Y-128455D01*
X30586Y-128093D01*
X30854Y-127835D01*
X31122Y-127732D01*
X31467D01*
G01X31122D02*
X30892Y-127577D01*
X30701Y-127319D01*
X30624Y-127009D01*
X30701Y-126699D01*
X30892Y-126441D01*
X31237Y-126286D01*
X31582Y-126338D01*
X31927Y-126544D01*
G01X41161Y-64600D02*
X41390Y-64445D01*
X41659Y-64342D01*
X41965D01*
X42310Y-64497D01*
X42578Y-64755D01*
X42770Y-65065D01*
X42923Y-65581D01*
X42961Y-66046D01*
X42885Y-66511D01*
X42770Y-66820D01*
X42540Y-67130D01*
X42272Y-67337D01*
X42004Y-67440D01*
X41735D01*
X41467Y-67337D01*
X41237Y-67182D01*
X41046Y-66975D01*
G01X38906Y-67440D02*
Y-64342D01*
X39365Y-64962D01*
G01Y-67440D02*
X38446D01*
G01X35808Y-64342D02*
X36114Y-64445D01*
X36344Y-64703D01*
X36497Y-65013D01*
X36612Y-65426D01*
X36650Y-65891D01*
X36612Y-66356D01*
X36497Y-66769D01*
X36344Y-67079D01*
X36114Y-67337D01*
X35808Y-67440D01*
X35501Y-67337D01*
X35271Y-67079D01*
X35118Y-66769D01*
X35003Y-66356D01*
X34965Y-65891D01*
X35003Y-65426D01*
X35118Y-65013D01*
X35271Y-64703D01*
X35501Y-64445D01*
X35808Y-64342D01*
G01X32786Y-67440D02*
X32710Y-66769D01*
X32595Y-66201D01*
X32441Y-65684D01*
X32250Y-65117D01*
X31943Y-64342D01*
X33476D01*
G01X40225Y15876D02*
Y18974D01*
X39267D01*
X38960Y18819D01*
X38769Y18613D01*
X38692Y18199D01*
X38769Y17786D01*
X38999Y17528D01*
X39267Y17373D01*
X40225D01*
G01X39267D02*
X38692Y15876D01*
G01X35901D02*
Y18974D01*
X37318Y16754D01*
X35403D01*
G01X33914Y16237D02*
X33646Y15979D01*
X33339Y15876D01*
X33033Y15979D01*
X32764Y16289D01*
X32573Y16754D01*
X32496Y17218D01*
Y17786D01*
X32573Y18251D01*
X32764Y18664D01*
X32994Y18871D01*
X33263Y18974D01*
X33569Y18871D01*
X33799Y18664D01*
X33952Y18354D01*
X34029Y17941D01*
X33952Y17580D01*
X33761Y17218D01*
X33531Y17012D01*
X33263Y16960D01*
X32956Y17064D01*
X32726Y17322D01*
X32496Y17786D01*
G01X49153Y3728D02*
X49382Y3883D01*
X49651Y3986D01*
X49957D01*
X50302Y3831D01*
X50570Y3573D01*
X50762Y3263D01*
X50915Y2747D01*
X50953Y2282D01*
X50877Y1817D01*
X50762Y1508D01*
X50532Y1198D01*
X50264Y991D01*
X49996Y888D01*
X49727D01*
X49459Y991D01*
X49229Y1146D01*
X49038Y1353D01*
G01X46898Y888D02*
Y3986D01*
X47357Y3366D01*
G01Y888D02*
X46438D01*
G01X43800Y3986D02*
X44106Y3883D01*
X44336Y3625D01*
X44489Y3315D01*
X44604Y2902D01*
X44642Y2437D01*
X44604Y1972D01*
X44489Y1559D01*
X44336Y1249D01*
X44106Y991D01*
X43800Y888D01*
X43493Y991D01*
X43263Y1249D01*
X43110Y1559D01*
X42995Y1972D01*
X42957Y2437D01*
X42995Y2902D01*
X43110Y3315D01*
X43263Y3625D01*
X43493Y3883D01*
X43800Y3986D01*
G01X40702Y888D02*
Y3986D01*
X41161Y3366D01*
G01Y888D02*
X40242D01*
G01X54277Y-66856D02*
X54506Y-66701D01*
X54775Y-66598D01*
X55081D01*
X55426Y-66753D01*
X55694Y-67011D01*
X55886Y-67321D01*
X56039Y-67837D01*
X56077Y-68302D01*
X56001Y-68767D01*
X55886Y-69076D01*
X55656Y-69386D01*
X55388Y-69593D01*
X55120Y-69696D01*
X54851D01*
X54583Y-69593D01*
X54353Y-69438D01*
X54162Y-69231D01*
G01X52022Y-69696D02*
Y-66598D01*
X52481Y-67218D01*
G01Y-69696D02*
X51562D01*
G01X48924D02*
Y-66598D01*
X49383Y-67218D01*
G01Y-69696D02*
X48464D01*
G01X45826D02*
X45557Y-69644D01*
X45251Y-69490D01*
X45059Y-69231D01*
X44983Y-68870D01*
X45059Y-68508D01*
X45289Y-68199D01*
X45634Y-68044D01*
X46017D01*
X46247Y-67940D01*
X46439Y-67682D01*
X46515Y-67321D01*
X46400Y-66959D01*
X46132Y-66701D01*
X45826Y-66598D01*
X45519Y-66701D01*
X45251Y-66959D01*
X45136Y-67321D01*
X45212Y-67682D01*
X45404Y-67940D01*
X45634Y-68044D01*
X46017D01*
X46362Y-68199D01*
X46592Y-68508D01*
X46668Y-68870D01*
X46592Y-69231D01*
X46400Y-69490D01*
X46094Y-69644D01*
X45826Y-69696D01*
G01X55705Y15876D02*
Y18974D01*
X54747D01*
X54440Y18819D01*
X54249Y18613D01*
X54172Y18199D01*
X54249Y17786D01*
X54479Y17528D01*
X54747Y17373D01*
X55705D01*
G01X54747D02*
X54172Y15876D01*
G01X52683Y16341D02*
X52454Y16082D01*
X52185Y15928D01*
X51841Y15876D01*
X51496Y15979D01*
X51227Y16186D01*
X51036Y16547D01*
X50998Y16960D01*
X51074Y17373D01*
X51266Y17632D01*
X51534Y17838D01*
X51802Y17890D01*
X52070Y17838D01*
X52415Y17632D01*
X52300Y18974D01*
X51266D01*
G01X48743Y15876D02*
X48474Y15928D01*
X48168Y16082D01*
X47976Y16341D01*
X47900Y16702D01*
X47976Y17064D01*
X48206Y17373D01*
X48551Y17528D01*
X48934D01*
X49164Y17632D01*
X49356Y17890D01*
X49432Y18251D01*
X49317Y18613D01*
X49049Y18871D01*
X48743Y18974D01*
X48436Y18871D01*
X48168Y18613D01*
X48053Y18251D01*
X48129Y17890D01*
X48321Y17632D01*
X48551Y17528D01*
X48934D01*
X49279Y17373D01*
X49509Y17064D01*
X49585Y16702D01*
X49509Y16341D01*
X49317Y16082D01*
X49011Y15928D01*
X48743Y15876D01*
G01X59269Y24452D02*
X59498Y24607D01*
X59767Y24710D01*
X60073D01*
X60418Y24555D01*
X60686Y24297D01*
X60878Y23987D01*
X61031Y23471D01*
X61069Y23006D01*
X60993Y22541D01*
X60878Y22232D01*
X60648Y21922D01*
X60380Y21715D01*
X60112Y21612D01*
X59843D01*
X59575Y21715D01*
X59345Y21870D01*
X59154Y22077D01*
G01X57014Y21612D02*
Y24710D01*
X57473Y24090D01*
G01Y21612D02*
X56554D01*
G01X54758Y22232D02*
X54529Y21870D01*
X54222Y21664D01*
X53877Y21612D01*
X53571Y21664D01*
X53264Y21922D01*
X53073Y22232D01*
X53034Y22541D01*
X53111Y22903D01*
X53379Y23161D01*
X53647Y23264D01*
X53992D01*
G01X53647D02*
X53417Y23419D01*
X53226Y23677D01*
X53149Y23987D01*
X53226Y24297D01*
X53417Y24555D01*
X53762Y24710D01*
X54107Y24658D01*
X54452Y24452D01*
G01X51546Y24194D02*
X51316Y24503D01*
X51047Y24658D01*
X50741Y24710D01*
X50358Y24607D01*
X50089Y24349D01*
X50013Y24039D01*
X50051Y23729D01*
X50204Y23471D01*
X50971Y22954D01*
X51316Y22593D01*
X51546Y22077D01*
X51622Y21612D01*
X50013D01*
G01X60025Y-93328D02*
X60254Y-93173D01*
X60523Y-93070D01*
X60829D01*
X61174Y-93225D01*
X61442Y-93483D01*
X61634Y-93793D01*
X61787Y-94309D01*
X61825Y-94774D01*
X61749Y-95239D01*
X61634Y-95548D01*
X61404Y-95858D01*
X61136Y-96065D01*
X60868Y-96168D01*
X60599D01*
X60331Y-96065D01*
X60101Y-95910D01*
X59910Y-95703D01*
G01X57770Y-96168D02*
Y-93070D01*
X58229Y-93690D01*
G01Y-96168D02*
X57310D01*
G01X55400Y-93586D02*
X55170Y-93277D01*
X54901Y-93122D01*
X54595Y-93070D01*
X54212Y-93173D01*
X53943Y-93431D01*
X53867Y-93741D01*
X53905Y-94051D01*
X54058Y-94309D01*
X54825Y-94826D01*
X55170Y-95187D01*
X55400Y-95703D01*
X55476Y-96168D01*
X53867D01*
G01X51574Y-93070D02*
X51880Y-93173D01*
X52110Y-93431D01*
X52263Y-93741D01*
X52378Y-94154D01*
X52416Y-94619D01*
X52378Y-95084D01*
X52263Y-95497D01*
X52110Y-95807D01*
X51880Y-96065D01*
X51574Y-96168D01*
X51267Y-96065D01*
X51037Y-95807D01*
X50884Y-95497D01*
X50769Y-95084D01*
X50731Y-94619D01*
X50769Y-94154D01*
X50884Y-93741D01*
X51037Y-93431D01*
X51267Y-93173D01*
X51574Y-93070D01*
G01X62149Y3224D02*
X62378Y3379D01*
X62647Y3482D01*
X62953D01*
X63298Y3327D01*
X63566Y3069D01*
X63758Y2759D01*
X63911Y2243D01*
X63949Y1778D01*
X63873Y1313D01*
X63758Y1004D01*
X63528Y694D01*
X63260Y487D01*
X62992Y384D01*
X62723D01*
X62455Y487D01*
X62225Y642D01*
X62034Y849D01*
G01X59894Y384D02*
Y3482D01*
X60353Y2862D01*
G01Y384D02*
X59434D01*
G01X56796Y3482D02*
X57102Y3379D01*
X57332Y3121D01*
X57485Y2811D01*
X57600Y2398D01*
X57638Y1933D01*
X57600Y1468D01*
X57485Y1055D01*
X57332Y745D01*
X57102Y487D01*
X56796Y384D01*
X56489Y487D01*
X56259Y745D01*
X56106Y1055D01*
X55991Y1468D01*
X55953Y1933D01*
X55991Y2398D01*
X56106Y2811D01*
X56259Y3121D01*
X56489Y3379D01*
X56796Y3482D01*
G01X54426Y2966D02*
X54196Y3275D01*
X53927Y3430D01*
X53621Y3482D01*
X53238Y3379D01*
X52969Y3121D01*
X52893Y2811D01*
X52931Y2501D01*
X53084Y2243D01*
X53851Y1726D01*
X54196Y1365D01*
X54426Y849D01*
X54502Y384D01*
X52893D01*
G01X65197Y-70188D02*
Y-67090D01*
X64239D01*
X63932Y-67245D01*
X63741Y-67451D01*
X63664Y-67865D01*
X63741Y-68278D01*
X63971Y-68536D01*
X64239Y-68691D01*
X65197D01*
G01X64239D02*
X63664Y-70188D01*
G01X62175Y-69723D02*
X61946Y-69982D01*
X61677Y-70136D01*
X61333Y-70188D01*
X60988Y-70085D01*
X60719Y-69878D01*
X60528Y-69517D01*
X60490Y-69104D01*
X60566Y-68691D01*
X60758Y-68432D01*
X61026Y-68226D01*
X61294Y-68174D01*
X61562Y-68226D01*
X61907Y-68432D01*
X61792Y-67090D01*
X60758D01*
G01X59077Y-69723D02*
X58848Y-69982D01*
X58579Y-70136D01*
X58235Y-70188D01*
X57890Y-70085D01*
X57621Y-69878D01*
X57430Y-69517D01*
X57392Y-69104D01*
X57468Y-68691D01*
X57660Y-68432D01*
X57928Y-68226D01*
X58196Y-68174D01*
X58464Y-68226D01*
X58809Y-68432D01*
X58694Y-67090D01*
X57660D01*
G01X65581Y16116D02*
Y19214D01*
X64623D01*
X64316Y19059D01*
X64125Y18853D01*
X64048Y18439D01*
X64125Y18026D01*
X64355Y17768D01*
X64623Y17613D01*
X65581D01*
G01X64623D02*
X64048Y16116D01*
G01X62559Y16581D02*
X62330Y16322D01*
X62061Y16168D01*
X61717Y16116D01*
X61372Y16219D01*
X61103Y16426D01*
X60912Y16787D01*
X60874Y17200D01*
X60950Y17613D01*
X61142Y17872D01*
X61410Y18078D01*
X61678Y18130D01*
X61946Y18078D01*
X62291Y17872D01*
X62176Y19214D01*
X61142D01*
G01X59347Y17407D02*
X59078Y17768D01*
X58848Y17975D01*
X58542Y18078D01*
X58274Y17975D01*
X58082Y17768D01*
X57929Y17458D01*
X57890Y17097D01*
X57929Y16787D01*
X58082Y16477D01*
X58312Y16219D01*
X58580Y16116D01*
X58887Y16219D01*
X59155Y16529D01*
X59308Y16994D01*
X59347Y17510D01*
X59270Y18181D01*
X59155Y18543D01*
X58963Y18904D01*
X58695Y19162D01*
X58427Y19214D01*
X58159Y19111D01*
X57967Y18853D01*
G01X72445Y636D02*
Y3734D01*
X71487D01*
X71180Y3579D01*
X70989Y3373D01*
X70912Y2959D01*
X70989Y2546D01*
X71219Y2288D01*
X71487Y2133D01*
X72445D01*
G01X71487D02*
X70912Y636D01*
G01X69423Y1101D02*
X69194Y842D01*
X68925Y688D01*
X68581Y636D01*
X68236Y739D01*
X67967Y946D01*
X67776Y1307D01*
X67738Y1720D01*
X67814Y2133D01*
X68006Y2392D01*
X68274Y2598D01*
X68542Y2650D01*
X68810Y2598D01*
X69155Y2392D01*
X69040Y3734D01*
X68006D01*
G01X65559Y636D02*
X65483Y1307D01*
X65368Y1875D01*
X65214Y2392D01*
X65023Y2959D01*
X64716Y3734D01*
X66249D01*
G01X77005Y-64852D02*
X77234Y-64697D01*
X77503Y-64594D01*
X77809D01*
X78154Y-64749D01*
X78422Y-65007D01*
X78614Y-65317D01*
X78767Y-65833D01*
X78805Y-66298D01*
X78729Y-66763D01*
X78614Y-67072D01*
X78384Y-67382D01*
X78116Y-67589D01*
X77848Y-67692D01*
X77579D01*
X77311Y-67589D01*
X77081Y-67434D01*
X76890Y-67227D01*
G01X74750Y-67692D02*
Y-64594D01*
X75209Y-65214D01*
G01Y-67692D02*
X74290D01*
G01X71652Y-64594D02*
X71958Y-64697D01*
X72188Y-64955D01*
X72341Y-65265D01*
X72456Y-65678D01*
X72494Y-66143D01*
X72456Y-66608D01*
X72341Y-67021D01*
X72188Y-67331D01*
X71958Y-67589D01*
X71652Y-67692D01*
X71345Y-67589D01*
X71115Y-67331D01*
X70962Y-67021D01*
X70847Y-66608D01*
X70809Y-66143D01*
X70847Y-65678D01*
X70962Y-65265D01*
X71115Y-64955D01*
X71345Y-64697D01*
X71652Y-64594D01*
G01X68554Y-67692D02*
X68285Y-67640D01*
X67979Y-67486D01*
X67787Y-67227D01*
X67711Y-66866D01*
X67787Y-66504D01*
X68017Y-66195D01*
X68362Y-66040D01*
X68745D01*
X68975Y-65936D01*
X69167Y-65678D01*
X69243Y-65317D01*
X69128Y-64955D01*
X68860Y-64697D01*
X68554Y-64594D01*
X68247Y-64697D01*
X67979Y-64955D01*
X67864Y-65317D01*
X67940Y-65678D01*
X68132Y-65936D01*
X68362Y-66040D01*
X68745D01*
X69090Y-66195D01*
X69320Y-66504D01*
X69396Y-66866D01*
X69320Y-67227D01*
X69128Y-67486D01*
X68822Y-67640D01*
X68554Y-67692D01*
G01X81061Y-78060D02*
Y-74962D01*
X80103D01*
X79796Y-75117D01*
X79605Y-75323D01*
X79528Y-75737D01*
X79605Y-76150D01*
X79835Y-76408D01*
X80103Y-76563D01*
X81061D01*
G01X80103D02*
X79528Y-78060D01*
G01X78039Y-77595D02*
X77810Y-77854D01*
X77541Y-78008D01*
X77197Y-78060D01*
X76852Y-77957D01*
X76583Y-77750D01*
X76392Y-77389D01*
X76354Y-76976D01*
X76430Y-76563D01*
X76622Y-76304D01*
X76890Y-76098D01*
X77158Y-76046D01*
X77426Y-76098D01*
X77771Y-76304D01*
X77656Y-74962D01*
X76622D01*
G01X74099D02*
X74405Y-75065D01*
X74635Y-75323D01*
X74788Y-75633D01*
X74903Y-76046D01*
X74941Y-76511D01*
X74903Y-76976D01*
X74788Y-77389D01*
X74635Y-77699D01*
X74405Y-77957D01*
X74099Y-78060D01*
X73792Y-77957D01*
X73562Y-77699D01*
X73409Y-77389D01*
X73294Y-76976D01*
X73256Y-76511D01*
X73294Y-76046D01*
X73409Y-75633D01*
X73562Y-75323D01*
X73792Y-75065D01*
X74099Y-74962D01*
G01X82381Y5720D02*
X82610Y5875D01*
X82879Y5978D01*
X83185D01*
X83530Y5823D01*
X83798Y5565D01*
X83990Y5255D01*
X84143Y4739D01*
X84181Y4274D01*
X84105Y3809D01*
X83990Y3500D01*
X83760Y3190D01*
X83492Y2983D01*
X83224Y2880D01*
X82955D01*
X82687Y2983D01*
X82457Y3138D01*
X82266Y3345D01*
G01X80126Y2880D02*
Y5978D01*
X80585Y5358D01*
G01Y2880D02*
X79666D01*
G01X77028D02*
Y5978D01*
X77487Y5358D01*
G01Y2880D02*
X76568D01*
G01X74772Y3500D02*
X74543Y3138D01*
X74236Y2932D01*
X73891Y2880D01*
X73585Y2932D01*
X73278Y3190D01*
X73087Y3500D01*
X73048Y3809D01*
X73125Y4171D01*
X73393Y4429D01*
X73661Y4532D01*
X74006D01*
G01X73661D02*
X73431Y4687D01*
X73240Y4945D01*
X73163Y5255D01*
X73240Y5565D01*
X73431Y5823D01*
X73776Y5978D01*
X74121Y5926D01*
X74466Y5720D01*
G01X78803Y-9883D02*
X78574Y-10038D01*
X78305Y-10141D01*
X77999D01*
X77654Y-9986D01*
X77386Y-9728D01*
X77194Y-9418D01*
X77041Y-8902D01*
X77003Y-8437D01*
X77079Y-7972D01*
X77194Y-7663D01*
X77424Y-7353D01*
X77692Y-7146D01*
X77960Y-7043D01*
X78229D01*
X78497Y-7146D01*
X78727Y-7301D01*
X78918Y-7508D01*
G01X81058Y-7043D02*
Y-10141D01*
X80599Y-9521D01*
G01Y-7043D02*
X81518D01*
G01X84156D02*
Y-10141D01*
X83697Y-9521D01*
G01Y-7043D02*
X84616D01*
G01X86526Y-9625D02*
X86756Y-9934D01*
X87025Y-10089D01*
X87331Y-10141D01*
X87714Y-10038D01*
X87983Y-9780D01*
X88059Y-9470D01*
X88021Y-9160D01*
X87868Y-8902D01*
X87101Y-8385D01*
X86756Y-8024D01*
X86526Y-7508D01*
X86450Y-7043D01*
X88059D01*
G01X90755Y-20816D02*
X90526Y-20971D01*
X90257Y-21074D01*
X89951D01*
X89606Y-20919D01*
X89338Y-20661D01*
X89146Y-20351D01*
X88993Y-19835D01*
X88955Y-19370D01*
X89031Y-18905D01*
X89146Y-18596D01*
X89376Y-18286D01*
X89644Y-18079D01*
X89912Y-17976D01*
X90181D01*
X90449Y-18079D01*
X90679Y-18234D01*
X90870Y-18441D01*
G01X93010Y-17976D02*
Y-21074D01*
X92551Y-20454D01*
G01Y-17976D02*
X93470D01*
G01X96108D02*
Y-21074D01*
X95649Y-20454D01*
G01Y-17976D02*
X96568D01*
G01X99206D02*
Y-21074D01*
X98747Y-20454D01*
G01Y-17976D02*
X99666D01*
G01X103237Y-60232D02*
X103466Y-60077D01*
X103735Y-59974D01*
X104041D01*
X104386Y-60129D01*
X104654Y-60387D01*
X104846Y-60697D01*
X104999Y-61213D01*
X105037Y-61678D01*
X104961Y-62143D01*
X104846Y-62452D01*
X104616Y-62762D01*
X104348Y-62969D01*
X104080Y-63072D01*
X103811D01*
X103543Y-62969D01*
X103313Y-62814D01*
X103122Y-62607D01*
G01X100982Y-63072D02*
Y-59974D01*
X101441Y-60594D01*
G01Y-63072D02*
X100522D01*
G01X97884D02*
Y-59974D01*
X98343Y-60594D01*
G01Y-63072D02*
X97424D01*
G01X95514Y-61781D02*
X95245Y-61420D01*
X95015Y-61213D01*
X94709Y-61110D01*
X94441Y-61213D01*
X94249Y-61420D01*
X94096Y-61730D01*
X94057Y-62091D01*
X94096Y-62401D01*
X94249Y-62711D01*
X94479Y-62969D01*
X94747Y-63072D01*
X95054Y-62969D01*
X95322Y-62659D01*
X95475Y-62194D01*
X95514Y-61678D01*
X95437Y-61007D01*
X95322Y-60645D01*
X95130Y-60284D01*
X94862Y-60026D01*
X94594Y-59974D01*
X94326Y-60077D01*
X94134Y-60335D01*
G01X92255Y-54668D02*
X92026Y-54823D01*
X91757Y-54926D01*
X91451D01*
X91106Y-54771D01*
X90838Y-54513D01*
X90646Y-54203D01*
X90493Y-53687D01*
X90455Y-53222D01*
X90531Y-52757D01*
X90646Y-52448D01*
X90876Y-52138D01*
X91144Y-51931D01*
X91412Y-51828D01*
X91681D01*
X91949Y-51931D01*
X92179Y-52086D01*
X92370Y-52293D01*
G01X94510Y-51828D02*
Y-54926D01*
X94051Y-54306D01*
G01Y-51828D02*
X94970D01*
G01X97608Y-54926D02*
X97302Y-54823D01*
X97072Y-54565D01*
X96919Y-54255D01*
X96804Y-53842D01*
X96766Y-53377D01*
X96804Y-52912D01*
X96919Y-52499D01*
X97072Y-52189D01*
X97302Y-51931D01*
X97608Y-51828D01*
X97915Y-51931D01*
X98145Y-52189D01*
X98298Y-52499D01*
X98413Y-52912D01*
X98451Y-53377D01*
X98413Y-53842D01*
X98298Y-54255D01*
X98145Y-54565D01*
X97915Y-54823D01*
X97608Y-54926D01*
G01X100055Y-52189D02*
X100323Y-51931D01*
X100630Y-51828D01*
X100936Y-51931D01*
X101205Y-52241D01*
X101396Y-52706D01*
X101473Y-53170D01*
Y-53738D01*
X101396Y-54203D01*
X101205Y-54616D01*
X100975Y-54823D01*
X100706Y-54926D01*
X100400Y-54823D01*
X100170Y-54616D01*
X100017Y-54306D01*
X99940Y-53893D01*
X100017Y-53532D01*
X100208Y-53170D01*
X100438Y-52964D01*
X100706Y-52912D01*
X101013Y-53016D01*
X101243Y-53274D01*
X101473Y-53738D01*
G01X94127Y-42932D02*
X93898Y-43087D01*
X93629Y-43190D01*
X93323D01*
X92978Y-43035D01*
X92710Y-42777D01*
X92518Y-42467D01*
X92365Y-41951D01*
X92327Y-41486D01*
X92403Y-41021D01*
X92518Y-40712D01*
X92748Y-40402D01*
X93016Y-40195D01*
X93284Y-40092D01*
X93553D01*
X93821Y-40195D01*
X94051Y-40350D01*
X94242Y-40557D01*
G01X96382Y-40092D02*
Y-43190D01*
X95923Y-42570D01*
G01Y-40092D02*
X96842D01*
G01X99480D02*
Y-43190D01*
X99021Y-42570D01*
G01Y-40092D02*
X99940D01*
G01X102578Y-43190D02*
X102272Y-43087D01*
X102042Y-42829D01*
X101889Y-42519D01*
X101774Y-42106D01*
X101736Y-41641D01*
X101774Y-41176D01*
X101889Y-40763D01*
X102042Y-40453D01*
X102272Y-40195D01*
X102578Y-40092D01*
X102885Y-40195D01*
X103115Y-40453D01*
X103268Y-40763D01*
X103383Y-41176D01*
X103421Y-41641D01*
X103383Y-42106D01*
X103268Y-42519D01*
X103115Y-42829D01*
X102885Y-43087D01*
X102578Y-43190D01*
G01X99985Y-35368D02*
X100214Y-35213D01*
X100483Y-35110D01*
X100789D01*
X101134Y-35265D01*
X101402Y-35523D01*
X101594Y-35833D01*
X101747Y-36349D01*
X101785Y-36814D01*
X101709Y-37279D01*
X101594Y-37588D01*
X101364Y-37898D01*
X101096Y-38105D01*
X100828Y-38208D01*
X100559D01*
X100291Y-38105D01*
X100061Y-37950D01*
X99870Y-37743D01*
G01X97730Y-38208D02*
Y-35110D01*
X98189Y-35730D01*
G01Y-38208D02*
X97270D01*
G01X94632D02*
Y-35110D01*
X95091Y-35730D01*
G01Y-38208D02*
X94172D01*
G01X92185Y-37847D02*
X91917Y-38105D01*
X91610Y-38208D01*
X91304Y-38105D01*
X91035Y-37795D01*
X90844Y-37330D01*
X90767Y-36866D01*
Y-36298D01*
X90844Y-35833D01*
X91035Y-35420D01*
X91265Y-35213D01*
X91534Y-35110D01*
X91840Y-35213D01*
X92070Y-35420D01*
X92223Y-35730D01*
X92300Y-36143D01*
X92223Y-36504D01*
X92032Y-36866D01*
X91802Y-37072D01*
X91534Y-37124D01*
X91227Y-37020D01*
X90997Y-36762D01*
X90767Y-36298D01*
G01X99493Y-30508D02*
X99722Y-30353D01*
X99991Y-30250D01*
X100297D01*
X100642Y-30405D01*
X100910Y-30663D01*
X101102Y-30973D01*
X101255Y-31489D01*
X101293Y-31954D01*
X101217Y-32419D01*
X101102Y-32728D01*
X100872Y-33038D01*
X100604Y-33245D01*
X100336Y-33348D01*
X100067D01*
X99799Y-33245D01*
X99569Y-33090D01*
X99378Y-32883D01*
G01X97238Y-33348D02*
Y-30250D01*
X97697Y-30870D01*
G01Y-33348D02*
X96778D01*
G01X94868Y-30766D02*
X94638Y-30457D01*
X94369Y-30302D01*
X94063Y-30250D01*
X93680Y-30353D01*
X93411Y-30611D01*
X93335Y-30921D01*
X93373Y-31231D01*
X93526Y-31489D01*
X94293Y-32006D01*
X94638Y-32367D01*
X94868Y-32883D01*
X94944Y-33348D01*
X93335D01*
G01X91770Y-30766D02*
X91540Y-30457D01*
X91271Y-30302D01*
X90965Y-30250D01*
X90582Y-30353D01*
X90313Y-30611D01*
X90237Y-30921D01*
X90275Y-31231D01*
X90428Y-31489D01*
X91195Y-32006D01*
X91540Y-32367D01*
X91770Y-32883D01*
X91846Y-33348D01*
X90237D01*
G01X103237Y728D02*
X103466Y883D01*
X103735Y986D01*
X104041D01*
X104386Y831D01*
X104654Y573D01*
X104846Y263D01*
X104999Y-253D01*
X105037Y-718D01*
X104961Y-1183D01*
X104846Y-1492D01*
X104616Y-1802D01*
X104348Y-2009D01*
X104080Y-2112D01*
X103811D01*
X103543Y-2009D01*
X103313Y-1854D01*
X103122Y-1647D01*
G01X100982Y-2112D02*
Y986D01*
X101441Y366D01*
G01Y-2112D02*
X100522D01*
G01X97884D02*
Y986D01*
X98343Y366D01*
G01Y-2112D02*
X97424D01*
G01X95628Y-1647D02*
X95399Y-1906D01*
X95130Y-2060D01*
X94786Y-2112D01*
X94441Y-2009D01*
X94172Y-1802D01*
X93981Y-1441D01*
X93943Y-1028D01*
X94019Y-615D01*
X94211Y-356D01*
X94479Y-150D01*
X94747Y-98D01*
X95015Y-150D01*
X95360Y-356D01*
X95245Y986D01*
X94211D01*
G01X111421Y-26976D02*
Y-23878D01*
X110463D01*
X110156Y-24033D01*
X109965Y-24239D01*
X109888Y-24653D01*
X109965Y-25066D01*
X110195Y-25324D01*
X110463Y-25479D01*
X111421D01*
G01X110463D02*
X109888Y-26976D01*
G01X108399Y-26511D02*
X108170Y-26770D01*
X107901Y-26924D01*
X107557Y-26976D01*
X107212Y-26873D01*
X106943Y-26666D01*
X106752Y-26305D01*
X106714Y-25892D01*
X106790Y-25479D01*
X106982Y-25220D01*
X107250Y-25014D01*
X107518Y-24962D01*
X107786Y-25014D01*
X108131Y-25220D01*
X108016Y-23878D01*
X106982D01*
G01X105187Y-24394D02*
X104957Y-24085D01*
X104688Y-23930D01*
X104382Y-23878D01*
X103999Y-23981D01*
X103730Y-24239D01*
X103654Y-24549D01*
X103692Y-24859D01*
X103845Y-25117D01*
X104612Y-25634D01*
X104957Y-25995D01*
X105187Y-26511D01*
X105263Y-26976D01*
X103654D01*
G01X158536Y27732D02*
Y30830D01*
X157770D01*
X157464Y30675D01*
X157234Y30469D01*
X157042Y30159D01*
X156889Y29797D01*
X156851Y29281D01*
X156889Y28765D01*
X157042Y28403D01*
X157234Y28093D01*
X157464Y27887D01*
X157770Y27732D01*
X158536D01*
G01X155438Y28352D02*
X155209Y27990D01*
X154902Y27784D01*
X154557Y27732D01*
X154251Y27784D01*
X153944Y28042D01*
X153753Y28352D01*
X153714Y28661D01*
X153791Y29023D01*
X154059Y29281D01*
X154327Y29384D01*
X154672D01*
G01X154327D02*
X154097Y29539D01*
X153906Y29797D01*
X153829Y30107D01*
X153906Y30417D01*
X154097Y30675D01*
X154442Y30830D01*
X154787Y30778D01*
X155132Y30572D01*
G01X159532Y44724D02*
Y47822D01*
X158766D01*
X158460Y47667D01*
X158230Y47461D01*
X158038Y47151D01*
X157885Y46789D01*
X157847Y46273D01*
X157885Y45757D01*
X158038Y45395D01*
X158230Y45085D01*
X158460Y44879D01*
X158766Y44724D01*
X159532D01*
G01X156434Y45189D02*
X156205Y44930D01*
X155936Y44776D01*
X155592Y44724D01*
X155247Y44827D01*
X154978Y45034D01*
X154787Y45395D01*
X154749Y45808D01*
X154825Y46221D01*
X155017Y46480D01*
X155285Y46686D01*
X155553Y46738D01*
X155821Y46686D01*
X156166Y46480D01*
X156051Y47822D01*
X155017D01*
G01X159258Y60228D02*
Y63326D01*
X158492D01*
X158186Y63171D01*
X157956Y62965D01*
X157764Y62655D01*
X157611Y62293D01*
X157573Y61777D01*
X157611Y61261D01*
X157764Y60899D01*
X157956Y60589D01*
X158186Y60383D01*
X158492Y60228D01*
X159258D01*
G01X156046Y62810D02*
X155816Y63119D01*
X155547Y63274D01*
X155241Y63326D01*
X154858Y63223D01*
X154589Y62965D01*
X154513Y62655D01*
X154551Y62345D01*
X154704Y62087D01*
X155471Y61570D01*
X155816Y61209D01*
X156046Y60693D01*
X156122Y60228D01*
X154513D01*
G01X160036Y75948D02*
Y79046D01*
X159270D01*
X158964Y78891D01*
X158734Y78685D01*
X158542Y78375D01*
X158389Y78013D01*
X158351Y77497D01*
X158389Y76981D01*
X158542Y76619D01*
X158734Y76309D01*
X158964Y76103D01*
X159270Y75948D01*
X160036D01*
G01X155636D02*
Y79046D01*
X157053Y76826D01*
X155138D01*
G01X168828Y117770D02*
X169785Y114672D01*
X170743Y117770D01*
G01X173190Y116324D02*
X173343Y116479D01*
X173458Y116737D01*
X173535Y117099D01*
X173458Y117409D01*
X173305Y117615D01*
X173037Y117770D01*
X172002D01*
Y114672D01*
X173267D01*
X173535Y114878D01*
X173688Y115188D01*
X173765Y115550D01*
X173688Y115911D01*
X173458Y116221D01*
X173190Y116324D01*
X172002D01*
G01X175139Y117770D02*
Y115550D01*
X175292Y115085D01*
X175598Y114775D01*
X175981Y114672D01*
X176365Y114775D01*
X176671Y115085D01*
X176824Y115550D01*
Y117770D01*
G01X178275Y115085D02*
X178581Y114827D01*
X178926Y114672D01*
X179233D01*
X179539Y114827D01*
X179769Y115085D01*
X179884Y115447D01*
X179808Y115808D01*
X179616Y116118D01*
X179271Y116324D01*
X178811Y116428D01*
X178543Y116634D01*
X178428Y116995D01*
X178505Y117357D01*
X178696Y117615D01*
X178965Y117770D01*
X179233D01*
X179501Y117667D01*
X179731Y117409D01*
G01X190105Y27108D02*
Y30206D01*
X189147D01*
X188840Y30051D01*
X188649Y29845D01*
X188572Y29431D01*
X188649Y29018D01*
X188879Y28760D01*
X189147Y28605D01*
X190105D01*
G01X189147D02*
X188572Y27108D01*
G01X186241D02*
Y30206D01*
X186700Y29586D01*
G01Y27108D02*
X185781D01*
G01X183871Y29690D02*
X183641Y29999D01*
X183372Y30154D01*
X183066Y30206D01*
X182683Y30103D01*
X182414Y29845D01*
X182338Y29535D01*
X182376Y29225D01*
X182529Y28967D01*
X183296Y28450D01*
X183641Y28089D01*
X183871Y27573D01*
X183947Y27108D01*
X182338D01*
G01X190237Y47352D02*
Y50450D01*
X189279D01*
X188972Y50295D01*
X188781Y50089D01*
X188704Y49675D01*
X188781Y49262D01*
X189011Y49004D01*
X189279Y48849D01*
X190237D01*
G01X189279D02*
X188704Y47352D01*
G01X186373D02*
Y50450D01*
X186832Y49830D01*
G01Y47352D02*
X185913D01*
G01X183275D02*
Y50450D01*
X183734Y49830D01*
G01Y47352D02*
X182815D01*
G01X191233Y75324D02*
Y78422D01*
X190275D01*
X189968Y78267D01*
X189777Y78061D01*
X189700Y77647D01*
X189777Y77234D01*
X190007Y76976D01*
X190275Y76821D01*
X191233D01*
G01X190275D02*
X189700Y75324D01*
G01X187369D02*
Y78422D01*
X187828Y77802D01*
G01Y75324D02*
X186909D01*
G01X184271Y78422D02*
X184577Y78319D01*
X184807Y78061D01*
X184960Y77751D01*
X185075Y77338D01*
X185113Y76873D01*
X185075Y76408D01*
X184960Y75995D01*
X184807Y75685D01*
X184577Y75427D01*
X184271Y75324D01*
X183964Y75427D01*
X183734Y75685D01*
X183581Y75995D01*
X183466Y76408D01*
X183428Y76873D01*
X183466Y77338D01*
X183581Y77751D01*
X183734Y78061D01*
X183964Y78319D01*
X184271Y78422D01*
G54D12*
G01X-199906Y5795D02*
Y5102D01*
G01X-199774Y26518D02*
Y25825D01*
G01X-196166Y5795D02*
Y5102D01*
G01X-196034Y26518D02*
Y25825D01*
G01X-148257Y35071D02*
X-149438D01*
G01X-148257Y40386D02*
X-149438D01*
G01X-62073Y26335D02*
X-63254D01*
G01X-62073Y31650D02*
X-63254D01*
G01X-36717Y-133423D02*
Y-139722D01*
G01X-23331D02*
Y-133423D01*
G01X-2492Y-144092D02*
X-917D01*
G01X-2492Y-138580D02*
X-917D01*
G01X-461Y-136124D02*
X-2036D01*
G01X-461Y-130612D02*
X-2036D01*
G01X-259Y-128131D02*
X-653D01*
G01X-259Y-124588D02*
X-653D01*
G01X10565Y-144236D02*
X12139D01*
G01X10565Y-138724D02*
X12139D01*
G01X12391Y-136040D02*
X10816D01*
G01X13145Y-128348D02*
X12751D01*
G01X12391Y-130528D02*
X10816D01*
G01X13145Y-124804D02*
X12751D01*
G01X15883Y-35850D02*
X16277D01*
G01X15883Y-32503D02*
X16277D01*
G01X20008Y-58937D02*
Y-58543D01*
G01X21352Y-5131D02*
Y-5525D01*
G01X23369Y-144392D02*
X24944D01*
G01X23369Y-138880D02*
X24944D01*
G01X25088Y-136472D02*
X23513D01*
G01X25697Y-128780D02*
X25303D01*
G01X25088Y-130960D02*
X23513D01*
G01X25697Y-125236D02*
X25303D01*
G01X23552Y-58937D02*
Y-58543D01*
G01X24896Y-5131D02*
Y-5525D01*
G01X28757Y-57056D02*
X28363D01*
G01X28757Y-53512D02*
X28363D01*
G01X28877Y-46256D02*
X28483D01*
G01X28877Y-42712D02*
X28483D01*
G01X28565Y-32180D02*
X28171D01*
G01X28565Y-28636D02*
X28171D01*
G01X28625Y-18500D02*
X28231D01*
G01X28625Y-14956D02*
X28231D01*
G01X32716Y-5693D02*
Y-5299D01*
G01X36260Y-5693D02*
Y-5299D01*
G01X39126Y-75100D02*
Y-74707D01*
G01X42473Y-75100D02*
Y-74707D01*
G01X41272Y-58903D02*
Y-59297D01*
G01X40074Y11201D02*
Y10807D01*
G01X44816Y-58903D02*
Y-59297D01*
G01X43421Y11201D02*
Y10807D01*
G01X48461Y-34220D02*
X48067D01*
G01X48461Y-30676D02*
X48067D01*
G01X48112Y-5645D02*
Y-5251D01*
G01X50383Y9883D02*
Y10276D01*
G01X53044Y-59743D02*
Y-60137D01*
G01X53188Y-43051D02*
Y-43445D01*
G01X53344Y-21617D02*
Y-21223D01*
G01X51656Y-5645D02*
Y-5251D01*
G01X53452Y-5525D02*
Y-5131D01*
G01X53729Y9883D02*
Y10276D01*
G01X56588Y-59743D02*
Y-60137D01*
G01X56732Y-43051D02*
Y-43445D01*
G01X56888Y-21617D02*
Y-21223D01*
G01X56996Y-5525D02*
Y-5131D01*
G01X57667Y9727D02*
Y10121D01*
G01X60175Y-74047D02*
Y-74441D01*
G01X61147Y-34100D02*
X61541D01*
G01X61147Y-30556D02*
X61541D01*
G01X61014Y9727D02*
Y10121D01*
G01X63521Y-74047D02*
Y-74441D01*
G01X65167Y-10049D02*
Y-9655D01*
G01X67398Y-76085D02*
Y-75691D01*
G01X68513Y-10049D02*
Y-9655D01*
G01X70745Y-76085D02*
Y-75691D01*
G01X71956Y-58855D02*
Y-59249D01*
G01X72929Y-28868D02*
X72535D01*
G01X72929Y-25324D02*
X72535D01*
G01X73288Y-5789D02*
Y-5395D01*
G01X75500Y-58855D02*
Y-59249D01*
G01X76832Y-5789D02*
Y-5395D01*
G01X82531Y-56864D02*
X82925D01*
G01X82531Y-53320D02*
X82925D01*
G01X83155Y-41684D02*
X83549D01*
G01X83155Y-38140D02*
X83549D01*
G01X82543Y-28196D02*
X82937D01*
G01X82543Y-24652D02*
X82937D01*
G01X82411Y-11768D02*
X82805D01*
G01X82411Y-8224D02*
X82805D01*
G01X87808Y-61949D02*
Y-61555D01*
G01X87568Y-2731D02*
Y-3125D01*
G01X91352Y-61949D02*
Y-61555D01*
G01X91112Y-2731D02*
Y-3125D01*
G01X97193Y-27197D02*
X96799D01*
G01X97193Y-23851D02*
X96799D01*
G01X165039Y38531D02*
X161890D01*
Y27114D01*
X165039D01*
Y38531D01*
G01X165240Y56130D02*
X162091D01*
Y44713D01*
X165240D01*
Y56130D01*
G01X165441Y72937D02*
X162291D01*
Y61520D01*
X165441D01*
Y72937D01*
G01X165039Y88941D02*
X161890D01*
Y77524D01*
X165039D01*
Y88941D01*
G01X169961Y38728D02*
X166417D01*
G01X170161Y56327D02*
X166618D01*
G01X170362Y73134D02*
X166819D01*
G01X169961Y89138D02*
X166417D01*
G01X175992Y28673D02*
Y29366D01*
G01X176795Y48280D02*
Y48972D01*
G01X175106Y77839D02*
Y79413D01*
G01X179732Y28673D02*
Y29366D01*
G01X180535Y48280D02*
Y48972D01*
G01X180618Y77839D02*
Y79413D01*
M02*
