G04 ================== begin FILE IDENTIFICATION RECORD ==================*
G04 Layout Name:  E:/Cadence/SPB_Data/control_board/control_board.brd*
G04 Film Name:    SOLDERMASK_BOTTOM*
G04 File Format:  Gerber RS274X*
G04 File Origin:  Cadence Allegro 16.6-2015-S098*
G04 Origin Date:  Fri Dec 27 14:31:35 2019*
G04 *
G04 Layer:  VIA CLASS/SOLDERMASK_BOTTOM*
G04 Layer:  PIN/SOLDERMASK_BOTTOM*
G04 Layer:  PACKAGE GEOMETRY/SOLDERMASK_BOTTOM*
G04 Layer:  BOARD GEOMETRY/SOLDERMASK_BOTTOM*
G04 *
G04 Offset:    (0.00 0.00)*
G04 Mirror:    No*
G04 Mode:      Positive*
G04 Rotation:  0*
G04 FullContactRelief:  No*
G04 UndefLineWidth:     6.00*
G04 ================== end FILE IDENTIFICATION RECORD ====================*
%FSLAX35Y35*MOIN*%
%IR0*IPPOS*OFA0.00000B0.00000*MIA0B0*SFA1.00000B1.00000*%
%ADD30C,.04331*%
%ADD22C,.02362*%
%ADD12C,.02756*%
%ADD11C,.07087*%
%AMMACRO28*
4,1,44,-.01575,.01575,
.01575,.01575,
.016434,.01569,
.017097,.015513,
.01772,.015223,
.018282,.014829,
.018768,.014343,
.019162,.013781,
.019452,.013159,
.01963,.012495,
.01969,.011811,
.01969,.01181,
.01969,-.01181,
.01963,-.012494,
.019453,-.013157,
.019163,-.01378,
.018769,-.014342,
.018283,-.014828,
.017721,-.015222,
.017099,-.015512,
.016435,-.01569,
.015751,-.01575,
.01575,-.01575,
-.01575,-.01575,
-.016434,-.01569,
-.017097,-.015513,
-.01772,-.015223,
-.018282,-.014829,
-.018768,-.014343,
-.019162,-.013781,
-.019452,-.013159,
-.01963,-.012495,
-.01969,-.011811,
-.01969,-.01181,
-.01969,.01181,
-.01963,.012494,
-.019453,.013157,
-.019163,.01378,
-.018769,.014342,
-.018283,.014828,
-.017721,.015222,
-.017099,.015512,
-.016435,.01569,
-.015751,.01575,
-.01575,.01575,
0.0*
%
%ADD28MACRO28*%
%ADD35C,.09449*%
%ADD14C,.06299*%
%AMMACRO23*
4,1,44,-.00984,.01386,
.00984,.01386,
.010524,.013801,
.011187,.013623,
.011809,.013334,
.012372,.01294,
.012857,.012455,
.013251,.011893,
.013542,.011271,
.01372,.010608,
.01378,.009925,
.01378,.00992,
.01378,-.00992,
.013721,-.010604,
.013543,-.011267,
.013254,-.011889,
.01286,-.012452,
.012375,-.012937,
.011813,-.013331,
.011191,-.013622,
.010528,-.0138,
.009845,-.01386,
.00984,-.01386,
-.00984,-.01386,
-.010524,-.013801,
-.011187,-.013623,
-.011809,-.013334,
-.012372,-.01294,
-.012857,-.012455,
-.013251,-.011893,
-.013542,-.011271,
-.01372,-.010608,
-.01378,-.009925,
-.01378,-.00992,
-.01378,.00992,
-.013721,.010604,
-.013543,.011267,
-.013254,.011889,
-.01286,.012452,
-.012375,.012937,
-.011813,.013331,
-.011191,.013622,
-.010528,.0138,
-.009845,.01386,
-.00984,.01386,
0.0*
%
%ADD23MACRO23*%
%AMMACRO20*
4,1,44,-.01386,-.00984,
-.01386,.00984,
-.013801,.010524,
-.013623,.011187,
-.013334,.011809,
-.01294,.012372,
-.012455,.012857,
-.011893,.013251,
-.011271,.013542,
-.010608,.01372,
-.009925,.01378,
-.00992,.01378,
.00992,.01378,
.010604,.013721,
.011267,.013543,
.011889,.013254,
.012452,.01286,
.012937,.012375,
.013331,.011813,
.013622,.011191,
.0138,.010528,
.01386,.009845,
.01386,.00984,
.01386,-.00984,
.013801,-.010524,
.013623,-.011187,
.013334,-.011809,
.01294,-.012372,
.012455,-.012857,
.011893,-.013251,
.011271,-.013542,
.010608,-.01372,
.009925,-.01378,
.00992,-.01378,
-.00992,-.01378,
-.010604,-.013721,
-.011267,-.013543,
-.011889,-.013254,
-.012452,-.01286,
-.012937,-.012375,
-.013331,-.011813,
-.013622,-.011191,
-.0138,-.010528,
-.01386,-.009845,
-.01386,-.00984,
0.0*
%
%ADD20MACRO20*%
%ADD10R,.07087X.07087*%
%AMMACRO33*
4,1,40,-.01673,.01476,
.01673,.01476,
.017414,.014701,
.018076,.014524,
.018699,.014235,
.019261,.013842,
.019747,.013357,
.020141,.012795,
.020431,.012174,
.02061,.011511,
.02067,.01083,
.02067,-.01083,
.020609,-.011513,
.020431,-.012176,
.02014,-.012797,
.019745,-.013359,
.019259,-.013843,
.018697,-.014236,
.018075,-.014525,
.017412,-.014701,
.01673,-.01476,
-.01673,-.01476,
-.017414,-.014701,
-.018076,-.014524,
-.018699,-.014235,
-.019261,-.013842,
-.019747,-.013357,
-.020141,-.012795,
-.020431,-.012174,
-.02061,-.011511,
-.02067,-.01083,
-.02067,.01083,
-.020609,.011513,
-.020431,.012176,
-.02014,.012797,
-.019745,.013359,
-.019259,.013843,
-.018697,.014236,
-.018075,.014525,
-.017412,.014701,
-.01673,.01476,
0.0*
%
%ADD33MACRO33*%
%AMMACRO31*
4,1,44,-.01378,-.00886,
-.01378,.00886,
-.01372,.009544,
-.013543,.010207,
-.013253,.01083,
-.012859,.011392,
-.012374,.011878,
-.011812,.012272,
-.01119,.012562,
-.010526,.01274,
-.009843,.0128,
-.00984,.0128,
.00984,.0128,
.010524,.01274,
.011187,.012563,
.01181,.012273,
.012372,.011879,
.012858,.011394,
.013252,.010832,
.013542,.01021,
.01372,.009546,
.01378,.008863,
.01378,.00886,
.01378,-.00886,
.01372,-.009544,
.013543,-.010207,
.013253,-.01083,
.012859,-.011392,
.012374,-.011878,
.011812,-.012272,
.01119,-.012562,
.010526,-.01274,
.009843,-.0128,
.00984,-.0128,
-.00984,-.0128,
-.010524,-.01274,
-.011187,-.012563,
-.01181,-.012273,
-.012372,-.011879,
-.012858,-.011394,
-.013252,-.010832,
-.013542,-.01021,
-.01372,-.009546,
-.01378,-.008863,
-.01378,-.00886,
0.0*
%
%ADD31MACRO31*%
%AMMACRO25*
4,1,44,-.00886,.01378,
.00886,.01378,
.009544,.01372,
.010207,.013543,
.01083,.013253,
.011392,.012859,
.011878,.012374,
.012272,.011812,
.012562,.01119,
.01274,.010526,
.0128,.009843,
.0128,.00984,
.0128,-.00984,
.01274,-.010524,
.012563,-.011187,
.012273,-.01181,
.011879,-.012372,
.011394,-.012858,
.010832,-.013252,
.01021,-.013542,
.009546,-.01372,
.008863,-.01378,
.00886,-.01378,
-.00886,-.01378,
-.009544,-.01372,
-.010207,-.013543,
-.01083,-.013253,
-.011392,-.012859,
-.011878,-.012374,
-.012272,-.011812,
-.012562,-.01119,
-.01274,-.010526,
-.0128,-.009843,
-.0128,-.00984,
-.0128,.00984,
-.01274,.010524,
-.012563,.011187,
-.012273,.01181,
-.011879,.012372,
-.011394,.012858,
-.010832,.013252,
-.01021,.013542,
-.009546,.01372,
-.008863,.01378,
-.00886,.01378,
0.0*
%
%ADD25MACRO25*%
%AMMACRO34*
4,1,40,-.02559,.01673,
.02559,.01673,
.026274,.016671,
.026937,.016494,
.027559,.016204,
.028121,.015811,
.028607,.015326,
.029001,.014764,
.029292,.014142,
.02947,.01348,
.02953,.0128,
.02953,-.0128,
.029469,-.013484,
.02929,-.014146,
.028999,-.014768,
.028604,-.015329,
.028118,-.015813,
.027555,-.016206,
.026933,-.016495,
.02627,-.016671,
.02559,-.01673,
-.02559,-.01673,
-.026274,-.016671,
-.026937,-.016494,
-.027559,-.016204,
-.028121,-.015811,
-.028607,-.015326,
-.029001,-.014764,
-.029292,-.014142,
-.02947,-.01348,
-.02953,-.0128,
-.02953,.0128,
-.029469,.013484,
-.02929,.014146,
-.028999,.014768,
-.028604,.015329,
-.028118,.015813,
-.027555,.016206,
-.026933,.016495,
-.02627,.016671,
-.02559,.01673,
0.0*
%
%ADD34MACRO34*%
%AMMACRO19*
4,1,40,-.01673,-.02559,
-.01673,.02559,
-.016671,.026274,
-.016494,.026937,
-.016204,.027559,
-.015811,.028121,
-.015326,.028607,
-.014764,.029001,
-.014142,.029292,
-.01348,.02947,
-.0128,.02953,
.0128,.02953,
.013484,.029469,
.014146,.02929,
.014768,.028999,
.015329,.028604,
.015813,.028118,
.016206,.027555,
.016495,.026933,
.016671,.02627,
.01673,.02559,
.01673,-.02559,
.016671,-.026274,
.016494,-.026937,
.016204,-.027559,
.015811,-.028121,
.015326,-.028607,
.014764,-.029001,
.014142,-.029292,
.01348,-.02947,
.0128,-.02953,
-.0128,-.02953,
-.013484,-.029469,
-.014146,-.02929,
-.014768,-.028999,
-.015329,-.028604,
-.015813,-.028118,
-.016206,-.027555,
-.016495,-.026933,
-.016671,-.02627,
-.01673,-.02559,
0.0*
%
%ADD19MACRO19*%
%AMMACRO16*
4,1,40,-.01772,-.02461,
-.01772,.02461,
-.017659,.025294,
-.01748,.025956,
-.017189,.026578,
-.016794,.027139,
-.016308,.027623,
-.015745,.028016,
-.015123,.028305,
-.01446,.028481,
-.01378,.02854,
.01378,.02854,
.014464,.028481,
.015127,.028304,
.015749,.028014,
.016311,.027621,
.016797,.027136,
.017191,.026574,
.017482,.025952,
.01766,.02529,
.01772,.02461,
.01772,-.02461,
.017659,-.025294,
.01748,-.025956,
.017189,-.026578,
.016794,-.027139,
.016308,-.027623,
.015745,-.028016,
.015123,-.028305,
.01446,-.028481,
.01378,-.02854,
-.01378,-.02854,
-.014464,-.028481,
-.015127,-.028304,
-.015749,-.028014,
-.016311,-.027621,
-.016797,-.027136,
-.017191,-.026574,
-.017482,-.025952,
-.01766,-.02529,
-.01772,-.02461,
0.0*
%
%ADD16MACRO16*%
%ADD13C,.17*%
%ADD32R,.039X.026*%
%ADD17R,.026X.039*%
%AMMACRO27*
4,1,44,.01575,-.01575,
-.01575,-.01575,
-.016434,-.01569,
-.017097,-.015513,
-.01772,-.015223,
-.018282,-.014829,
-.018768,-.014343,
-.019162,-.013781,
-.019452,-.013159,
-.01963,-.012495,
-.01969,-.011811,
-.01969,-.01181,
-.01969,.01181,
-.01963,.012494,
-.019453,.013157,
-.019163,.01378,
-.018769,.014342,
-.018283,.014828,
-.017721,.015222,
-.017099,.015512,
-.016435,.01569,
-.015751,.01575,
-.01575,.01575,
.01575,.01575,
.016434,.01569,
.017097,.015513,
.01772,.015223,
.018282,.014829,
.018768,.014343,
.019162,.013781,
.019452,.013159,
.01963,.012495,
.01969,.011811,
.01969,.01181,
.01969,-.01181,
.01963,-.012494,
.019453,-.013157,
.019163,-.01378,
.018769,-.014342,
.018283,-.014828,
.017721,-.015222,
.017099,-.015512,
.016435,-.01569,
.015751,-.01575,
.01575,-.01575,
0.0*
%
%ADD27MACRO27*%
%AMMACRO29*
4,1,44,.01386,.00984,
.01386,-.00984,
.013801,-.010524,
.013623,-.011187,
.013334,-.011809,
.01294,-.012372,
.012455,-.012857,
.011893,-.013251,
.011271,-.013542,
.010608,-.01372,
.009925,-.01378,
.00992,-.01378,
-.00992,-.01378,
-.010604,-.013721,
-.011267,-.013543,
-.011889,-.013254,
-.012452,-.01286,
-.012937,-.012375,
-.013331,-.011813,
-.013622,-.011191,
-.0138,-.010528,
-.01386,-.009845,
-.01386,-.00984,
-.01386,.00984,
-.013801,.010524,
-.013623,.011187,
-.013334,.011809,
-.01294,.012372,
-.012455,.012857,
-.011893,.013251,
-.011271,.013542,
-.010608,.01372,
-.009925,.01378,
-.00992,.01378,
.00992,.01378,
.010604,.013721,
.011267,.013543,
.011889,.013254,
.012452,.01286,
.012937,.012375,
.013331,.011813,
.013622,.011191,
.0138,.010528,
.01386,.009845,
.01386,.00984,
0.0*
%
%ADD29MACRO29*%
%AMMACRO24*
4,1,44,.00984,-.01386,
-.00984,-.01386,
-.010524,-.013801,
-.011187,-.013623,
-.011809,-.013334,
-.012372,-.01294,
-.012857,-.012455,
-.013251,-.011893,
-.013542,-.011271,
-.01372,-.010608,
-.01378,-.009925,
-.01378,-.00992,
-.01378,.00992,
-.013721,.010604,
-.013543,.011267,
-.013254,.011889,
-.01286,.012452,
-.012375,.012937,
-.011813,.013331,
-.011191,.013622,
-.010528,.0138,
-.009845,.01386,
-.00984,.01386,
.00984,.01386,
.010524,.013801,
.011187,.013623,
.011809,.013334,
.012372,.01294,
.012857,.012455,
.013251,.011893,
.013542,.011271,
.01372,.010608,
.01378,.009925,
.01378,.00992,
.01378,-.00992,
.013721,-.010604,
.013543,-.011267,
.013254,-.011889,
.01286,-.012452,
.012375,-.012937,
.011813,-.013331,
.011191,-.013622,
.010528,-.0138,
.009845,-.01386,
.00984,-.01386,
0.0*
%
%ADD24MACRO24*%
%AMMACRO21*
4,1,44,.01378,.00886,
.01378,-.00886,
.01372,-.009544,
.013543,-.010207,
.013253,-.01083,
.012859,-.011392,
.012374,-.011878,
.011812,-.012272,
.01119,-.012562,
.010526,-.01274,
.009843,-.0128,
.00984,-.0128,
-.00984,-.0128,
-.010524,-.01274,
-.011187,-.012563,
-.01181,-.012273,
-.012372,-.011879,
-.012858,-.011394,
-.013252,-.010832,
-.013542,-.01021,
-.01372,-.009546,
-.01378,-.008863,
-.01378,-.00886,
-.01378,.00886,
-.01372,.009544,
-.013543,.010207,
-.013253,.01083,
-.012859,.011392,
-.012374,.011878,
-.011812,.012272,
-.01119,.012562,
-.010526,.01274,
-.009843,.0128,
-.00984,.0128,
.00984,.0128,
.010524,.01274,
.011187,.012563,
.01181,.012273,
.012372,.011879,
.012858,.011394,
.013252,.010832,
.013542,.01021,
.01372,.009546,
.01378,.008863,
.01378,.00886,
0.0*
%
%ADD21MACRO21*%
%AMMACRO26*
4,1,44,.00886,-.01378,
-.00886,-.01378,
-.009544,-.01372,
-.010207,-.013543,
-.01083,-.013253,
-.011392,-.012859,
-.011878,-.012374,
-.012272,-.011812,
-.012562,-.01119,
-.01274,-.010526,
-.0128,-.009843,
-.0128,-.00984,
-.0128,.00984,
-.01274,.010524,
-.012563,.011187,
-.012273,.01181,
-.011879,.012372,
-.011394,.012858,
-.010832,.013252,
-.01021,.013542,
-.009546,.01372,
-.008863,.01378,
-.00886,.01378,
.00886,.01378,
.009544,.01372,
.010207,.013543,
.01083,.013253,
.011392,.012859,
.011878,.012374,
.012272,.011812,
.012562,.01119,
.01274,.010526,
.0128,.009843,
.0128,.00984,
.0128,-.00984,
.01274,-.010524,
.012563,-.011187,
.012273,-.01181,
.011879,-.012372,
.011394,-.012858,
.010832,-.013252,
.01021,-.013542,
.009546,-.01372,
.008863,-.01378,
.00886,-.01378,
0.0*
%
%ADD26MACRO26*%
%AMMACRO18*
4,1,40,.01673,.02559,
.01673,-.02559,
.016671,-.026274,
.016494,-.026937,
.016204,-.027559,
.015811,-.028121,
.015326,-.028607,
.014764,-.029001,
.014142,-.029292,
.01348,-.02947,
.0128,-.02953,
-.0128,-.02953,
-.013484,-.029469,
-.014146,-.02929,
-.014768,-.028999,
-.015329,-.028604,
-.015813,-.028118,
-.016206,-.027555,
-.016495,-.026933,
-.016671,-.02627,
-.01673,-.02559,
-.01673,.02559,
-.016671,.026274,
-.016494,.026937,
-.016204,.027559,
-.015811,.028121,
-.015326,.028607,
-.014764,.029001,
-.014142,.029292,
-.01348,.02947,
-.0128,.02953,
.0128,.02953,
.013484,.029469,
.014146,.02929,
.014768,.028999,
.015329,.028604,
.015813,.028118,
.016206,.027555,
.016495,.026933,
.016671,.02627,
.01673,.02559,
0.0*
%
%ADD18MACRO18*%
%AMMACRO15*
4,1,40,.01673,-.01476,
-.01673,-.01476,
-.017414,-.014701,
-.018076,-.014524,
-.018699,-.014235,
-.019261,-.013842,
-.019747,-.013357,
-.020141,-.012795,
-.020431,-.012174,
-.02061,-.011511,
-.02067,-.01083,
-.02067,.01083,
-.020609,.011513,
-.020431,.012176,
-.02014,.012797,
-.019745,.013359,
-.019259,.013843,
-.018697,.014236,
-.018075,.014525,
-.017412,.014701,
-.01673,.01476,
.01673,.01476,
.017414,.014701,
.018076,.014524,
.018699,.014235,
.019261,.013842,
.019747,.013357,
.020141,.012795,
.020431,.012174,
.02061,.011511,
.02067,.01083,
.02067,-.01083,
.020609,-.011513,
.020431,-.012176,
.02014,-.012797,
.019745,-.013359,
.019259,-.013843,
.018697,-.014236,
.018075,-.014525,
.017412,-.014701,
.01673,-.01476,
0.0*
%
%ADD15MACRO15*%
%LPD*%
G75*
G54D10*
X-222106Y111201D03*
X-217819Y-22984D03*
X24130Y-163098D03*
X29673Y-108236D03*
Y121291D03*
X46378Y-119134D03*
X51461Y111130D03*
X90551Y70866D03*
X153235Y-174036D03*
X152251Y-159612D03*
X152371Y-145188D03*
X210697Y56169D03*
G54D20*
X-2661Y-126360D03*
X1749D03*
X10743Y-126576D03*
X15153D03*
X23295Y-127008D03*
X26355Y-55284D03*
X26475Y-44484D03*
X26163Y-30408D03*
X26223Y-16728D03*
X27705Y-127008D03*
X30765Y-55284D03*
X30885Y-44484D03*
X30573Y-30408D03*
X30633Y-16728D03*
X46059Y-32448D03*
X50469D03*
X70527Y-27096D03*
X74937D03*
G54D11*
X-222106Y121201D03*
X-217819Y-12984D03*
Y-2984D03*
Y7016D03*
Y17016D03*
Y27016D03*
Y37016D03*
Y47016D03*
Y57016D03*
Y67016D03*
X-212106Y111201D03*
Y121201D03*
X-207819Y-22984D03*
Y-12984D03*
Y-2984D03*
Y7016D03*
Y17016D03*
Y27016D03*
Y37016D03*
Y47016D03*
Y57016D03*
Y67016D03*
X-202106Y111201D03*
Y121201D03*
X-192106Y111201D03*
Y121201D03*
X-182106Y111201D03*
Y121201D03*
X-179284Y-151524D03*
X-173890Y-162705D03*
X-172106Y111201D03*
Y121201D03*
X-168496Y-151524D03*
X-163103Y-162705D03*
X-160327Y-118236D03*
Y-108236D03*
Y111291D03*
Y121291D03*
X-157709Y-151524D03*
X-152315Y-162705D03*
X-150327Y-118236D03*
Y-108236D03*
Y111291D03*
Y121291D03*
X-146921Y-151524D03*
X-141528Y-162705D03*
X-140327Y-118236D03*
Y-108236D03*
Y111291D03*
Y121291D03*
X-136134Y-151524D03*
X-130327Y-118236D03*
Y-108236D03*
Y111291D03*
Y121291D03*
X-120327Y-118236D03*
Y-108236D03*
Y111291D03*
Y121291D03*
X-110327Y-118236D03*
Y-108236D03*
Y111291D03*
Y121291D03*
X-100327Y-118236D03*
Y-108236D03*
Y111291D03*
Y121291D03*
X-90327Y-118236D03*
Y-108236D03*
Y111291D03*
Y121291D03*
X-80327Y-118236D03*
Y-108236D03*
Y111291D03*
Y121291D03*
X-70327Y-118236D03*
Y-108236D03*
Y111291D03*
Y121291D03*
X-65870Y-163098D03*
Y-153098D03*
X-60327Y-118236D03*
Y-108236D03*
Y111291D03*
Y121291D03*
X-55870Y-163098D03*
Y-153098D03*
X-50327Y-118236D03*
Y-108236D03*
Y111291D03*
Y121291D03*
X-45870Y-163098D03*
Y-153098D03*
X-40327Y-118236D03*
Y-108236D03*
Y111291D03*
Y121291D03*
X-35870Y-163098D03*
Y-153098D03*
X-30327Y-118236D03*
Y-108236D03*
Y111291D03*
Y121291D03*
X-25870Y-163098D03*
Y-153098D03*
X-20327Y-118236D03*
Y-108236D03*
Y111291D03*
Y121291D03*
X-15870Y-163098D03*
Y-153098D03*
X-10327Y-118236D03*
Y-108236D03*
Y111291D03*
Y121291D03*
X-5870Y-163098D03*
Y-153098D03*
X-327Y-118236D03*
Y-108236D03*
Y111291D03*
Y121291D03*
X4130Y-163098D03*
Y-153098D03*
X9673Y-118236D03*
Y-108236D03*
Y111291D03*
Y121291D03*
X14130Y-163098D03*
Y-153098D03*
X19673Y-118236D03*
Y-108236D03*
Y111291D03*
Y121291D03*
X24130Y-153098D03*
X29673Y-118236D03*
Y111291D03*
X50551Y70866D03*
X51461Y121130D03*
X56378Y-119134D03*
X60551Y70866D03*
X61461Y111130D03*
Y121130D03*
X66378Y-119134D03*
X70551Y70866D03*
X71461Y111130D03*
Y121130D03*
X76378Y-119134D03*
X80551Y70866D03*
X81461Y111130D03*
Y121130D03*
X86378Y-119134D03*
X91461Y111130D03*
Y121130D03*
X96378Y-119134D03*
X101461Y111130D03*
Y121130D03*
X106378Y-119134D03*
X111461Y111130D03*
Y121130D03*
X116378Y-119134D03*
X121461Y111130D03*
Y121130D03*
X126378Y-119134D03*
X131461Y111130D03*
Y121130D03*
X136378Y-119134D03*
X141461Y111130D03*
Y121130D03*
X151461Y111130D03*
Y121130D03*
X161461Y111130D03*
Y121130D03*
X172920Y-174036D03*
X171936Y-159612D03*
X172056Y-145188D03*
X200697Y16169D03*
Y26169D03*
Y36169D03*
Y46169D03*
Y56169D03*
X210697Y16169D03*
Y26169D03*
Y36169D03*
Y46169D03*
G54D21*
X13915Y-34176D03*
X18245D03*
G54D12*
X-221205Y89139D03*
X-214800Y-105912D03*
X-210441Y-119925D03*
X-205212Y-77556D03*
X-203652Y98460D03*
X-198156Y54072D03*
X-198036Y12852D03*
X-197904Y34104D03*
X-179018Y-66686D03*
X-177084Y-77556D03*
X-168240Y-116412D03*
X-168228Y-112908D03*
X-167076Y55452D03*
X-164680Y58708D03*
X-145920Y-37008D03*
X-145944Y91620D03*
X-140664Y-49296D03*
X-141786Y88074D03*
X-128831Y-21095D03*
X-128172Y74400D03*
X-126036Y-19260D03*
X-125340Y37224D03*
X-124896Y62628D03*
X-125580Y76992D03*
X-121144Y58708D03*
X-122208Y80364D03*
X-118560Y-50496D03*
X-117804Y-31930D03*
X-115620Y-1200D03*
X-118176Y55452D03*
X-109536Y-24599D03*
X-110772Y26784D03*
X-106812Y3036D03*
X-105108Y6420D03*
X-103308Y9636D03*
X-106126Y66072D03*
X-102420Y-14698D03*
X-99708Y-7524D03*
X-101328Y12360D03*
X-96907Y-14753D03*
X-88914Y11610D03*
X-80983Y-44707D03*
X-75108Y-139416D03*
X-77436Y-39612D03*
X-75114Y-27498D03*
X-77503Y1771D03*
Y12259D03*
Y23753D03*
X-72144Y-34644D03*
X-70197Y-131979D03*
X-65364Y-125340D03*
X-65262Y11610D03*
X-53052Y-137952D03*
X-52908Y-131784D03*
X-54589Y-15480D03*
X-53688Y36816D03*
X-54408Y56592D03*
X-52950Y76014D03*
X-48351Y-142093D03*
X-46322Y-7044D03*
X-41927Y-25357D03*
X-37026Y9690D03*
X-39156Y16920D03*
X-35724Y18492D03*
X-39033Y42072D03*
X-36252Y71112D03*
X-33548Y-33304D03*
X-29208Y-32016D03*
X-27540Y31044D03*
X-23964Y-27528D03*
X-26430Y-30114D03*
X-21282Y-25146D03*
X-21367Y-20863D03*
X-17286Y-19098D03*
X-19296Y79740D03*
X-13962Y-17610D03*
X-10872Y65508D03*
X-11052Y87984D03*
X-7368Y35796D03*
X-936Y34788D03*
X7765Y-126421D03*
X15780Y-41076D03*
X19956Y-36744D03*
X20461Y-127273D03*
X20571Y-74787D03*
X24804Y-79920D03*
X39852Y-600D03*
X40800Y-80472D03*
X41189Y-69091D03*
X45953Y-181807D03*
X46875Y-166551D03*
X45449Y13169D03*
X45663Y18736D03*
X58651Y-72079D03*
X61026Y-79962D03*
X69072Y-81672D03*
X68749Y-69781D03*
X68309Y12089D03*
X75120Y-170736D03*
X71894Y-160558D03*
X101028Y-19308D03*
X103582Y-137066D03*
X106812Y67236D03*
X114277Y-166343D03*
X118608Y-75168D03*
X118944Y-69324D03*
X119280Y-62880D03*
X117610Y-7138D03*
X119532Y-91320D03*
X120906Y-9618D03*
X120479Y26725D03*
X127056Y-75252D03*
X126396Y-69408D03*
X126060Y-62712D03*
X124632Y81552D03*
X128400Y-91320D03*
X137400Y19392D03*
X137784Y79188D03*
X137880Y82620D03*
X145296Y103248D03*
X149868Y-19500D03*
X153336Y-19188D03*
X159636Y-86484D03*
X159972Y-66648D03*
X166548Y23844D03*
X163692Y42516D03*
X163212Y76740D03*
X168384Y-86568D03*
X167292Y-66480D03*
X168590Y60178D03*
X168780Y74988D03*
X172356Y23760D03*
X173135Y36563D03*
X172692Y42432D03*
X172831Y54161D03*
X172060Y86972D03*
X179340Y70908D03*
X209784Y-121932D03*
X209748Y-114480D03*
X220212Y-121584D03*
X219288Y-114360D03*
X218677Y-78047D03*
X231047D03*
G54D30*
X66358Y132084D03*
X135636Y30060D03*
X223968Y7560D03*
G54D13*
X-206921Y-157115D03*
X-108496D03*
G54D31*
X94831Y-25524D03*
X99161D03*
G54D22*
X23413Y-63776D03*
X22212Y-53568D03*
X22464Y-46020D03*
X22344Y-41076D03*
X23413Y-664D03*
X26916Y-65352D03*
X27350Y-59839D03*
Y-4601D03*
X27156Y2016D03*
X31287Y-59839D03*
Y-51965D03*
Y-40154D03*
Y-24286D03*
Y-12475D03*
X35224Y-51965D03*
Y-44091D03*
Y-40154D03*
Y-24286D03*
Y-12475D03*
X39161Y-55902D03*
Y-51965D03*
Y-44091D03*
Y-36217D03*
Y-16412D03*
Y-12475D03*
Y-8538D03*
X43098Y-48028D03*
Y-44091D03*
Y-40154D03*
Y-36217D03*
Y-20349D03*
Y-16412D03*
Y-12475D03*
X47035Y-55902D03*
Y-51965D03*
Y-44091D03*
Y-40154D03*
Y-36217D03*
Y-28223D03*
Y-24286D03*
Y-16412D03*
Y-12475D03*
Y-8538D03*
X50972Y-63776D03*
Y-59839D03*
Y-48028D03*
Y-44091D03*
Y-40154D03*
Y-36217D03*
Y-28223D03*
Y-24286D03*
Y-20349D03*
Y-16412D03*
X51000Y-12503D03*
X52452Y5520D03*
X58966Y-63776D03*
Y-55902D03*
Y-51965D03*
Y-48028D03*
Y-44091D03*
Y-40154D03*
Y-36217D03*
Y-28223D03*
Y-24286D03*
Y-20349D03*
Y-16412D03*
X58884Y-12557D03*
X58548Y-8520D03*
X58656Y5100D03*
X62903Y-55902D03*
Y-51965D03*
Y-48028D03*
Y-40154D03*
Y-36217D03*
Y-28223D03*
Y-24286D03*
Y-20349D03*
Y-12475D03*
X63267Y-8558D03*
X66840Y-59839D03*
Y-48028D03*
Y-44091D03*
Y-40154D03*
Y-24286D03*
Y-20349D03*
Y-16412D03*
X66804Y-12511D03*
X65460Y30012D03*
Y40596D03*
X70777Y-55902D03*
Y-51965D03*
Y-48028D03*
Y-44091D03*
Y-40154D03*
Y-16412D03*
Y-12475D03*
Y-8538D03*
Y-4601D03*
X70992Y16044D03*
X74714Y-51965D03*
Y-24286D03*
Y-12475D03*
X71616Y55560D03*
X73572Y63732D03*
X78651Y-51965D03*
Y-48028D03*
Y-44091D03*
Y-40154D03*
Y-24286D03*
Y-20349D03*
Y-16412D03*
Y-12475D03*
X75624Y33288D03*
X80760Y-65112D03*
X82588Y-59839D03*
Y-4601D03*
X81396Y1356D03*
X86525Y-63776D03*
Y-664D03*
X86424Y20496D03*
X83736Y40668D03*
X88896Y-55824D03*
X89328Y-46440D03*
X87828Y40884D03*
X94524Y-28452D03*
X94116Y78948D03*
X107040Y16248D03*
X107304Y19536D03*
X107172Y27360D03*
X110868Y51444D03*
X111660Y16332D03*
X111888Y27444D03*
X111228Y34800D03*
X113472Y43920D03*
X113184Y48192D03*
X113196Y57168D03*
X131292Y87791D03*
X137100Y8028D03*
X140184Y-98160D03*
X139752Y-90852D03*
X139812Y-75804D03*
X139692Y-71112D03*
X146352Y-90684D03*
X145800Y-75804D03*
X145692Y-70896D03*
X146124Y-64680D03*
X144852Y71832D03*
X147924Y-103392D03*
X148200Y-97884D03*
X151848Y-90684D03*
X151908Y-76128D03*
Y-71112D03*
X151476Y-65016D03*
X151512Y-31188D03*
X152640Y71892D03*
X155772Y-113580D03*
X157140Y-103440D03*
X157356Y-98040D03*
X161256Y-30684D03*
X162528Y89616D03*
X163620Y-113580D03*
X163500Y-23988D03*
X163596Y-18492D03*
X172212Y-98016D03*
X172848Y-30936D03*
X174048Y-24084D03*
X173748Y-18144D03*
X171540Y-7896D03*
X176208Y-90912D03*
X176508Y-85524D03*
X177108Y-69120D03*
X177300Y-64116D03*
X177504Y-58320D03*
X175788Y-7932D03*
X180456Y-122532D03*
X180708Y-97920D03*
X181440Y-30456D03*
X181860Y-23472D03*
X180144Y-7836D03*
X182904Y-90720D03*
Y-85524D03*
X184404Y-69216D03*
X184104Y-63924D03*
X184008Y-58128D03*
X187860Y-121944D03*
X189108Y-98016D03*
X189768Y-30036D03*
X189516Y-23472D03*
X194088Y-121944D03*
X190548Y-116892D03*
X190800Y-91116D03*
X190596Y-85524D03*
X191496Y-69324D03*
X195600Y-116724D03*
X197904Y-97920D03*
X198204Y-91620D03*
X198096Y-50820D03*
X197676Y-29952D03*
X197244Y-23472D03*
X197280Y-15636D03*
X201312Y-122028D03*
Y-116472D03*
X198432Y-46452D03*
X202236Y-15804D03*
X203892Y-50568D03*
X203724Y-46200D03*
X205824Y-30456D03*
X205740Y-23472D03*
X209700Y-50484D03*
X209280Y-46200D03*
X206952Y-15552D03*
G54D32*
X158741Y32823D03*
X158941Y50421D03*
X159142Y67228D03*
X158741Y83232D03*
X168189Y29083D03*
Y36563D03*
X168389Y46681D03*
Y54161D03*
X168590Y63488D03*
Y70968D03*
X168189Y79492D03*
Y86972D03*
G54D23*
X21780Y-60945D03*
Y-56535D03*
X34488Y-7701D03*
Y-3291D03*
X49884Y-7653D03*
Y-3243D03*
X55224Y-7533D03*
Y-3123D03*
X75060Y-7797D03*
Y-3387D03*
X89580Y-63957D03*
Y-59547D03*
G54D14*
X-205726Y-48970D03*
X-170340Y-96816D03*
X-157545Y43767D03*
X-137616Y35484D03*
X-131568Y49992D03*
X-91068Y46054D03*
X-66404Y37076D03*
X-51936Y28992D03*
X83837Y-177319D03*
X90847Y50563D03*
X120180Y-151864D03*
X136092Y41783D03*
X159336Y23352D03*
X168472Y-131900D03*
X229956Y-84540D03*
G54D15*
X-198036Y2251D03*
Y8645D03*
X-197904Y22975D03*
Y29369D03*
G54D24*
X23124Y-7533D03*
Y-3123D03*
X43044Y-61305D03*
Y-56895D03*
X54960Y-45453D03*
Y-41043D03*
X73728Y-61257D03*
Y-56847D03*
X89340Y-5133D03*
Y-723D03*
G54D33*
X177862Y25823D03*
Y32217D03*
X178665Y45429D03*
Y51823D03*
G54D16*
X-152588Y37728D03*
X-145108D03*
X-66404Y28992D03*
X-58924D03*
G54D34*
X177862Y74787D03*
Y82465D03*
G54D25*
X40800Y-77069D03*
Y-72739D03*
X52056Y7915D03*
Y12245D03*
X59340Y7759D03*
Y12089D03*
X66840Y-12017D03*
Y-7687D03*
X69072Y-78053D03*
Y-73723D03*
G54D26*
X41748Y8839D03*
Y13169D03*
X61848Y-76409D03*
Y-72079D03*
G54D17*
X-34748Y-140115D03*
Y-133029D03*
X-31599Y-140115D03*
X-28449D03*
Y-133029D03*
X-31599D03*
X-25300Y-140115D03*
Y-133029D03*
G54D35*
X204588Y79889D03*
Y98786D03*
Y117684D03*
G54D18*
X-5543Y-141336D03*
X2135D03*
X7513Y-141480D03*
X15191D03*
X20317Y-141636D03*
X27995D03*
G54D27*
X54816Y-63090D03*
Y-56790D03*
G54D19*
X-5087Y-133368D03*
X2591D03*
X7765Y-133284D03*
X15443D03*
X20461Y-133716D03*
X28139D03*
G54D28*
X55116Y-24570D03*
Y-18270D03*
G54D29*
X59139Y-32328D03*
X63549D03*
X80523Y-55092D03*
X81147Y-39912D03*
X80535Y-26424D03*
X80403Y-9996D03*
X84933Y-55092D03*
X85557Y-39912D03*
X84945Y-26424D03*
X84813Y-9996D03*
M02*
